%TF.GenerationSoftware,KiCad,Pcbnew,8.0.8-8.0.8-0~ubuntu22.04.1*%
%TF.CreationDate,2025-02-01T01:24:59+00:00*%
%TF.ProjectId,miniwing,6d696e69-7769-46e6-972e-6b696361645f,1*%
%TF.SameCoordinates,Original*%
%TF.FileFunction,Paste,Bot*%
%TF.FilePolarity,Positive*%
%FSLAX46Y46*%
G04 Gerber Fmt 4.6, Leading zero omitted, Abs format (unit mm)*
G04 Created by KiCad (PCBNEW 8.0.8-8.0.8-0~ubuntu22.04.1) date 2025-02-01 01:24:59*
%MOMM*%
%LPD*%
G01*
G04 APERTURE LIST*
G04 Aperture macros list*
%AMRoundRect*
0 Rectangle with rounded corners*
0 $1 Rounding radius*
0 $2 $3 $4 $5 $6 $7 $8 $9 X,Y pos of 4 corners*
0 Add a 4 corners polygon primitive as box body*
4,1,4,$2,$3,$4,$5,$6,$7,$8,$9,$2,$3,0*
0 Add four circle primitives for the rounded corners*
1,1,$1+$1,$2,$3*
1,1,$1+$1,$4,$5*
1,1,$1+$1,$6,$7*
1,1,$1+$1,$8,$9*
0 Add four rect primitives between the rounded corners*
20,1,$1+$1,$2,$3,$4,$5,0*
20,1,$1+$1,$4,$5,$6,$7,0*
20,1,$1+$1,$6,$7,$8,$9,0*
20,1,$1+$1,$8,$9,$2,$3,0*%
G04 Aperture macros list end*
%ADD10RoundRect,0.250000X-1.450000X0.312500X-1.450000X-0.312500X1.450000X-0.312500X1.450000X0.312500X0*%
%ADD11R,0.750000X1.000000*%
%ADD12RoundRect,0.112500X-0.087064X0.200580X-0.136011X-0.171212X0.087064X-0.200580X0.136011X0.171212X0*%
%ADD13RoundRect,0.112500X-0.032183X0.216279X-0.175690X-0.130176X0.032183X-0.216279X0.175690X0.130176X0*%
%ADD14RoundRect,0.112500X-0.136011X0.171212X-0.087064X-0.200580X0.136011X-0.171212X0.087064X0.200580X0*%
%ADD15RoundRect,0.140000X0.140000X0.170000X-0.140000X0.170000X-0.140000X-0.170000X0.140000X-0.170000X0*%
%ADD16RoundRect,0.112500X-0.175690X0.130176X-0.032183X-0.216279X0.175690X-0.130176X0.032183X0.216279X0*%
%ADD17RoundRect,0.112500X-0.060138X0.210228X-0.157195X-0.151994X0.060138X-0.210228X0.157195X0.151994X0*%
%ADD18RoundRect,0.200000X0.200000X0.275000X-0.200000X0.275000X-0.200000X-0.275000X0.200000X-0.275000X0*%
%ADD19RoundRect,0.112500X-0.157195X0.151994X-0.060138X-0.210228X0.157195X-0.151994X0.060138X0.210228X0*%
%ADD20RoundRect,0.112500X-0.112500X0.187500X-0.112500X-0.187500X0.112500X-0.187500X0.112500X0.187500X0*%
%ADD21RoundRect,0.375000X0.375000X-0.625000X0.375000X0.625000X-0.375000X0.625000X-0.375000X-0.625000X0*%
%ADD22RoundRect,0.500000X1.400000X-0.500000X1.400000X0.500000X-1.400000X0.500000X-1.400000X-0.500000X0*%
%ADD23RoundRect,0.140000X-0.170000X0.140000X-0.170000X-0.140000X0.170000X-0.140000X0.170000X0.140000X0*%
%ADD24RoundRect,0.075000X0.075000X-0.662500X0.075000X0.662500X-0.075000X0.662500X-0.075000X-0.662500X0*%
%ADD25RoundRect,0.075000X0.662500X-0.075000X0.662500X0.075000X-0.662500X0.075000X-0.662500X-0.075000X0*%
%ADD26RoundRect,0.140000X0.170000X-0.140000X0.170000X0.140000X-0.170000X0.140000X-0.170000X-0.140000X0*%
%ADD27RoundRect,0.200000X-0.200000X-0.275000X0.200000X-0.275000X0.200000X0.275000X-0.200000X0.275000X0*%
%ADD28RoundRect,0.140000X-0.140000X-0.170000X0.140000X-0.170000X0.140000X0.170000X-0.140000X0.170000X0*%
%ADD29R,0.600000X1.450000*%
%ADD30R,0.300000X1.450000*%
%ADD31RoundRect,0.150000X0.150000X-0.512500X0.150000X0.512500X-0.150000X0.512500X-0.150000X-0.512500X0*%
G04 APERTURE END LIST*
D10*
%TO.C,F1*%
X142500000Y-64162500D03*
X142500000Y-68437500D03*
%TD*%
D11*
%TO.C,RESET1*%
X146745000Y-113317500D03*
X146745000Y-107317500D03*
X142995000Y-113317500D03*
X142995000Y-107317500D03*
%TD*%
%TO.C,BOOT1*%
X152995000Y-107317500D03*
X152995000Y-113317500D03*
X156745000Y-107317500D03*
X156745000Y-113317500D03*
%TD*%
D12*
%TO.C,D12*%
X88809945Y-73883500D03*
X88535839Y-75965534D03*
%TD*%
D13*
%TO.C,D24*%
X114728625Y-98225759D03*
X113924989Y-100165907D03*
%TD*%
D14*
%TO.C,D29*%
X212625903Y-86772414D03*
X212900009Y-88854448D03*
%TD*%
D15*
%TO.C,C8*%
X155820000Y-96000000D03*
X154860000Y-96000000D03*
%TD*%
D16*
%TO.C,D26*%
X170657486Y-101465353D03*
X171461122Y-103405501D03*
%TD*%
D15*
%TO.C,C5*%
X141460000Y-70300000D03*
X140500000Y-70300000D03*
%TD*%
D17*
%TO.C,D13*%
X107378922Y-69861873D03*
X106835404Y-71890317D03*
%TD*%
D16*
%TO.C,D34*%
X191516066Y-113932094D03*
X192319702Y-115872242D03*
%TD*%
D18*
%TO.C,R2*%
X148620000Y-68862500D03*
X146970000Y-68862500D03*
%TD*%
D15*
%TO.C,C13*%
X145687500Y-86567500D03*
X144727500Y-86567500D03*
%TD*%
D16*
%TO.C,D17*%
X180035563Y-86215708D03*
X180839199Y-88155856D03*
%TD*%
D13*
%TO.C,D32*%
X120662553Y-121790320D03*
X119858917Y-123730468D03*
%TD*%
D14*
%TO.C,D9*%
X209232222Y-60994847D03*
X209506328Y-63076881D03*
%TD*%
D19*
%TO.C,D8*%
X188995463Y-57305097D03*
X189538981Y-59333541D03*
%TD*%
D20*
%TO.C,D10*%
X228279637Y-67270085D03*
X228279637Y-69370087D03*
%TD*%
D19*
%TO.C,D18*%
X192360111Y-69862132D03*
X192903629Y-71890576D03*
%TD*%
D21*
%TO.C,U1*%
X139100000Y-67950000D03*
X136800000Y-67950000D03*
D22*
X136800000Y-61650000D03*
D21*
X134500000Y-67950000D03*
%TD*%
D17*
%TO.C,D3*%
X110743570Y-57304839D03*
X110200052Y-59333283D03*
%TD*%
D23*
%TO.C,C6*%
X132100000Y-68880000D03*
X132100000Y-67920000D03*
%TD*%
D20*
%TO.C,D21*%
X71459362Y-93270085D03*
X71459362Y-95370087D03*
%TD*%
D24*
%TO.C,U3*%
X152620000Y-96480000D03*
X152120000Y-96480000D03*
X151620000Y-96480000D03*
X151119999Y-96480000D03*
X150620000Y-96480000D03*
X150120000Y-96480000D03*
X149620000Y-96480000D03*
X149120000Y-96480000D03*
X148620001Y-96480000D03*
X148120000Y-96480000D03*
X147620000Y-96480000D03*
X147120000Y-96480000D03*
D25*
X145707500Y-95067500D03*
X145707500Y-94567500D03*
X145707500Y-94067500D03*
X145707500Y-93567499D03*
X145707500Y-93067500D03*
X145707500Y-92567500D03*
X145707500Y-92067500D03*
X145707500Y-91567500D03*
X145707500Y-91067501D03*
X145707500Y-90567500D03*
X145707500Y-90067500D03*
X145707500Y-89567500D03*
D24*
X147120000Y-88155000D03*
X147620000Y-88155000D03*
X148120000Y-88155000D03*
X148620001Y-88155000D03*
X149120000Y-88155000D03*
X149620000Y-88155000D03*
X150120000Y-88155000D03*
X150620000Y-88155000D03*
X151119999Y-88155000D03*
X151620000Y-88155000D03*
X152120000Y-88155000D03*
X152620000Y-88155000D03*
D25*
X154032500Y-89567500D03*
X154032500Y-90067500D03*
X154032500Y-90567500D03*
X154032500Y-91067501D03*
X154032500Y-91567500D03*
X154032500Y-92067500D03*
X154032500Y-92567500D03*
X154032500Y-93067500D03*
X154032500Y-93567499D03*
X154032500Y-94067500D03*
X154032500Y-94567500D03*
X154032500Y-95067500D03*
%TD*%
D13*
%TO.C,D5*%
X139031357Y-77444102D03*
X138227721Y-79384250D03*
%TD*%
D23*
%TO.C,C1*%
X147620001Y-97980000D03*
X147620001Y-98940000D03*
%TD*%
D13*
%TO.C,D14*%
X119703511Y-86215325D03*
X118899875Y-88155473D03*
%TD*%
%TO.C,D15*%
X134056473Y-89454536D03*
X133252837Y-91394684D03*
%TD*%
D15*
%TO.C,C11*%
X145687500Y-88567500D03*
X144727500Y-88567500D03*
%TD*%
%TO.C,C14*%
X145687500Y-85567500D03*
X144727500Y-85567500D03*
%TD*%
D17*
%TO.C,D23*%
X104014274Y-82418908D03*
X103470756Y-84447352D03*
%TD*%
D20*
%TO.C,D11*%
X71459362Y-80270085D03*
X71459362Y-82370087D03*
%TD*%
D26*
%TO.C,C4*%
X153520000Y-88100000D03*
X153520000Y-87140000D03*
%TD*%
D16*
%TO.C,D27*%
X185010448Y-98226142D03*
X185814084Y-100166290D03*
%TD*%
D18*
%TO.C,R1*%
X156800000Y-115317500D03*
X155150000Y-115317500D03*
%TD*%
D23*
%TO.C,C10*%
X153250000Y-98030000D03*
X153250000Y-98990000D03*
%TD*%
D27*
%TO.C,R3*%
X151620000Y-68862500D03*
X153270000Y-68862500D03*
%TD*%
D15*
%TO.C,C7*%
X155820000Y-97000000D03*
X154860000Y-97000000D03*
%TD*%
%TO.C,C12*%
X145687500Y-87567500D03*
X144727500Y-87567500D03*
%TD*%
D16*
%TO.C,D16*%
X165682601Y-89454919D03*
X166486237Y-91395067D03*
%TD*%
D12*
%TO.C,D2*%
X90506785Y-60994716D03*
X90232679Y-63076750D03*
%TD*%
D23*
%TO.C,C9*%
X154250000Y-98030000D03*
X154250000Y-98990000D03*
%TD*%
D19*
%TO.C,D28*%
X195724759Y-82419167D03*
X196268277Y-84447611D03*
%TD*%
D20*
%TO.C,D20*%
X228279637Y-80270085D03*
X228279637Y-82370087D03*
%TD*%
%TO.C,D30*%
X228279636Y-93270085D03*
X228279636Y-95370087D03*
%TD*%
D13*
%TO.C,D25*%
X129081588Y-101464970D03*
X128277952Y-103405118D03*
%TD*%
D28*
%TO.C,C15*%
X145740000Y-114600000D03*
X146700000Y-114600000D03*
%TD*%
D29*
%TO.C,J1*%
X146620000Y-66362500D03*
X147420000Y-66362500D03*
D30*
X148620000Y-66362500D03*
X149620000Y-66362500D03*
X150120000Y-66362500D03*
X151120000Y-66362500D03*
D29*
X152320000Y-66362500D03*
X153120000Y-66362500D03*
X153120000Y-66362500D03*
X152320000Y-66362500D03*
D30*
X151620000Y-66362500D03*
X150620000Y-66362500D03*
X149120000Y-66362500D03*
X148120000Y-66362500D03*
D29*
X147420000Y-66362500D03*
X146620000Y-66362500D03*
%TD*%
D31*
%TO.C,U2*%
X151320000Y-74022500D03*
X150370000Y-74022500D03*
X149420000Y-74022500D03*
X149420000Y-71747500D03*
X150370000Y-71747500D03*
X151320000Y-71747500D03*
%TD*%
D12*
%TO.C,D22*%
X87113104Y-86772283D03*
X86838998Y-88854317D03*
%TD*%
D13*
%TO.C,D4*%
X124678396Y-74204891D03*
X123874760Y-76145039D03*
%TD*%
D16*
%TO.C,D33*%
X179076521Y-121790703D03*
X179880157Y-123730851D03*
%TD*%
D26*
%TO.C,C3*%
X154520000Y-88100000D03*
X154520000Y-87140000D03*
%TD*%
D16*
%TO.C,D6*%
X160707717Y-77444485D03*
X161511353Y-79384633D03*
%TD*%
D20*
%TO.C,D1*%
X71459360Y-67270087D03*
X71459360Y-69370089D03*
%TD*%
D16*
%TO.C,D7*%
X175060678Y-74205274D03*
X175864314Y-76145422D03*
%TD*%
D13*
%TO.C,D31*%
X108223008Y-113931711D03*
X107419372Y-115871859D03*
%TD*%
D14*
%TO.C,D19*%
X210929062Y-73883631D03*
X211203168Y-75965665D03*
%TD*%
D23*
%TO.C,C2*%
X148620001Y-97980000D03*
X148620001Y-98940000D03*
%TD*%
M02*
