%TF.GenerationSoftware,KiCad,Pcbnew,8.0.8-8.0.8-0~ubuntu22.04.1*%
%TF.CreationDate,2025-02-01T01:24:59+00:00*%
%TF.ProjectId,miniwing,6d696e69-7769-46e6-972e-6b696361645f,1*%
%TF.SameCoordinates,Original*%
%TF.FileFunction,Soldermask,Top*%
%TF.FilePolarity,Negative*%
%FSLAX46Y46*%
G04 Gerber Fmt 4.6, Leading zero omitted, Abs format (unit mm)*
G04 Created by KiCad (PCBNEW 8.0.8-8.0.8-0~ubuntu22.04.1) date 2025-02-01 01:24:59*
%MOMM*%
%LPD*%
G01*
G04 APERTURE LIST*
%ADD10C,3.200000*%
%ADD11C,1.800000*%
%ADD12C,1.950000*%
%ADD13C,0.650000*%
%ADD14O,1.000000X1.600000*%
%ADD15O,1.000000X2.100000*%
%ADD16C,0.990600*%
G04 APERTURE END LIST*
D10*
%TO.C,H6*%
X85402219Y-99760079D03*
%TD*%
%TO.C,H5*%
X134832429Y-120245290D03*
%TD*%
%TO.C,H4*%
X164906645Y-120245671D03*
%TD*%
%TO.C,H3*%
X214335794Y-99760342D03*
%TD*%
%TO.C,H2*%
X170132812Y-59357029D03*
%TD*%
%TO.C,H1*%
X129606220Y-59356769D03*
%TD*%
D11*
%TO.C,S11*%
X71458360Y-75370088D03*
X71458360Y-84370089D03*
D12*
X65208360Y-77370088D03*
X77709359Y-77370088D03*
X65208360Y-82370088D03*
X77709360Y-82370088D03*
%TD*%
D11*
%TO.C,S3*%
X112010819Y-52571544D03*
X109681447Y-61264876D03*
D12*
X105456146Y-52885777D03*
X117531183Y-56121273D03*
X104162050Y-57715405D03*
X116237088Y-60950902D03*
%TD*%
D11*
%TO.C,S12*%
X89448530Y-69025290D03*
X88273795Y-77948293D03*
D12*
X82990948Y-70192390D03*
X95385000Y-71824098D03*
X82338317Y-75149614D03*
X94732369Y-76781323D03*
%TD*%
D11*
%TO.C,S14*%
X121577736Y-81687932D03*
X118133585Y-90002849D03*
D12*
X115038122Y-81143921D03*
X126587540Y-85927847D03*
X113124704Y-85763319D03*
X124674122Y-90547244D03*
%TD*%
D11*
%TO.C,S30*%
X228279636Y-88370086D03*
X228279636Y-97370087D03*
D12*
X222029636Y-90370087D03*
X234530636Y-90370087D03*
X222029636Y-95370087D03*
X234530636Y-95370086D03*
%TD*%
D11*
%TO.C,S27*%
X183135300Y-93699133D03*
X186579451Y-102014050D03*
D12*
X178126419Y-97938663D03*
X189675837Y-93154738D03*
X180039837Y-102558061D03*
X191589255Y-97774135D03*
%TD*%
D11*
%TO.C,S17*%
X178160415Y-81688699D03*
X181604566Y-90003616D03*
D12*
X173151534Y-85928229D03*
X184700952Y-81144304D03*
X175064952Y-90547627D03*
X186614370Y-85763701D03*
%TD*%
D11*
%TO.C,S2*%
X91145370Y-56136506D03*
X89970635Y-65059509D03*
D12*
X84687788Y-57303606D03*
X97081840Y-58935314D03*
X84035157Y-62260830D03*
X96429209Y-63892539D03*
%TD*%
D11*
%TO.C,S7*%
X173185530Y-69678265D03*
X176629681Y-77993182D03*
D12*
X168176649Y-73917795D03*
X179726067Y-69133870D03*
X170090067Y-78537193D03*
X181639485Y-73753267D03*
%TD*%
D11*
%TO.C,S23*%
X105281523Y-77685613D03*
X102952151Y-86378945D03*
D12*
X98726850Y-77999846D03*
X110801887Y-81235342D03*
X97432754Y-82829474D03*
X109507792Y-86064971D03*
%TD*%
D11*
%TO.C,S10*%
X228279637Y-62370086D03*
X228279637Y-71370087D03*
D12*
X222029637Y-64370087D03*
X234530637Y-64370087D03*
X222029637Y-69370087D03*
X234530637Y-69370086D03*
%TD*%
D11*
%TO.C,S26*%
X168782338Y-96938344D03*
X172226489Y-105253261D03*
D12*
X163773457Y-101177874D03*
X175322875Y-96393949D03*
X165686875Y-105797272D03*
X177236293Y-101013346D03*
%TD*%
D11*
%TO.C,S15*%
X135930698Y-84927143D03*
X132486547Y-93242060D03*
D12*
X129391084Y-84383132D03*
X140940502Y-89167058D03*
X127477666Y-89002530D03*
X139027084Y-93786455D03*
%TD*%
D11*
%TO.C,S8*%
X187727247Y-52572061D03*
X190056619Y-61265393D03*
D12*
X182207850Y-56121532D03*
X194282888Y-52886035D03*
X183501945Y-60951160D03*
X195576983Y-57715664D03*
%TD*%
D11*
%TO.C,S22*%
X87751689Y-81914073D03*
X86576954Y-90837076D03*
D12*
X81294107Y-83081173D03*
X93688159Y-84712881D03*
X80641476Y-88038397D03*
X93035528Y-89670106D03*
%TD*%
D11*
%TO.C,S20*%
X228279637Y-75370086D03*
X228279637Y-84370087D03*
D12*
X222029637Y-77370087D03*
X234530637Y-77370087D03*
X222029637Y-82370087D03*
X234530637Y-82370086D03*
%TD*%
D11*
%TO.C,S9*%
X209767379Y-65059771D03*
X208592645Y-56136767D03*
D12*
X202657167Y-58935446D03*
X215051219Y-57303737D03*
X203309798Y-63892670D03*
X215703850Y-62260961D03*
%TD*%
D11*
%TO.C,S1*%
X71458360Y-62370089D03*
X71458360Y-71370090D03*
D12*
X65208360Y-64370089D03*
X77709359Y-64370089D03*
X65208360Y-69370089D03*
X77709360Y-69370089D03*
%TD*%
D11*
%TO.C,S21*%
X71458362Y-88370087D03*
X71458362Y-97370088D03*
D12*
X65208362Y-90370087D03*
X77709361Y-90370087D03*
X65208362Y-95370087D03*
X77709362Y-95370087D03*
%TD*%
D11*
%TO.C,S25*%
X130955813Y-96937577D03*
X127511662Y-105252494D03*
D12*
X124416199Y-96393566D03*
X135965617Y-101177492D03*
X122502781Y-101012964D03*
X134052199Y-105796889D03*
%TD*%
D11*
%TO.C,S31*%
X110097233Y-109404318D03*
X106653082Y-117719235D03*
D12*
X103557619Y-108860307D03*
X115107037Y-113644233D03*
X101644201Y-113479705D03*
X113193619Y-118263630D03*
%TD*%
D11*
%TO.C,S18*%
X191091895Y-65129096D03*
X193421267Y-73822428D03*
D12*
X185572498Y-68678567D03*
X197647536Y-65443070D03*
X186866593Y-73508195D03*
X198941631Y-70272699D03*
%TD*%
D11*
%TO.C,S28*%
X194456543Y-77686131D03*
X196785915Y-86379463D03*
D12*
X188937146Y-81235602D03*
X201012184Y-78000105D03*
X190231241Y-86065230D03*
X202306279Y-82829734D03*
%TD*%
D11*
%TO.C,S19*%
X211464219Y-77948555D03*
X210289485Y-69025551D03*
D12*
X204354007Y-71824230D03*
X216748059Y-70192521D03*
X205006638Y-76781454D03*
X217400690Y-75149745D03*
%TD*%
D11*
%TO.C,S5*%
X140905582Y-72916709D03*
X137461431Y-81231626D03*
D12*
X134365968Y-72372698D03*
X145915386Y-77156624D03*
X132452550Y-76992096D03*
X144001968Y-81776021D03*
%TD*%
D11*
%TO.C,S32*%
X122536778Y-117262927D03*
X119092627Y-125577844D03*
D12*
X115997164Y-116718916D03*
X127546582Y-121502842D03*
X114083746Y-121338314D03*
X125633164Y-126122239D03*
%TD*%
D11*
%TO.C,S6*%
X158832569Y-72917476D03*
X162276720Y-81232393D03*
D12*
X153823688Y-77157006D03*
X165373106Y-72373081D03*
X155737106Y-81776404D03*
X167286524Y-76992478D03*
%TD*%
D11*
%TO.C,S34*%
X189640918Y-109405085D03*
X193085069Y-117720002D03*
D12*
X184632037Y-113644615D03*
X196181455Y-108860690D03*
X186545455Y-118264013D03*
X198094873Y-113480087D03*
%TD*%
D11*
%TO.C,S13*%
X108646171Y-65128578D03*
X106316799Y-73821910D03*
D12*
X102091498Y-65442811D03*
X114166535Y-68678307D03*
X100797402Y-70272439D03*
X112872440Y-73507936D03*
%TD*%
D11*
%TO.C,S16*%
X163807453Y-84927910D03*
X167251604Y-93242827D03*
D12*
X158798572Y-89167440D03*
X170347990Y-84383515D03*
X160711990Y-93786838D03*
X172261408Y-89002912D03*
%TD*%
%TO.C,S4*%
X129649007Y-78536810D03*
X118099589Y-73752885D03*
X131562425Y-73917413D03*
X120013007Y-69133487D03*
D11*
X123108470Y-77992415D03*
X126552621Y-69677498D03*
%TD*%
%TO.C,S29*%
X213161060Y-90837338D03*
X211986326Y-81914334D03*
D12*
X206050848Y-84713013D03*
X218444900Y-83081304D03*
X206703479Y-89670237D03*
X219097531Y-88038528D03*
%TD*%
D11*
%TO.C,S33*%
X177201373Y-117263694D03*
X180645524Y-125578611D03*
D12*
X172192492Y-121503224D03*
X183741910Y-116719299D03*
X174105910Y-126122622D03*
X185655328Y-121338696D03*
%TD*%
D11*
%TO.C,S24*%
X116602850Y-93698366D03*
X113158699Y-102013283D03*
D12*
X110063236Y-93154355D03*
X121612654Y-97938281D03*
X108149818Y-97773753D03*
X119699236Y-102557678D03*
%TD*%
D13*
%TO.C,J1*%
X146980000Y-64917500D03*
X152760000Y-64917500D03*
D14*
X145550000Y-61267500D03*
D15*
X145550000Y-65447500D03*
D14*
X154190000Y-61267500D03*
D15*
X154190000Y-65447500D03*
%TD*%
D16*
%TO.C,J3*%
X149870000Y-112857500D03*
X148854000Y-107777500D03*
X150886000Y-107777500D03*
%TD*%
M02*
