M48
; DRILL file {KiCad 8.0.8-8.0.8-0~ubuntu22.04.1} date 2025-02-01T01:24:59+0000
; FORMAT={-:-/ absolute / inch / decimal}
; #@! TF.CreationDate,2025-02-01T01:24:59+00:00
; #@! TF.GenerationSoftware,Kicad,Pcbnew,8.0.8-8.0.8-0~ubuntu22.04.1
; #@! TF.FileFunction,NonPlated,1,2,NPTH
FMAT,2
INCH
; #@! TA.AperFunction,NonPlated,NPTH,ComponentDrill
T1C0.0256
; #@! TA.AperFunction,NonPlated,NPTH,ComponentDrill
T2C0.0390
; #@! TA.AperFunction,NonPlated,NPTH,ComponentDrill
T3C0.0709
; #@! TA.AperFunction,NonPlated,NPTH,ComponentDrill
T4C0.1260
%
G90
G05
T1
X5.7866Y-2.5558
X6.0142Y-2.5558
T2
X5.8604Y-4.2432
X5.9004Y-4.4432
X5.9404Y-4.2432
T3
X2.8133Y-2.4555
X2.8133Y-2.8098
X2.8133Y-2.9673
X2.8133Y-3.3217
X2.8133Y-3.4791
X2.8133Y-3.8335
X3.4085Y-3.5763
X3.4548Y-3.225
X3.4753Y-3.0688
X3.5216Y-2.7175
X3.5422Y-2.5614
X3.5884Y-2.2101
X4.0532Y-3.4007
X4.1449Y-3.0585
X4.1857Y-2.9064
X4.1989Y-4.6346
X4.2774Y-2.5641
X4.3182Y-2.412
X4.3345Y-4.3073
X4.4099Y-2.0697
X4.4551Y-4.0163
X4.5907Y-3.6889
X4.6509Y-3.5434
X4.6887Y-4.944
X4.7865Y-3.2161
X4.8243Y-4.6167
X4.8468Y-3.0706
X4.9824Y-2.7432
X5.0201Y-4.1438
X5.1557Y-3.8164
X5.216Y-3.6709
X5.3516Y-3.3436
X5.4119Y-3.1981
X5.5475Y-2.8707
X6.2533Y-2.8708
X6.3888Y-3.1981
X6.4491Y-3.3436
X6.5847Y-3.671
X6.645Y-3.8165
X6.7806Y-4.1438
X6.8183Y-2.7432
X6.9539Y-3.0706
X6.9764Y-4.6167
X7.0142Y-3.2161
X7.112Y-4.944
X7.1498Y-3.5434
X7.2101Y-3.6889
X7.3456Y-4.0163
X7.3908Y-2.0698
X7.4662Y-4.3073
X7.4825Y-2.412
X7.5233Y-2.5641
X7.6018Y-4.6346
X7.615Y-2.9064
X7.6558Y-3.0585
X7.7475Y-3.4008
X8.2123Y-2.2101
X8.2586Y-2.5614
X8.2791Y-2.7175
X8.3254Y-3.0688
X8.3459Y-3.225
X8.3922Y-3.5763
X8.9874Y-3.4791
X8.9874Y-3.8335
X8.9874Y-2.4555
X8.9874Y-2.8098
X8.9874Y-2.9673
X8.9874Y-3.3217
T4
X3.3623Y-3.9276
X5.1026Y-2.3369
X5.3084Y-4.7341
X6.4924Y-4.7341
X6.6981Y-2.3369
X8.4384Y-3.9276
M30
