%TF.GenerationSoftware,KiCad,Pcbnew,8.0.8-8.0.8-0~ubuntu22.04.1*%
%TF.CreationDate,2025-02-01T01:24:59+00:00*%
%TF.ProjectId,miniwing,6d696e69-7769-46e6-972e-6b696361645f,1*%
%TF.SameCoordinates,Original*%
%TF.FileFunction,Legend,Top*%
%TF.FilePolarity,Positive*%
%FSLAX46Y46*%
G04 Gerber Fmt 4.6, Leading zero omitted, Abs format (unit mm)*
G04 Created by KiCad (PCBNEW 8.0.8-8.0.8-0~ubuntu22.04.1) date 2025-02-01 01:24:59*
%MOMM*%
%LPD*%
G01*
G04 APERTURE LIST*
%ADD10C,0.254000*%
%ADD11C,0.200000*%
%ADD12C,0.100000*%
%ADD13C,3.200000*%
%ADD14C,1.800000*%
%ADD15C,1.950000*%
%ADD16C,0.650000*%
%ADD17O,1.000000X1.600000*%
%ADD18O,1.000000X2.100000*%
%ADD19C,0.990600*%
G04 APERTURE END LIST*
D10*
X69886978Y-80383930D02*
X70068407Y-80444406D01*
X70068407Y-80444406D02*
X70370788Y-80444406D01*
X70370788Y-80444406D02*
X70491740Y-80383930D01*
X70491740Y-80383930D02*
X70552216Y-80323453D01*
X70552216Y-80323453D02*
X70612693Y-80202501D01*
X70612693Y-80202501D02*
X70612693Y-80081549D01*
X70612693Y-80081549D02*
X70552216Y-79960596D01*
X70552216Y-79960596D02*
X70491740Y-79900120D01*
X70491740Y-79900120D02*
X70370788Y-79839644D01*
X70370788Y-79839644D02*
X70128883Y-79779168D01*
X70128883Y-79779168D02*
X70007931Y-79718691D01*
X70007931Y-79718691D02*
X69947454Y-79658215D01*
X69947454Y-79658215D02*
X69886978Y-79537263D01*
X69886978Y-79537263D02*
X69886978Y-79416310D01*
X69886978Y-79416310D02*
X69947454Y-79295358D01*
X69947454Y-79295358D02*
X70007931Y-79234882D01*
X70007931Y-79234882D02*
X70128883Y-79174406D01*
X70128883Y-79174406D02*
X70431264Y-79174406D01*
X70431264Y-79174406D02*
X70612693Y-79234882D01*
X71822217Y-80444406D02*
X71096502Y-80444406D01*
X71459359Y-80444406D02*
X71459359Y-79174406D01*
X71459359Y-79174406D02*
X71338407Y-79355834D01*
X71338407Y-79355834D02*
X71217455Y-79476787D01*
X71217455Y-79476787D02*
X71096502Y-79537263D01*
X73031741Y-80444406D02*
X72306026Y-80444406D01*
X72668883Y-80444406D02*
X72668883Y-79174406D01*
X72668883Y-79174406D02*
X72547931Y-79355834D01*
X72547931Y-79355834D02*
X72426979Y-79476787D01*
X72426979Y-79476787D02*
X72306026Y-79537263D01*
X109779458Y-57164363D02*
X109939052Y-57269736D01*
X109939052Y-57269736D02*
X110231130Y-57347998D01*
X110231130Y-57347998D02*
X110363613Y-57320887D01*
X110363613Y-57320887D02*
X110437681Y-57278124D01*
X110437681Y-57278124D02*
X110527401Y-57176946D01*
X110527401Y-57176946D02*
X110558706Y-57060115D01*
X110558706Y-57060115D02*
X110531595Y-56927631D01*
X110531595Y-56927631D02*
X110488832Y-56853563D01*
X110488832Y-56853563D02*
X110387654Y-56763843D01*
X110387654Y-56763843D02*
X110169644Y-56642818D01*
X110169644Y-56642818D02*
X110068465Y-56553098D01*
X110068465Y-56553098D02*
X110025702Y-56479030D01*
X110025702Y-56479030D02*
X109998591Y-56346546D01*
X109998591Y-56346546D02*
X110029896Y-56229715D01*
X110029896Y-56229715D02*
X110119617Y-56128537D01*
X110119617Y-56128537D02*
X110193684Y-56085773D01*
X110193684Y-56085773D02*
X110326168Y-56058663D01*
X110326168Y-56058663D02*
X110618245Y-56136925D01*
X110618245Y-56136925D02*
X110777840Y-56242297D01*
X111202401Y-56293449D02*
X111961802Y-56496930D01*
X111961802Y-56496930D02*
X111427675Y-56854687D01*
X111427675Y-56854687D02*
X111602921Y-56901644D01*
X111602921Y-56901644D02*
X111704100Y-56991365D01*
X111704100Y-56991365D02*
X111746863Y-57065432D01*
X111746863Y-57065432D02*
X111773974Y-57197916D01*
X111773974Y-57197916D02*
X111695712Y-57489993D01*
X111695712Y-57489993D02*
X111605992Y-57591172D01*
X111605992Y-57591172D02*
X111531924Y-57633935D01*
X111531924Y-57633935D02*
X111399440Y-57661046D01*
X111399440Y-57661046D02*
X111048947Y-57567132D01*
X111048947Y-57567132D02*
X110947768Y-57477411D01*
X110947768Y-57477411D02*
X110905005Y-57403343D01*
X87236154Y-73791131D02*
X87408137Y-73874771D01*
X87408137Y-73874771D02*
X87707931Y-73914239D01*
X87707931Y-73914239D02*
X87835742Y-73870068D01*
X87835742Y-73870068D02*
X87903595Y-73818003D01*
X87903595Y-73818003D02*
X87979341Y-73705979D01*
X87979341Y-73705979D02*
X87995129Y-73586061D01*
X87995129Y-73586061D02*
X87950957Y-73458250D01*
X87950957Y-73458250D02*
X87898892Y-73390397D01*
X87898892Y-73390397D02*
X87786868Y-73314651D01*
X87786868Y-73314651D02*
X87554927Y-73223117D01*
X87554927Y-73223117D02*
X87442903Y-73147371D01*
X87442903Y-73147371D02*
X87390838Y-73079519D01*
X87390838Y-73079519D02*
X87346667Y-72951707D01*
X87346667Y-72951707D02*
X87362454Y-72831790D01*
X87362454Y-72831790D02*
X87438200Y-72719766D01*
X87438200Y-72719766D02*
X87506053Y-72667701D01*
X87506053Y-72667701D02*
X87633864Y-72623529D01*
X87633864Y-72623529D02*
X87933658Y-72662998D01*
X87933658Y-72662998D02*
X88105641Y-72746638D01*
X89146943Y-74103689D02*
X88427437Y-74008964D01*
X88787190Y-74056326D02*
X88952958Y-72797191D01*
X88952958Y-72797191D02*
X88809359Y-72961280D01*
X88809359Y-72961280D02*
X88673654Y-73065410D01*
X88673654Y-73065410D02*
X88545843Y-73109582D01*
X89776594Y-73027621D02*
X89844447Y-72975556D01*
X89844447Y-72975556D02*
X89972258Y-72931385D01*
X89972258Y-72931385D02*
X90272052Y-72970853D01*
X90272052Y-72970853D02*
X90384076Y-73046600D01*
X90384076Y-73046600D02*
X90436141Y-73114452D01*
X90436141Y-73114452D02*
X90480312Y-73242263D01*
X90480312Y-73242263D02*
X90464525Y-73362181D01*
X90464525Y-73362181D02*
X90380885Y-73534164D01*
X90380885Y-73534164D02*
X89566655Y-74158945D01*
X89566655Y-74158945D02*
X90346119Y-74261563D01*
X118207254Y-85718777D02*
X118351729Y-85844080D01*
X118351729Y-85844080D02*
X118631092Y-85959796D01*
X118631092Y-85959796D02*
X118765981Y-85950210D01*
X118765981Y-85950210D02*
X118844997Y-85917480D01*
X118844997Y-85917480D02*
X118947156Y-85828878D01*
X118947156Y-85828878D02*
X118993443Y-85717133D01*
X118993443Y-85717133D02*
X118983856Y-85582244D01*
X118983856Y-85582244D02*
X118951127Y-85503228D01*
X118951127Y-85503228D02*
X118862525Y-85401069D01*
X118862525Y-85401069D02*
X118662177Y-85252623D01*
X118662177Y-85252623D02*
X118573575Y-85150464D01*
X118573575Y-85150464D02*
X118540845Y-85071448D01*
X118540845Y-85071448D02*
X118531259Y-84936559D01*
X118531259Y-84936559D02*
X118577546Y-84824814D01*
X118577546Y-84824814D02*
X118679705Y-84736212D01*
X118679705Y-84736212D02*
X118758721Y-84703482D01*
X118758721Y-84703482D02*
X118893609Y-84693896D01*
X118893609Y-84693896D02*
X119172973Y-84809612D01*
X119172973Y-84809612D02*
X119317448Y-84934915D01*
X119972038Y-86515234D02*
X119301565Y-86237515D01*
X119636801Y-86376374D02*
X120122809Y-85203047D01*
X120122809Y-85203047D02*
X119941634Y-85324379D01*
X119941634Y-85324379D02*
X119783602Y-85389838D01*
X119783602Y-85389838D02*
X119648714Y-85399424D01*
X121301752Y-86149594D02*
X120977747Y-86931812D01*
X121207534Y-85586896D02*
X120581022Y-86309271D01*
X120581022Y-86309271D02*
X121307367Y-86610133D01*
X226708254Y-93383929D02*
X226889683Y-93444405D01*
X226889683Y-93444405D02*
X227192064Y-93444405D01*
X227192064Y-93444405D02*
X227313016Y-93383929D01*
X227313016Y-93383929D02*
X227373492Y-93323452D01*
X227373492Y-93323452D02*
X227433969Y-93202500D01*
X227433969Y-93202500D02*
X227433969Y-93081548D01*
X227433969Y-93081548D02*
X227373492Y-92960595D01*
X227373492Y-92960595D02*
X227313016Y-92900119D01*
X227313016Y-92900119D02*
X227192064Y-92839643D01*
X227192064Y-92839643D02*
X226950159Y-92779167D01*
X226950159Y-92779167D02*
X226829207Y-92718690D01*
X226829207Y-92718690D02*
X226768730Y-92658214D01*
X226768730Y-92658214D02*
X226708254Y-92537262D01*
X226708254Y-92537262D02*
X226708254Y-92416309D01*
X226708254Y-92416309D02*
X226768730Y-92295357D01*
X226768730Y-92295357D02*
X226829207Y-92234881D01*
X226829207Y-92234881D02*
X226950159Y-92174405D01*
X226950159Y-92174405D02*
X227252540Y-92174405D01*
X227252540Y-92174405D02*
X227433969Y-92234881D01*
X227857302Y-92174405D02*
X228643493Y-92174405D01*
X228643493Y-92174405D02*
X228220159Y-92658214D01*
X228220159Y-92658214D02*
X228401588Y-92658214D01*
X228401588Y-92658214D02*
X228522540Y-92718690D01*
X228522540Y-92718690D02*
X228583016Y-92779167D01*
X228583016Y-92779167D02*
X228643493Y-92900119D01*
X228643493Y-92900119D02*
X228643493Y-93202500D01*
X228643493Y-93202500D02*
X228583016Y-93323452D01*
X228583016Y-93323452D02*
X228522540Y-93383929D01*
X228522540Y-93383929D02*
X228401588Y-93444405D01*
X228401588Y-93444405D02*
X228038731Y-93444405D01*
X228038731Y-93444405D02*
X227917778Y-93383929D01*
X227917778Y-93383929D02*
X227857302Y-93323452D01*
X229429683Y-92174405D02*
X229550636Y-92174405D01*
X229550636Y-92174405D02*
X229671588Y-92234881D01*
X229671588Y-92234881D02*
X229732064Y-92295357D01*
X229732064Y-92295357D02*
X229792540Y-92416309D01*
X229792540Y-92416309D02*
X229853017Y-92658214D01*
X229853017Y-92658214D02*
X229853017Y-92960595D01*
X229853017Y-92960595D02*
X229792540Y-93202500D01*
X229792540Y-93202500D02*
X229732064Y-93323452D01*
X229732064Y-93323452D02*
X229671588Y-93383929D01*
X229671588Y-93383929D02*
X229550636Y-93444405D01*
X229550636Y-93444405D02*
X229429683Y-93444405D01*
X229429683Y-93444405D02*
X229308731Y-93383929D01*
X229308731Y-93383929D02*
X229248255Y-93323452D01*
X229248255Y-93323452D02*
X229187778Y-93202500D01*
X229187778Y-93202500D02*
X229127302Y-92960595D01*
X229127302Y-92960595D02*
X229127302Y-92658214D01*
X229127302Y-92658214D02*
X229187778Y-92416309D01*
X229187778Y-92416309D02*
X229248255Y-92295357D01*
X229248255Y-92295357D02*
X229308731Y-92234881D01*
X229308731Y-92234881D02*
X229429683Y-92174405D01*
X183602246Y-98932660D02*
X183793008Y-98919103D01*
X183793008Y-98919103D02*
X184072371Y-98803387D01*
X184072371Y-98803387D02*
X184160974Y-98701227D01*
X184160974Y-98701227D02*
X184193703Y-98622212D01*
X184193703Y-98622212D02*
X184203289Y-98487323D01*
X184203289Y-98487323D02*
X184157003Y-98375577D01*
X184157003Y-98375577D02*
X184054844Y-98286975D01*
X184054844Y-98286975D02*
X183975828Y-98254246D01*
X183975828Y-98254246D02*
X183840939Y-98244660D01*
X183840939Y-98244660D02*
X183594305Y-98281360D01*
X183594305Y-98281360D02*
X183459416Y-98271774D01*
X183459416Y-98271774D02*
X183380400Y-98239044D01*
X183380400Y-98239044D02*
X183278241Y-98150442D01*
X183278241Y-98150442D02*
X183231955Y-98038696D01*
X183231955Y-98038696D02*
X183241541Y-97903808D01*
X183241541Y-97903808D02*
X183274270Y-97824792D01*
X183274270Y-97824792D02*
X183362873Y-97722633D01*
X183362873Y-97722633D02*
X183642236Y-97606916D01*
X183642236Y-97606916D02*
X183832998Y-97593359D01*
X184303123Y-97464086D02*
X184335852Y-97385070D01*
X184335852Y-97385070D02*
X184424454Y-97282911D01*
X184424454Y-97282911D02*
X184703818Y-97167195D01*
X184703818Y-97167195D02*
X184838707Y-97176781D01*
X184838707Y-97176781D02*
X184917723Y-97209511D01*
X184917723Y-97209511D02*
X185019882Y-97298113D01*
X185019882Y-97298113D02*
X185066168Y-97409858D01*
X185066168Y-97409858D02*
X185079725Y-97600620D01*
X185079725Y-97600620D02*
X184686971Y-98548811D01*
X184686971Y-98548811D02*
X185413317Y-98247949D01*
X185318418Y-96912619D02*
X186100636Y-96588614D01*
X186100636Y-96588614D02*
X186083790Y-97970230D01*
X178627361Y-86922226D02*
X178818123Y-86908669D01*
X178818123Y-86908669D02*
X179097486Y-86792953D01*
X179097486Y-86792953D02*
X179186089Y-86690793D01*
X179186089Y-86690793D02*
X179218818Y-86611778D01*
X179218818Y-86611778D02*
X179228404Y-86476889D01*
X179228404Y-86476889D02*
X179182118Y-86365143D01*
X179182118Y-86365143D02*
X179079959Y-86276541D01*
X179079959Y-86276541D02*
X179000943Y-86243812D01*
X179000943Y-86243812D02*
X178866054Y-86234226D01*
X178866054Y-86234226D02*
X178619420Y-86270926D01*
X178619420Y-86270926D02*
X178484531Y-86261340D01*
X178484531Y-86261340D02*
X178405515Y-86228610D01*
X178405515Y-86228610D02*
X178303356Y-86140008D01*
X178303356Y-86140008D02*
X178257070Y-86028262D01*
X178257070Y-86028262D02*
X178266656Y-85893374D01*
X178266656Y-85893374D02*
X178299385Y-85814358D01*
X178299385Y-85814358D02*
X178387988Y-85712199D01*
X178387988Y-85712199D02*
X178667351Y-85596482D01*
X178667351Y-85596482D02*
X178858113Y-85582925D01*
X180438432Y-86237515D02*
X179767959Y-86515234D01*
X180103195Y-86376374D02*
X179617188Y-85203047D01*
X179617188Y-85203047D02*
X179574872Y-85416952D01*
X179574872Y-85416952D02*
X179509413Y-85574984D01*
X179509413Y-85574984D02*
X179420811Y-85677143D01*
X180343533Y-84902185D02*
X181125751Y-84578180D01*
X181125751Y-84578180D02*
X181108905Y-85959796D01*
X89532583Y-60981284D02*
X89704565Y-61064924D01*
X89704565Y-61064924D02*
X90004359Y-61104392D01*
X90004359Y-61104392D02*
X90132171Y-61060221D01*
X90132171Y-61060221D02*
X90200023Y-61008156D01*
X90200023Y-61008156D02*
X90275769Y-60896132D01*
X90275769Y-60896132D02*
X90291557Y-60776215D01*
X90291557Y-60776215D02*
X90247386Y-60648403D01*
X90247386Y-60648403D02*
X90195320Y-60580551D01*
X90195320Y-60580551D02*
X90083297Y-60504804D01*
X90083297Y-60504804D02*
X89851355Y-60413271D01*
X89851355Y-60413271D02*
X89739331Y-60337524D01*
X89739331Y-60337524D02*
X89687266Y-60269672D01*
X89687266Y-60269672D02*
X89643095Y-60141861D01*
X89643095Y-60141861D02*
X89658882Y-60021943D01*
X89658882Y-60021943D02*
X89734628Y-59909919D01*
X89734628Y-59909919D02*
X89802481Y-59857854D01*
X89802481Y-59857854D02*
X89930292Y-59813683D01*
X89930292Y-59813683D02*
X90230086Y-59853151D01*
X90230086Y-59853151D02*
X90402069Y-59936791D01*
X90873846Y-60059900D02*
X90941699Y-60007835D01*
X90941699Y-60007835D02*
X91069510Y-59963663D01*
X91069510Y-59963663D02*
X91369304Y-60003132D01*
X91369304Y-60003132D02*
X91481328Y-60078878D01*
X91481328Y-60078878D02*
X91533393Y-60146731D01*
X91533393Y-60146731D02*
X91577564Y-60274542D01*
X91577564Y-60274542D02*
X91561777Y-60394460D01*
X91561777Y-60394460D02*
X91478137Y-60566443D01*
X91478137Y-60566443D02*
X90663906Y-61191223D01*
X90663906Y-61191223D02*
X91443371Y-61293842D01*
X174211204Y-74680359D02*
X174401965Y-74666802D01*
X174401965Y-74666802D02*
X174681329Y-74551086D01*
X174681329Y-74551086D02*
X174769931Y-74448927D01*
X174769931Y-74448927D02*
X174802660Y-74369911D01*
X174802660Y-74369911D02*
X174812247Y-74235022D01*
X174812247Y-74235022D02*
X174765960Y-74123277D01*
X174765960Y-74123277D02*
X174663801Y-74034675D01*
X174663801Y-74034675D02*
X174584785Y-74001945D01*
X174584785Y-74001945D02*
X174449896Y-73992359D01*
X174449896Y-73992359D02*
X174203262Y-74029059D01*
X174203262Y-74029059D02*
X174068374Y-74019473D01*
X174068374Y-74019473D02*
X173989358Y-73986744D01*
X173989358Y-73986744D02*
X173887198Y-73898141D01*
X173887198Y-73898141D02*
X173840912Y-73786396D01*
X173840912Y-73786396D02*
X173850498Y-73651507D01*
X173850498Y-73651507D02*
X173883228Y-73572491D01*
X173883228Y-73572491D02*
X173971830Y-73470332D01*
X173971830Y-73470332D02*
X174251193Y-73354616D01*
X174251193Y-73354616D02*
X174441955Y-73341059D01*
X174809921Y-73123184D02*
X175592139Y-72799178D01*
X175592139Y-72799178D02*
X175575292Y-74180794D01*
X102466007Y-82121909D02*
X102625601Y-82227281D01*
X102625601Y-82227281D02*
X102917678Y-82305543D01*
X102917678Y-82305543D02*
X103050162Y-82278432D01*
X103050162Y-82278432D02*
X103124230Y-82235669D01*
X103124230Y-82235669D02*
X103213950Y-82134491D01*
X103213950Y-82134491D02*
X103245255Y-82017660D01*
X103245255Y-82017660D02*
X103218144Y-81885176D01*
X103218144Y-81885176D02*
X103175381Y-81811108D01*
X103175381Y-81811108D02*
X103074202Y-81721388D01*
X103074202Y-81721388D02*
X102856193Y-81600363D01*
X102856193Y-81600363D02*
X102755014Y-81510643D01*
X102755014Y-81510643D02*
X102712251Y-81436575D01*
X102712251Y-81436575D02*
X102685140Y-81304091D01*
X102685140Y-81304091D02*
X102716445Y-81187260D01*
X102716445Y-81187260D02*
X102806165Y-81086082D01*
X102806165Y-81086082D02*
X102880233Y-81043319D01*
X102880233Y-81043319D02*
X103012717Y-81016208D01*
X103012717Y-81016208D02*
X103304794Y-81094470D01*
X103304794Y-81094470D02*
X103464388Y-81199842D01*
X103916060Y-81383477D02*
X103990128Y-81340714D01*
X103990128Y-81340714D02*
X104122612Y-81313603D01*
X104122612Y-81313603D02*
X104414689Y-81391865D01*
X104414689Y-81391865D02*
X104515868Y-81481586D01*
X104515868Y-81481586D02*
X104558631Y-81555653D01*
X104558631Y-81555653D02*
X104585742Y-81688137D01*
X104585742Y-81688137D02*
X104554437Y-81804968D01*
X104554437Y-81804968D02*
X104449064Y-81964562D01*
X104449064Y-81964562D02*
X103560249Y-82477720D01*
X103560249Y-82477720D02*
X104319651Y-82681201D01*
X105057260Y-81564042D02*
X105816662Y-81767523D01*
X105816662Y-81767523D02*
X105282534Y-82125280D01*
X105282534Y-82125280D02*
X105457780Y-82172237D01*
X105457780Y-82172237D02*
X105558959Y-82261957D01*
X105558959Y-82261957D02*
X105601722Y-82336025D01*
X105601722Y-82336025D02*
X105628833Y-82468509D01*
X105628833Y-82468509D02*
X105550571Y-82760586D01*
X105550571Y-82760586D02*
X105460851Y-82861765D01*
X105460851Y-82861765D02*
X105386783Y-82904528D01*
X105386783Y-82904528D02*
X105254299Y-82931639D01*
X105254299Y-82931639D02*
X104903806Y-82837725D01*
X104903806Y-82837725D02*
X104802628Y-82748004D01*
X104802628Y-82748004D02*
X104759865Y-82673936D01*
X226708255Y-67383929D02*
X226889684Y-67444405D01*
X226889684Y-67444405D02*
X227192065Y-67444405D01*
X227192065Y-67444405D02*
X227313017Y-67383929D01*
X227313017Y-67383929D02*
X227373493Y-67323452D01*
X227373493Y-67323452D02*
X227433970Y-67202500D01*
X227433970Y-67202500D02*
X227433970Y-67081548D01*
X227433970Y-67081548D02*
X227373493Y-66960595D01*
X227373493Y-66960595D02*
X227313017Y-66900119D01*
X227313017Y-66900119D02*
X227192065Y-66839643D01*
X227192065Y-66839643D02*
X226950160Y-66779167D01*
X226950160Y-66779167D02*
X226829208Y-66718690D01*
X226829208Y-66718690D02*
X226768731Y-66658214D01*
X226768731Y-66658214D02*
X226708255Y-66537262D01*
X226708255Y-66537262D02*
X226708255Y-66416309D01*
X226708255Y-66416309D02*
X226768731Y-66295357D01*
X226768731Y-66295357D02*
X226829208Y-66234881D01*
X226829208Y-66234881D02*
X226950160Y-66174405D01*
X226950160Y-66174405D02*
X227252541Y-66174405D01*
X227252541Y-66174405D02*
X227433970Y-66234881D01*
X228643494Y-67444405D02*
X227917779Y-67444405D01*
X228280636Y-67444405D02*
X228280636Y-66174405D01*
X228280636Y-66174405D02*
X228159684Y-66355833D01*
X228159684Y-66355833D02*
X228038732Y-66476786D01*
X228038732Y-66476786D02*
X227917779Y-66537262D01*
X229429684Y-66174405D02*
X229550637Y-66174405D01*
X229550637Y-66174405D02*
X229671589Y-66234881D01*
X229671589Y-66234881D02*
X229732065Y-66295357D01*
X229732065Y-66295357D02*
X229792541Y-66416309D01*
X229792541Y-66416309D02*
X229853018Y-66658214D01*
X229853018Y-66658214D02*
X229853018Y-66960595D01*
X229853018Y-66960595D02*
X229792541Y-67202500D01*
X229792541Y-67202500D02*
X229732065Y-67323452D01*
X229732065Y-67323452D02*
X229671589Y-67383929D01*
X229671589Y-67383929D02*
X229550637Y-67444405D01*
X229550637Y-67444405D02*
X229429684Y-67444405D01*
X229429684Y-67444405D02*
X229308732Y-67383929D01*
X229308732Y-67383929D02*
X229248256Y-67323452D01*
X229248256Y-67323452D02*
X229187779Y-67202500D01*
X229187779Y-67202500D02*
X229127303Y-66960595D01*
X229127303Y-66960595D02*
X229127303Y-66658214D01*
X229127303Y-66658214D02*
X229187779Y-66416309D01*
X229187779Y-66416309D02*
X229248256Y-66295357D01*
X229248256Y-66295357D02*
X229308732Y-66234881D01*
X229308732Y-66234881D02*
X229429684Y-66174405D01*
X169249284Y-102171871D02*
X169440046Y-102158314D01*
X169440046Y-102158314D02*
X169719409Y-102042598D01*
X169719409Y-102042598D02*
X169808012Y-101940438D01*
X169808012Y-101940438D02*
X169840741Y-101861423D01*
X169840741Y-101861423D02*
X169850327Y-101726534D01*
X169850327Y-101726534D02*
X169804041Y-101614788D01*
X169804041Y-101614788D02*
X169701882Y-101526186D01*
X169701882Y-101526186D02*
X169622866Y-101493457D01*
X169622866Y-101493457D02*
X169487977Y-101483871D01*
X169487977Y-101483871D02*
X169241343Y-101520571D01*
X169241343Y-101520571D02*
X169106454Y-101510985D01*
X169106454Y-101510985D02*
X169027438Y-101478255D01*
X169027438Y-101478255D02*
X168925279Y-101389653D01*
X168925279Y-101389653D02*
X168878993Y-101277907D01*
X168878993Y-101277907D02*
X168888579Y-101143019D01*
X168888579Y-101143019D02*
X168921308Y-101064003D01*
X168921308Y-101064003D02*
X169009911Y-100961844D01*
X169009911Y-100961844D02*
X169289274Y-100846127D01*
X169289274Y-100846127D02*
X169480036Y-100832570D01*
X169950161Y-100703297D02*
X169982890Y-100624281D01*
X169982890Y-100624281D02*
X170071492Y-100522122D01*
X170071492Y-100522122D02*
X170350856Y-100406406D01*
X170350856Y-100406406D02*
X170485745Y-100415992D01*
X170485745Y-100415992D02*
X170564761Y-100448722D01*
X170564761Y-100448722D02*
X170666920Y-100537324D01*
X170666920Y-100537324D02*
X170713206Y-100649069D01*
X170713206Y-100649069D02*
X170726763Y-100839831D01*
X170726763Y-100839831D02*
X170334009Y-101788022D01*
X170334009Y-101788022D02*
X171060355Y-101487160D01*
X171580056Y-99897255D02*
X171356565Y-99989828D01*
X171356565Y-99989828D02*
X171267963Y-100091987D01*
X171267963Y-100091987D02*
X171235233Y-100171003D01*
X171235233Y-100171003D02*
X171192918Y-100384907D01*
X171192918Y-100384907D02*
X171229618Y-100631541D01*
X171229618Y-100631541D02*
X171414764Y-101078523D01*
X171414764Y-101078523D02*
X171516923Y-101167125D01*
X171516923Y-101167125D02*
X171595939Y-101199855D01*
X171595939Y-101199855D02*
X171730828Y-101209441D01*
X171730828Y-101209441D02*
X171954318Y-101116868D01*
X171954318Y-101116868D02*
X172042921Y-101014709D01*
X172042921Y-101014709D02*
X172075650Y-100935693D01*
X172075650Y-100935693D02*
X172085236Y-100800804D01*
X172085236Y-100800804D02*
X171969520Y-100521441D01*
X171969520Y-100521441D02*
X171867361Y-100432839D01*
X171867361Y-100432839D02*
X171788345Y-100400109D01*
X171788345Y-100400109D02*
X171653456Y-100390523D01*
X171653456Y-100390523D02*
X171429965Y-100483096D01*
X171429965Y-100483096D02*
X171341363Y-100585255D01*
X171341363Y-100585255D02*
X171308634Y-100664271D01*
X171308634Y-100664271D02*
X171299048Y-100799160D01*
X132560216Y-88957988D02*
X132704691Y-89083291D01*
X132704691Y-89083291D02*
X132984054Y-89199007D01*
X132984054Y-89199007D02*
X133118943Y-89189421D01*
X133118943Y-89189421D02*
X133197959Y-89156691D01*
X133197959Y-89156691D02*
X133300118Y-89068089D01*
X133300118Y-89068089D02*
X133346405Y-88956344D01*
X133346405Y-88956344D02*
X133336818Y-88821455D01*
X133336818Y-88821455D02*
X133304089Y-88742439D01*
X133304089Y-88742439D02*
X133215487Y-88640280D01*
X133215487Y-88640280D02*
X133015139Y-88491834D01*
X133015139Y-88491834D02*
X132926537Y-88389675D01*
X132926537Y-88389675D02*
X132893807Y-88310659D01*
X132893807Y-88310659D02*
X132884221Y-88175770D01*
X132884221Y-88175770D02*
X132930508Y-88064025D01*
X132930508Y-88064025D02*
X133032667Y-87975423D01*
X133032667Y-87975423D02*
X133111683Y-87942693D01*
X133111683Y-87942693D02*
X133246571Y-87933107D01*
X133246571Y-87933107D02*
X133525935Y-88048823D01*
X133525935Y-88048823D02*
X133670410Y-88174126D01*
X134325000Y-89754445D02*
X133654527Y-89476726D01*
X133989763Y-89615585D02*
X134475771Y-88442258D01*
X134475771Y-88442258D02*
X134294596Y-88563590D01*
X134294596Y-88563590D02*
X134136564Y-88629049D01*
X134136564Y-88629049D02*
X134001676Y-88638635D01*
X135872589Y-89020839D02*
X135313862Y-88789407D01*
X135313862Y-88789407D02*
X135026557Y-89324991D01*
X135026557Y-89324991D02*
X135105573Y-89292261D01*
X135105573Y-89292261D02*
X135240462Y-89282675D01*
X135240462Y-89282675D02*
X135519825Y-89398391D01*
X135519825Y-89398391D02*
X135608428Y-89500550D01*
X135608428Y-89500550D02*
X135641157Y-89579566D01*
X135641157Y-89579566D02*
X135650743Y-89714455D01*
X135650743Y-89714455D02*
X135535027Y-89993819D01*
X135535027Y-89993819D02*
X135432868Y-90082421D01*
X135432868Y-90082421D02*
X135353852Y-90115150D01*
X135353852Y-90115150D02*
X135218963Y-90124737D01*
X135218963Y-90124737D02*
X134939600Y-90009020D01*
X134939600Y-90009020D02*
X134850997Y-89906861D01*
X134850997Y-89906861D02*
X134818268Y-89827845D01*
X188091242Y-57665239D02*
X188282141Y-57676697D01*
X188282141Y-57676697D02*
X188574219Y-57598435D01*
X188574219Y-57598435D02*
X188675397Y-57508715D01*
X188675397Y-57508715D02*
X188718160Y-57434647D01*
X188718160Y-57434647D02*
X188745271Y-57302164D01*
X188745271Y-57302164D02*
X188713966Y-57185333D01*
X188713966Y-57185333D02*
X188624246Y-57084154D01*
X188624246Y-57084154D02*
X188550178Y-57041391D01*
X188550178Y-57041391D02*
X188417695Y-57014280D01*
X188417695Y-57014280D02*
X188168380Y-57018474D01*
X188168380Y-57018474D02*
X188035897Y-56991364D01*
X188035897Y-56991364D02*
X187961829Y-56948600D01*
X187961829Y-56948600D02*
X187872109Y-56847422D01*
X187872109Y-56847422D02*
X187840804Y-56730591D01*
X187840804Y-56730591D02*
X187867915Y-56598107D01*
X187867915Y-56598107D02*
X187910678Y-56524039D01*
X187910678Y-56524039D02*
X188011856Y-56434319D01*
X188011856Y-56434319D02*
X188303934Y-56356057D01*
X188303934Y-56356057D02*
X188494833Y-56367516D01*
X189321038Y-56647011D02*
X189188555Y-56619900D01*
X189188555Y-56619900D02*
X189114487Y-56577137D01*
X189114487Y-56577137D02*
X189024767Y-56475958D01*
X189024767Y-56475958D02*
X189009114Y-56417543D01*
X189009114Y-56417543D02*
X189036225Y-56285060D01*
X189036225Y-56285060D02*
X189078988Y-56210992D01*
X189078988Y-56210992D02*
X189180167Y-56121271D01*
X189180167Y-56121271D02*
X189413829Y-56058662D01*
X189413829Y-56058662D02*
X189546312Y-56085773D01*
X189546312Y-56085773D02*
X189620380Y-56128536D01*
X189620380Y-56128536D02*
X189710101Y-56229714D01*
X189710101Y-56229714D02*
X189725753Y-56288130D01*
X189725753Y-56288130D02*
X189698642Y-56420613D01*
X189698642Y-56420613D02*
X189655879Y-56494681D01*
X189655879Y-56494681D02*
X189554700Y-56584401D01*
X189554700Y-56584401D02*
X189321038Y-56647011D01*
X189321038Y-56647011D02*
X189219860Y-56736731D01*
X189219860Y-56736731D02*
X189177097Y-56810799D01*
X189177097Y-56810799D02*
X189149986Y-56943283D01*
X189149986Y-56943283D02*
X189212595Y-57176945D01*
X189212595Y-57176945D02*
X189302316Y-57278123D01*
X189302316Y-57278123D02*
X189376384Y-57320886D01*
X189376384Y-57320886D02*
X189508867Y-57347997D01*
X189508867Y-57347997D02*
X189742529Y-57285388D01*
X189742529Y-57285388D02*
X189843708Y-57195667D01*
X189843708Y-57195667D02*
X189886471Y-57121599D01*
X189886471Y-57121599D02*
X189913582Y-56989116D01*
X189913582Y-56989116D02*
X189850972Y-56755454D01*
X189850972Y-56755454D02*
X189761252Y-56654275D01*
X189761252Y-56654275D02*
X189687184Y-56611512D01*
X189687184Y-56611512D02*
X189554700Y-56584401D01*
X85539313Y-86679914D02*
X85711296Y-86763554D01*
X85711296Y-86763554D02*
X86011090Y-86803022D01*
X86011090Y-86803022D02*
X86138901Y-86758851D01*
X86138901Y-86758851D02*
X86206754Y-86706786D01*
X86206754Y-86706786D02*
X86282500Y-86594762D01*
X86282500Y-86594762D02*
X86298288Y-86474844D01*
X86298288Y-86474844D02*
X86254116Y-86347033D01*
X86254116Y-86347033D02*
X86202051Y-86279180D01*
X86202051Y-86279180D02*
X86090027Y-86203434D01*
X86090027Y-86203434D02*
X85858086Y-86111900D01*
X85858086Y-86111900D02*
X85746062Y-86036154D01*
X85746062Y-86036154D02*
X85693997Y-85968302D01*
X85693997Y-85968302D02*
X85649826Y-85840490D01*
X85649826Y-85840490D02*
X85665613Y-85720573D01*
X85665613Y-85720573D02*
X85741359Y-85608549D01*
X85741359Y-85608549D02*
X85809212Y-85556484D01*
X85809212Y-85556484D02*
X85937023Y-85512312D01*
X85937023Y-85512312D02*
X86236817Y-85551781D01*
X86236817Y-85551781D02*
X86408800Y-85635421D01*
X86880577Y-85758530D02*
X86948429Y-85706465D01*
X86948429Y-85706465D02*
X87076241Y-85662293D01*
X87076241Y-85662293D02*
X87376035Y-85701762D01*
X87376035Y-85701762D02*
X87488059Y-85777508D01*
X87488059Y-85777508D02*
X87540124Y-85845361D01*
X87540124Y-85845361D02*
X87584295Y-85973172D01*
X87584295Y-85973172D02*
X87568508Y-86093090D01*
X87568508Y-86093090D02*
X87484868Y-86265072D01*
X87484868Y-86265072D02*
X86670637Y-86889853D01*
X86670637Y-86889853D02*
X87450102Y-86992472D01*
X88079753Y-85916404D02*
X88147606Y-85864339D01*
X88147606Y-85864339D02*
X88275417Y-85820168D01*
X88275417Y-85820168D02*
X88575211Y-85859636D01*
X88575211Y-85859636D02*
X88687235Y-85935383D01*
X88687235Y-85935383D02*
X88739300Y-86003235D01*
X88739300Y-86003235D02*
X88783471Y-86131046D01*
X88783471Y-86131046D02*
X88767684Y-86250964D01*
X88767684Y-86250964D02*
X88684044Y-86422947D01*
X88684044Y-86422947D02*
X87869814Y-87047728D01*
X87869814Y-87047728D02*
X88649278Y-87150346D01*
X226708255Y-80383929D02*
X226889684Y-80444405D01*
X226889684Y-80444405D02*
X227192065Y-80444405D01*
X227192065Y-80444405D02*
X227313017Y-80383929D01*
X227313017Y-80383929D02*
X227373493Y-80323452D01*
X227373493Y-80323452D02*
X227433970Y-80202500D01*
X227433970Y-80202500D02*
X227433970Y-80081548D01*
X227433970Y-80081548D02*
X227373493Y-79960595D01*
X227373493Y-79960595D02*
X227313017Y-79900119D01*
X227313017Y-79900119D02*
X227192065Y-79839643D01*
X227192065Y-79839643D02*
X226950160Y-79779167D01*
X226950160Y-79779167D02*
X226829208Y-79718690D01*
X226829208Y-79718690D02*
X226768731Y-79658214D01*
X226768731Y-79658214D02*
X226708255Y-79537262D01*
X226708255Y-79537262D02*
X226708255Y-79416309D01*
X226708255Y-79416309D02*
X226768731Y-79295357D01*
X226768731Y-79295357D02*
X226829208Y-79234881D01*
X226829208Y-79234881D02*
X226950160Y-79174405D01*
X226950160Y-79174405D02*
X227252541Y-79174405D01*
X227252541Y-79174405D02*
X227433970Y-79234881D01*
X227917779Y-79295357D02*
X227978255Y-79234881D01*
X227978255Y-79234881D02*
X228099208Y-79174405D01*
X228099208Y-79174405D02*
X228401589Y-79174405D01*
X228401589Y-79174405D02*
X228522541Y-79234881D01*
X228522541Y-79234881D02*
X228583017Y-79295357D01*
X228583017Y-79295357D02*
X228643494Y-79416309D01*
X228643494Y-79416309D02*
X228643494Y-79537262D01*
X228643494Y-79537262D02*
X228583017Y-79718690D01*
X228583017Y-79718690D02*
X227857303Y-80444405D01*
X227857303Y-80444405D02*
X228643494Y-80444405D01*
X229429684Y-79174405D02*
X229550637Y-79174405D01*
X229550637Y-79174405D02*
X229671589Y-79234881D01*
X229671589Y-79234881D02*
X229732065Y-79295357D01*
X229732065Y-79295357D02*
X229792541Y-79416309D01*
X229792541Y-79416309D02*
X229853018Y-79658214D01*
X229853018Y-79658214D02*
X229853018Y-79960595D01*
X229853018Y-79960595D02*
X229792541Y-80202500D01*
X229792541Y-80202500D02*
X229732065Y-80323452D01*
X229732065Y-80323452D02*
X229671589Y-80383929D01*
X229671589Y-80383929D02*
X229550637Y-80444405D01*
X229550637Y-80444405D02*
X229429684Y-80444405D01*
X229429684Y-80444405D02*
X229308732Y-80383929D01*
X229308732Y-80383929D02*
X229248256Y-80323452D01*
X229248256Y-80323452D02*
X229187779Y-80202500D01*
X229187779Y-80202500D02*
X229127303Y-79960595D01*
X229127303Y-79960595D02*
X229127303Y-79658214D01*
X229127303Y-79658214D02*
X229187779Y-79416309D01*
X229187779Y-79416309D02*
X229248256Y-79295357D01*
X229248256Y-79295357D02*
X229308732Y-79234881D01*
X229308732Y-79234881D02*
X229429684Y-79174405D01*
X208288732Y-61233883D02*
X208476502Y-61270161D01*
X208476502Y-61270161D02*
X208776296Y-61230692D01*
X208776296Y-61230692D02*
X208888320Y-61154946D01*
X208888320Y-61154946D02*
X208940385Y-61087093D01*
X208940385Y-61087093D02*
X208984557Y-60959282D01*
X208984557Y-60959282D02*
X208968769Y-60839364D01*
X208968769Y-60839364D02*
X208893023Y-60727341D01*
X208893023Y-60727341D02*
X208825170Y-60675275D01*
X208825170Y-60675275D02*
X208697359Y-60631104D01*
X208697359Y-60631104D02*
X208449630Y-60602720D01*
X208449630Y-60602720D02*
X208321819Y-60558549D01*
X208321819Y-60558549D02*
X208253966Y-60506484D01*
X208253966Y-60506484D02*
X208178220Y-60394460D01*
X208178220Y-60394460D02*
X208162433Y-60274542D01*
X208162433Y-60274542D02*
X208206604Y-60146731D01*
X208206604Y-60146731D02*
X208258669Y-60078878D01*
X208258669Y-60078878D02*
X208370693Y-60003132D01*
X208370693Y-60003132D02*
X208670487Y-59963663D01*
X208670487Y-59963663D02*
X208858257Y-59999941D01*
X209615720Y-61120180D02*
X209855555Y-61088605D01*
X209855555Y-61088605D02*
X209967579Y-61012859D01*
X209967579Y-61012859D02*
X210019644Y-60945006D01*
X210019644Y-60945006D02*
X210115881Y-60749342D01*
X210115881Y-60749342D02*
X210144264Y-60501613D01*
X210144264Y-60501613D02*
X210081115Y-60021943D01*
X210081115Y-60021943D02*
X210005368Y-59909919D01*
X210005368Y-59909919D02*
X209937516Y-59857854D01*
X209937516Y-59857854D02*
X209809705Y-59813683D01*
X209809705Y-59813683D02*
X209569869Y-59845258D01*
X209569869Y-59845258D02*
X209457845Y-59921004D01*
X209457845Y-59921004D02*
X209405780Y-59988856D01*
X209405780Y-59988856D02*
X209361609Y-60116668D01*
X209361609Y-60116668D02*
X209401078Y-60416462D01*
X209401078Y-60416462D02*
X209476824Y-60528486D01*
X209476824Y-60528486D02*
X209544676Y-60580551D01*
X209544676Y-60580551D02*
X209672488Y-60624722D01*
X209672488Y-60624722D02*
X209912323Y-60593147D01*
X209912323Y-60593147D02*
X210024347Y-60517401D01*
X210024347Y-60517401D02*
X210076412Y-60449548D01*
X210076412Y-60449548D02*
X210120583Y-60321737D01*
X70491740Y-67383931D02*
X70673169Y-67444407D01*
X70673169Y-67444407D02*
X70975550Y-67444407D01*
X70975550Y-67444407D02*
X71096502Y-67383931D01*
X71096502Y-67383931D02*
X71156978Y-67323454D01*
X71156978Y-67323454D02*
X71217455Y-67202502D01*
X71217455Y-67202502D02*
X71217455Y-67081550D01*
X71217455Y-67081550D02*
X71156978Y-66960597D01*
X71156978Y-66960597D02*
X71096502Y-66900121D01*
X71096502Y-66900121D02*
X70975550Y-66839645D01*
X70975550Y-66839645D02*
X70733645Y-66779169D01*
X70733645Y-66779169D02*
X70612693Y-66718692D01*
X70612693Y-66718692D02*
X70552216Y-66658216D01*
X70552216Y-66658216D02*
X70491740Y-66537264D01*
X70491740Y-66537264D02*
X70491740Y-66416311D01*
X70491740Y-66416311D02*
X70552216Y-66295359D01*
X70552216Y-66295359D02*
X70612693Y-66234883D01*
X70612693Y-66234883D02*
X70733645Y-66174407D01*
X70733645Y-66174407D02*
X71036026Y-66174407D01*
X71036026Y-66174407D02*
X71217455Y-66234883D01*
X72426979Y-67444407D02*
X71701264Y-67444407D01*
X72064121Y-67444407D02*
X72064121Y-66174407D01*
X72064121Y-66174407D02*
X71943169Y-66355835D01*
X71943169Y-66355835D02*
X71822217Y-66476788D01*
X71822217Y-66476788D02*
X71701264Y-66537264D01*
X69886980Y-93383929D02*
X70068409Y-93444405D01*
X70068409Y-93444405D02*
X70370790Y-93444405D01*
X70370790Y-93444405D02*
X70491742Y-93383929D01*
X70491742Y-93383929D02*
X70552218Y-93323452D01*
X70552218Y-93323452D02*
X70612695Y-93202500D01*
X70612695Y-93202500D02*
X70612695Y-93081548D01*
X70612695Y-93081548D02*
X70552218Y-92960595D01*
X70552218Y-92960595D02*
X70491742Y-92900119D01*
X70491742Y-92900119D02*
X70370790Y-92839643D01*
X70370790Y-92839643D02*
X70128885Y-92779167D01*
X70128885Y-92779167D02*
X70007933Y-92718690D01*
X70007933Y-92718690D02*
X69947456Y-92658214D01*
X69947456Y-92658214D02*
X69886980Y-92537262D01*
X69886980Y-92537262D02*
X69886980Y-92416309D01*
X69886980Y-92416309D02*
X69947456Y-92295357D01*
X69947456Y-92295357D02*
X70007933Y-92234881D01*
X70007933Y-92234881D02*
X70128885Y-92174405D01*
X70128885Y-92174405D02*
X70431266Y-92174405D01*
X70431266Y-92174405D02*
X70612695Y-92234881D01*
X71096504Y-92295357D02*
X71156980Y-92234881D01*
X71156980Y-92234881D02*
X71277933Y-92174405D01*
X71277933Y-92174405D02*
X71580314Y-92174405D01*
X71580314Y-92174405D02*
X71701266Y-92234881D01*
X71701266Y-92234881D02*
X71761742Y-92295357D01*
X71761742Y-92295357D02*
X71822219Y-92416309D01*
X71822219Y-92416309D02*
X71822219Y-92537262D01*
X71822219Y-92537262D02*
X71761742Y-92718690D01*
X71761742Y-92718690D02*
X71036028Y-93444405D01*
X71036028Y-93444405D02*
X71822219Y-93444405D01*
X73031743Y-93444405D02*
X72306028Y-93444405D01*
X72668885Y-93444405D02*
X72668885Y-92174405D01*
X72668885Y-92174405D02*
X72547933Y-92355833D01*
X72547933Y-92355833D02*
X72426981Y-92476786D01*
X72426981Y-92476786D02*
X72306028Y-92537262D01*
X127585331Y-100968422D02*
X127729806Y-101093725D01*
X127729806Y-101093725D02*
X128009169Y-101209441D01*
X128009169Y-101209441D02*
X128144058Y-101199855D01*
X128144058Y-101199855D02*
X128223074Y-101167125D01*
X128223074Y-101167125D02*
X128325233Y-101078523D01*
X128325233Y-101078523D02*
X128371520Y-100966778D01*
X128371520Y-100966778D02*
X128361933Y-100831889D01*
X128361933Y-100831889D02*
X128329204Y-100752873D01*
X128329204Y-100752873D02*
X128240602Y-100650714D01*
X128240602Y-100650714D02*
X128040254Y-100502268D01*
X128040254Y-100502268D02*
X127951652Y-100400109D01*
X127951652Y-100400109D02*
X127918922Y-100321093D01*
X127918922Y-100321093D02*
X127909336Y-100186204D01*
X127909336Y-100186204D02*
X127955623Y-100074459D01*
X127955623Y-100074459D02*
X128057782Y-99985857D01*
X128057782Y-99985857D02*
X128136798Y-99953127D01*
X128136798Y-99953127D02*
X128271686Y-99943541D01*
X128271686Y-99943541D02*
X128551050Y-100059257D01*
X128551050Y-100059257D02*
X128695525Y-100184560D01*
X129119364Y-100425578D02*
X129198380Y-100392849D01*
X129198380Y-100392849D02*
X129333268Y-100383263D01*
X129333268Y-100383263D02*
X129612632Y-100498979D01*
X129612632Y-100498979D02*
X129701234Y-100601138D01*
X129701234Y-100601138D02*
X129733963Y-100680154D01*
X129733963Y-100680154D02*
X129743550Y-100815043D01*
X129743550Y-100815043D02*
X129697263Y-100926788D01*
X129697263Y-100926788D02*
X129571961Y-101071263D01*
X129571961Y-101071263D02*
X128623769Y-101464017D01*
X128623769Y-101464017D02*
X129350115Y-101764879D01*
X130897704Y-101031273D02*
X130338977Y-100799841D01*
X130338977Y-100799841D02*
X130051672Y-101335425D01*
X130051672Y-101335425D02*
X130130688Y-101302695D01*
X130130688Y-101302695D02*
X130265577Y-101293109D01*
X130265577Y-101293109D02*
X130544940Y-101408825D01*
X130544940Y-101408825D02*
X130633543Y-101510984D01*
X130633543Y-101510984D02*
X130666272Y-101590000D01*
X130666272Y-101590000D02*
X130675858Y-101724889D01*
X130675858Y-101724889D02*
X130560142Y-102004253D01*
X130560142Y-102004253D02*
X130457983Y-102092855D01*
X130457983Y-102092855D02*
X130378967Y-102125584D01*
X130378967Y-102125584D02*
X130244078Y-102135171D01*
X130244078Y-102135171D02*
X129964715Y-102019454D01*
X129964715Y-102019454D02*
X129876112Y-101917295D01*
X129876112Y-101917295D02*
X129843383Y-101838279D01*
X106726751Y-113435163D02*
X106871226Y-113560466D01*
X106871226Y-113560466D02*
X107150589Y-113676182D01*
X107150589Y-113676182D02*
X107285478Y-113666596D01*
X107285478Y-113666596D02*
X107364494Y-113633866D01*
X107364494Y-113633866D02*
X107466653Y-113545264D01*
X107466653Y-113545264D02*
X107512940Y-113433519D01*
X107512940Y-113433519D02*
X107503353Y-113298630D01*
X107503353Y-113298630D02*
X107470624Y-113219614D01*
X107470624Y-113219614D02*
X107382022Y-113117455D01*
X107382022Y-113117455D02*
X107181674Y-112969009D01*
X107181674Y-112969009D02*
X107093072Y-112866850D01*
X107093072Y-112866850D02*
X107060342Y-112787834D01*
X107060342Y-112787834D02*
X107050756Y-112652945D01*
X107050756Y-112652945D02*
X107097043Y-112541200D01*
X107097043Y-112541200D02*
X107199202Y-112452598D01*
X107199202Y-112452598D02*
X107278218Y-112419868D01*
X107278218Y-112419868D02*
X107413106Y-112410282D01*
X107413106Y-112410282D02*
X107692470Y-112525998D01*
X107692470Y-112525998D02*
X107836945Y-112651301D01*
X108251197Y-112757431D02*
X108977543Y-113058293D01*
X108977543Y-113058293D02*
X108401288Y-113343272D01*
X108401288Y-113343272D02*
X108568906Y-113412701D01*
X108568906Y-113412701D02*
X108657508Y-113514861D01*
X108657508Y-113514861D02*
X108690238Y-113593877D01*
X108690238Y-113593877D02*
X108699824Y-113728765D01*
X108699824Y-113728765D02*
X108584108Y-114008129D01*
X108584108Y-114008129D02*
X108481948Y-114096731D01*
X108481948Y-114096731D02*
X108402932Y-114129461D01*
X108402932Y-114129461D02*
X108268044Y-114139047D01*
X108268044Y-114139047D02*
X107932807Y-114000187D01*
X107932807Y-114000187D02*
X107844205Y-113898028D01*
X107844205Y-113898028D02*
X107811476Y-113819012D01*
X109608989Y-114694484D02*
X108938517Y-114416766D01*
X109273753Y-114555625D02*
X109759761Y-113382298D01*
X109759761Y-113382298D02*
X109578586Y-113503630D01*
X109578586Y-113503630D02*
X109420554Y-113569089D01*
X109420554Y-113569089D02*
X109285665Y-113578675D01*
X190871735Y-70378798D02*
X191062634Y-70390256D01*
X191062634Y-70390256D02*
X191354711Y-70311994D01*
X191354711Y-70311994D02*
X191455890Y-70222274D01*
X191455890Y-70222274D02*
X191498653Y-70148206D01*
X191498653Y-70148206D02*
X191525764Y-70015723D01*
X191525764Y-70015723D02*
X191494459Y-69898892D01*
X191494459Y-69898892D02*
X191404739Y-69797713D01*
X191404739Y-69797713D02*
X191330671Y-69754950D01*
X191330671Y-69754950D02*
X191198188Y-69727839D01*
X191198188Y-69727839D02*
X190948873Y-69732033D01*
X190948873Y-69732033D02*
X190816390Y-69704923D01*
X190816390Y-69704923D02*
X190742322Y-69662159D01*
X190742322Y-69662159D02*
X190652601Y-69560981D01*
X190652601Y-69560981D02*
X190621297Y-69444150D01*
X190621297Y-69444150D02*
X190648407Y-69311666D01*
X190648407Y-69311666D02*
X190691171Y-69237598D01*
X190691171Y-69237598D02*
X190792349Y-69147878D01*
X190792349Y-69147878D02*
X191084427Y-69069616D01*
X191084427Y-69069616D02*
X191275326Y-69081075D01*
X192756684Y-69936337D02*
X192055698Y-70124166D01*
X192406191Y-70030251D02*
X192077491Y-68803525D01*
X192077491Y-68803525D02*
X192007617Y-69010077D01*
X192007617Y-69010077D02*
X191922091Y-69158213D01*
X191922091Y-69158213D02*
X191820912Y-69247933D01*
X193269842Y-69047522D02*
X193137358Y-69020411D01*
X193137358Y-69020411D02*
X193063290Y-68977648D01*
X193063290Y-68977648D02*
X192973570Y-68876470D01*
X192973570Y-68876470D02*
X192957918Y-68818054D01*
X192957918Y-68818054D02*
X192985028Y-68685571D01*
X192985028Y-68685571D02*
X193027792Y-68611503D01*
X193027792Y-68611503D02*
X193128970Y-68521782D01*
X193128970Y-68521782D02*
X193362632Y-68459173D01*
X193362632Y-68459173D02*
X193495116Y-68486284D01*
X193495116Y-68486284D02*
X193569184Y-68529047D01*
X193569184Y-68529047D02*
X193658904Y-68630225D01*
X193658904Y-68630225D02*
X193674556Y-68688641D01*
X193674556Y-68688641D02*
X193647445Y-68821124D01*
X193647445Y-68821124D02*
X193604682Y-68895192D01*
X193604682Y-68895192D02*
X193503504Y-68984912D01*
X193503504Y-68984912D02*
X193269842Y-69047522D01*
X193269842Y-69047522D02*
X193168663Y-69137242D01*
X193168663Y-69137242D02*
X193125900Y-69211310D01*
X193125900Y-69211310D02*
X193098789Y-69343794D01*
X193098789Y-69343794D02*
X193161399Y-69577456D01*
X193161399Y-69577456D02*
X193251119Y-69678634D01*
X193251119Y-69678634D02*
X193325187Y-69721397D01*
X193325187Y-69721397D02*
X193457670Y-69748508D01*
X193457670Y-69748508D02*
X193691332Y-69685899D01*
X193691332Y-69685899D02*
X193792511Y-69596178D01*
X193792511Y-69596178D02*
X193835274Y-69522110D01*
X193835274Y-69522110D02*
X193862385Y-69389627D01*
X193862385Y-69389627D02*
X193799775Y-69155965D01*
X193799775Y-69155965D02*
X193710055Y-69054786D01*
X193710055Y-69054786D02*
X193635987Y-69012023D01*
X193635987Y-69012023D02*
X193503504Y-68984912D01*
X194236383Y-82935833D02*
X194427282Y-82947291D01*
X194427282Y-82947291D02*
X194719359Y-82869029D01*
X194719359Y-82869029D02*
X194820538Y-82779309D01*
X194820538Y-82779309D02*
X194863301Y-82705241D01*
X194863301Y-82705241D02*
X194890412Y-82572758D01*
X194890412Y-82572758D02*
X194859107Y-82455927D01*
X194859107Y-82455927D02*
X194769387Y-82354748D01*
X194769387Y-82354748D02*
X194695319Y-82311985D01*
X194695319Y-82311985D02*
X194562836Y-82284874D01*
X194562836Y-82284874D02*
X194313521Y-82289068D01*
X194313521Y-82289068D02*
X194181038Y-82261958D01*
X194181038Y-82261958D02*
X194106970Y-82219194D01*
X194106970Y-82219194D02*
X194017249Y-82118016D01*
X194017249Y-82118016D02*
X193985945Y-82001185D01*
X193985945Y-82001185D02*
X194013055Y-81868701D01*
X194013055Y-81868701D02*
X194055819Y-81794633D01*
X194055819Y-81794633D02*
X194156997Y-81704913D01*
X194156997Y-81704913D02*
X194449075Y-81626651D01*
X194449075Y-81626651D02*
X194639974Y-81638110D01*
X195122950Y-81571306D02*
X195165714Y-81497238D01*
X195165714Y-81497238D02*
X195266892Y-81407518D01*
X195266892Y-81407518D02*
X195558970Y-81329256D01*
X195558970Y-81329256D02*
X195691453Y-81356366D01*
X195691453Y-81356366D02*
X195765521Y-81399130D01*
X195765521Y-81399130D02*
X195855241Y-81500308D01*
X195855241Y-81500308D02*
X195886546Y-81617139D01*
X195886546Y-81617139D02*
X195875088Y-81808038D01*
X195875088Y-81808038D02*
X195361930Y-82696853D01*
X195361930Y-82696853D02*
X196121332Y-82493372D01*
X196634490Y-81604557D02*
X196502006Y-81577446D01*
X196502006Y-81577446D02*
X196427938Y-81534683D01*
X196427938Y-81534683D02*
X196338218Y-81433505D01*
X196338218Y-81433505D02*
X196322566Y-81375089D01*
X196322566Y-81375089D02*
X196349676Y-81242606D01*
X196349676Y-81242606D02*
X196392440Y-81168538D01*
X196392440Y-81168538D02*
X196493618Y-81078817D01*
X196493618Y-81078817D02*
X196727280Y-81016208D01*
X196727280Y-81016208D02*
X196859764Y-81043319D01*
X196859764Y-81043319D02*
X196933832Y-81086082D01*
X196933832Y-81086082D02*
X197023552Y-81187260D01*
X197023552Y-81187260D02*
X197039204Y-81245676D01*
X197039204Y-81245676D02*
X197012093Y-81378159D01*
X197012093Y-81378159D02*
X196969330Y-81452227D01*
X196969330Y-81452227D02*
X196868152Y-81541947D01*
X196868152Y-81541947D02*
X196634490Y-81604557D01*
X196634490Y-81604557D02*
X196533311Y-81694277D01*
X196533311Y-81694277D02*
X196490548Y-81768345D01*
X196490548Y-81768345D02*
X196463437Y-81900829D01*
X196463437Y-81900829D02*
X196526047Y-82134491D01*
X196526047Y-82134491D02*
X196615767Y-82235669D01*
X196615767Y-82235669D02*
X196689835Y-82278432D01*
X196689835Y-82278432D02*
X196822318Y-82305543D01*
X196822318Y-82305543D02*
X197055980Y-82242934D01*
X197055980Y-82242934D02*
X197157159Y-82153213D01*
X197157159Y-82153213D02*
X197199922Y-82079145D01*
X197199922Y-82079145D02*
X197227033Y-81946662D01*
X197227033Y-81946662D02*
X197164423Y-81713000D01*
X197164423Y-81713000D02*
X197074703Y-81611821D01*
X197074703Y-81611821D02*
X197000635Y-81569058D01*
X197000635Y-81569058D02*
X196868152Y-81541947D01*
X209385984Y-74201604D02*
X209573754Y-74237882D01*
X209573754Y-74237882D02*
X209873548Y-74198413D01*
X209873548Y-74198413D02*
X209985572Y-74122667D01*
X209985572Y-74122667D02*
X210037637Y-74054815D01*
X210037637Y-74054815D02*
X210081809Y-73927003D01*
X210081809Y-73927003D02*
X210066021Y-73807086D01*
X210066021Y-73807086D02*
X209990275Y-73695062D01*
X209990275Y-73695062D02*
X209922422Y-73642997D01*
X209922422Y-73642997D02*
X209794611Y-73598825D01*
X209794611Y-73598825D02*
X209546882Y-73570441D01*
X209546882Y-73570441D02*
X209419071Y-73526270D01*
X209419071Y-73526270D02*
X209351218Y-73474205D01*
X209351218Y-73474205D02*
X209275472Y-73362181D01*
X209275472Y-73362181D02*
X209259684Y-73242264D01*
X209259684Y-73242264D02*
X209303856Y-73114452D01*
X209303856Y-73114452D02*
X209355921Y-73046600D01*
X209355921Y-73046600D02*
X209467945Y-72970853D01*
X209467945Y-72970853D02*
X209767739Y-72931385D01*
X209767739Y-72931385D02*
X209955509Y-72967662D01*
X211312560Y-74008964D02*
X210593054Y-74103689D01*
X210952807Y-74056326D02*
X210787039Y-72797191D01*
X210787039Y-72797191D02*
X210690802Y-72992855D01*
X210690802Y-72992855D02*
X210586672Y-73128560D01*
X210586672Y-73128560D02*
X210474648Y-73204307D01*
X211912148Y-73930027D02*
X212151983Y-73898452D01*
X212151983Y-73898452D02*
X212264007Y-73822706D01*
X212264007Y-73822706D02*
X212316072Y-73754853D01*
X212316072Y-73754853D02*
X212412309Y-73559189D01*
X212412309Y-73559189D02*
X212440693Y-73311460D01*
X212440693Y-73311460D02*
X212377543Y-72831790D01*
X212377543Y-72831790D02*
X212301797Y-72719766D01*
X212301797Y-72719766D02*
X212233944Y-72667701D01*
X212233944Y-72667701D02*
X212106133Y-72623529D01*
X212106133Y-72623529D02*
X211866297Y-72655104D01*
X211866297Y-72655104D02*
X211754274Y-72730851D01*
X211754274Y-72730851D02*
X211702208Y-72798703D01*
X211702208Y-72798703D02*
X211658037Y-72926514D01*
X211658037Y-72926514D02*
X211697506Y-73226308D01*
X211697506Y-73226308D02*
X211773252Y-73338332D01*
X211773252Y-73338332D02*
X211841105Y-73390397D01*
X211841105Y-73390397D02*
X211968916Y-73434569D01*
X211968916Y-73434569D02*
X212208751Y-73402994D01*
X212208751Y-73402994D02*
X212320775Y-73327248D01*
X212320775Y-73327248D02*
X212372840Y-73259395D01*
X212372840Y-73259395D02*
X212417011Y-73131584D01*
X138093827Y-77178987D02*
X138238302Y-77304289D01*
X138238302Y-77304289D02*
X138517666Y-77420005D01*
X138517666Y-77420005D02*
X138652554Y-77410419D01*
X138652554Y-77410419D02*
X138731570Y-77377690D01*
X138731570Y-77377690D02*
X138833729Y-77289087D01*
X138833729Y-77289087D02*
X138880016Y-77177342D01*
X138880016Y-77177342D02*
X138870430Y-77042453D01*
X138870430Y-77042453D02*
X138837700Y-76963437D01*
X138837700Y-76963437D02*
X138749098Y-76861278D01*
X138749098Y-76861278D02*
X138548750Y-76712833D01*
X138548750Y-76712833D02*
X138460148Y-76610673D01*
X138460148Y-76610673D02*
X138427419Y-76531657D01*
X138427419Y-76531657D02*
X138417832Y-76396769D01*
X138417832Y-76396769D02*
X138464119Y-76285023D01*
X138464119Y-76285023D02*
X138566278Y-76196421D01*
X138566278Y-76196421D02*
X138645294Y-76163692D01*
X138645294Y-76163692D02*
X138780183Y-76154105D01*
X138780183Y-76154105D02*
X139059546Y-76269822D01*
X139059546Y-76269822D02*
X139204021Y-76395124D01*
X140288746Y-76778973D02*
X139730019Y-76547540D01*
X139730019Y-76547540D02*
X139442714Y-77083124D01*
X139442714Y-77083124D02*
X139521730Y-77050395D01*
X139521730Y-77050395D02*
X139656619Y-77040809D01*
X139656619Y-77040809D02*
X139935982Y-77156525D01*
X139935982Y-77156525D02*
X140024584Y-77258684D01*
X140024584Y-77258684D02*
X140057314Y-77337700D01*
X140057314Y-77337700D02*
X140066900Y-77472589D01*
X140066900Y-77472589D02*
X139951184Y-77751952D01*
X139951184Y-77751952D02*
X139849025Y-77840554D01*
X139849025Y-77840554D02*
X139770009Y-77873284D01*
X139770009Y-77873284D02*
X139635120Y-77882870D01*
X139635120Y-77882870D02*
X139355756Y-77767154D01*
X139355756Y-77767154D02*
X139267154Y-77664995D01*
X139267154Y-77664995D02*
X139234425Y-77585979D01*
X119166296Y-121293772D02*
X119310771Y-121419075D01*
X119310771Y-121419075D02*
X119590134Y-121534791D01*
X119590134Y-121534791D02*
X119725023Y-121525205D01*
X119725023Y-121525205D02*
X119804039Y-121492475D01*
X119804039Y-121492475D02*
X119906198Y-121403873D01*
X119906198Y-121403873D02*
X119952485Y-121292128D01*
X119952485Y-121292128D02*
X119942898Y-121157239D01*
X119942898Y-121157239D02*
X119910169Y-121078223D01*
X119910169Y-121078223D02*
X119821567Y-120976064D01*
X119821567Y-120976064D02*
X119621219Y-120827618D01*
X119621219Y-120827618D02*
X119532617Y-120725459D01*
X119532617Y-120725459D02*
X119499887Y-120646443D01*
X119499887Y-120646443D02*
X119490301Y-120511554D01*
X119490301Y-120511554D02*
X119536588Y-120399809D01*
X119536588Y-120399809D02*
X119638747Y-120311207D01*
X119638747Y-120311207D02*
X119717763Y-120278477D01*
X119717763Y-120278477D02*
X119852651Y-120268891D01*
X119852651Y-120268891D02*
X120132015Y-120384607D01*
X120132015Y-120384607D02*
X120276490Y-120509910D01*
X120690742Y-120616040D02*
X121417088Y-120916902D01*
X121417088Y-120916902D02*
X120840833Y-121201881D01*
X120840833Y-121201881D02*
X121008451Y-121271310D01*
X121008451Y-121271310D02*
X121097053Y-121373470D01*
X121097053Y-121373470D02*
X121129783Y-121452486D01*
X121129783Y-121452486D02*
X121139369Y-121587374D01*
X121139369Y-121587374D02*
X121023653Y-121866738D01*
X121023653Y-121866738D02*
X120921493Y-121955340D01*
X120921493Y-121955340D02*
X120842477Y-121988070D01*
X120842477Y-121988070D02*
X120707589Y-121997656D01*
X120707589Y-121997656D02*
X120372352Y-121858796D01*
X120372352Y-121858796D02*
X120283750Y-121756637D01*
X120283750Y-121756637D02*
X120251021Y-121677621D01*
X121817783Y-121213793D02*
X121896799Y-121181064D01*
X121896799Y-121181064D02*
X122031688Y-121171477D01*
X122031688Y-121171477D02*
X122311051Y-121287194D01*
X122311051Y-121287194D02*
X122399653Y-121389353D01*
X122399653Y-121389353D02*
X122432383Y-121468369D01*
X122432383Y-121468369D02*
X122441969Y-121603257D01*
X122441969Y-121603257D02*
X122395683Y-121715003D01*
X122395683Y-121715003D02*
X122270380Y-121859478D01*
X122270380Y-121859478D02*
X121322189Y-122252231D01*
X121322189Y-122252231D02*
X122048534Y-122553093D01*
X159858243Y-77919570D02*
X160049004Y-77906013D01*
X160049004Y-77906013D02*
X160328368Y-77790297D01*
X160328368Y-77790297D02*
X160416970Y-77688138D01*
X160416970Y-77688138D02*
X160449699Y-77609122D01*
X160449699Y-77609122D02*
X160459286Y-77474233D01*
X160459286Y-77474233D02*
X160412999Y-77362488D01*
X160412999Y-77362488D02*
X160310840Y-77273886D01*
X160310840Y-77273886D02*
X160231824Y-77241156D01*
X160231824Y-77241156D02*
X160096935Y-77231570D01*
X160096935Y-77231570D02*
X159850301Y-77268270D01*
X159850301Y-77268270D02*
X159715413Y-77258684D01*
X159715413Y-77258684D02*
X159636397Y-77225955D01*
X159636397Y-77225955D02*
X159534237Y-77137352D01*
X159534237Y-77137352D02*
X159487951Y-77025607D01*
X159487951Y-77025607D02*
X159497537Y-76890718D01*
X159497537Y-76890718D02*
X159530267Y-76811702D01*
X159530267Y-76811702D02*
X159618869Y-76709543D01*
X159618869Y-76709543D02*
X159898232Y-76593827D01*
X159898232Y-76593827D02*
X160088994Y-76580270D01*
X161071560Y-76107819D02*
X160848069Y-76200392D01*
X160848069Y-76200392D02*
X160759467Y-76302551D01*
X160759467Y-76302551D02*
X160726737Y-76381567D01*
X160726737Y-76381567D02*
X160684421Y-76595472D01*
X160684421Y-76595472D02*
X160721122Y-76842106D01*
X160721122Y-76842106D02*
X160906267Y-77289088D01*
X160906267Y-77289088D02*
X161008427Y-77377690D01*
X161008427Y-77377690D02*
X161087443Y-77410419D01*
X161087443Y-77410419D02*
X161222331Y-77420005D01*
X161222331Y-77420005D02*
X161445822Y-77327432D01*
X161445822Y-77327432D02*
X161534424Y-77225273D01*
X161534424Y-77225273D02*
X161567154Y-77146257D01*
X161567154Y-77146257D02*
X161576740Y-77011369D01*
X161576740Y-77011369D02*
X161461024Y-76732005D01*
X161461024Y-76732005D02*
X161358865Y-76643403D01*
X161358865Y-76643403D02*
X161279849Y-76610673D01*
X161279849Y-76610673D02*
X161144960Y-76601087D01*
X161144960Y-76601087D02*
X160921469Y-76693660D01*
X160921469Y-76693660D02*
X160832867Y-76795819D01*
X160832867Y-76795819D02*
X160800138Y-76874835D01*
X160800138Y-76874835D02*
X160790551Y-77009724D01*
X190107864Y-114638612D02*
X190298626Y-114625055D01*
X190298626Y-114625055D02*
X190577989Y-114509339D01*
X190577989Y-114509339D02*
X190666592Y-114407179D01*
X190666592Y-114407179D02*
X190699321Y-114328164D01*
X190699321Y-114328164D02*
X190708907Y-114193275D01*
X190708907Y-114193275D02*
X190662621Y-114081529D01*
X190662621Y-114081529D02*
X190560462Y-113992927D01*
X190560462Y-113992927D02*
X190481446Y-113960198D01*
X190481446Y-113960198D02*
X190346557Y-113950612D01*
X190346557Y-113950612D02*
X190099923Y-113987312D01*
X190099923Y-113987312D02*
X189965034Y-113977726D01*
X189965034Y-113977726D02*
X189886018Y-113944996D01*
X189886018Y-113944996D02*
X189783859Y-113856394D01*
X189783859Y-113856394D02*
X189737573Y-113744648D01*
X189737573Y-113744648D02*
X189747159Y-113609760D01*
X189747159Y-113609760D02*
X189779888Y-113530744D01*
X189779888Y-113530744D02*
X189868491Y-113428585D01*
X189868491Y-113428585D02*
X190147854Y-113312868D01*
X190147854Y-113312868D02*
X190338616Y-113299311D01*
X190706582Y-113081436D02*
X191432927Y-112780574D01*
X191432927Y-112780574D02*
X191226964Y-113389558D01*
X191226964Y-113389558D02*
X191394582Y-113320129D01*
X191394582Y-113320129D02*
X191529470Y-113329715D01*
X191529470Y-113329715D02*
X191608486Y-113362444D01*
X191608486Y-113362444D02*
X191710646Y-113451047D01*
X191710646Y-113451047D02*
X191826362Y-113730410D01*
X191826362Y-113730410D02*
X191816776Y-113865299D01*
X191816776Y-113865299D02*
X191784046Y-113944315D01*
X191784046Y-113944315D02*
X191695444Y-114046474D01*
X191695444Y-114046474D02*
X191360208Y-114185333D01*
X191360208Y-114185333D02*
X191225319Y-114175747D01*
X191225319Y-114175747D02*
X191146303Y-114143018D01*
X192600638Y-112755105D02*
X192924644Y-113537323D01*
X192136129Y-112423839D02*
X192203914Y-113377646D01*
X192203914Y-113377646D02*
X192930259Y-113076784D01*
X105830655Y-69564874D02*
X105990249Y-69670246D01*
X105990249Y-69670246D02*
X106282326Y-69748508D01*
X106282326Y-69748508D02*
X106414810Y-69721397D01*
X106414810Y-69721397D02*
X106488878Y-69678634D01*
X106488878Y-69678634D02*
X106578598Y-69577456D01*
X106578598Y-69577456D02*
X106609903Y-69460625D01*
X106609903Y-69460625D02*
X106582792Y-69328141D01*
X106582792Y-69328141D02*
X106540029Y-69254073D01*
X106540029Y-69254073D02*
X106438850Y-69164353D01*
X106438850Y-69164353D02*
X106220841Y-69043328D01*
X106220841Y-69043328D02*
X106119662Y-68953608D01*
X106119662Y-68953608D02*
X106076899Y-68879540D01*
X106076899Y-68879540D02*
X106049788Y-68747056D01*
X106049788Y-68747056D02*
X106081093Y-68630225D01*
X106081093Y-68630225D02*
X106170813Y-68529047D01*
X106170813Y-68529047D02*
X106244881Y-68486284D01*
X106244881Y-68486284D02*
X106377365Y-68459173D01*
X106377365Y-68459173D02*
X106669442Y-68537435D01*
X106669442Y-68537435D02*
X106829036Y-68642807D01*
X107684299Y-70124166D02*
X106983313Y-69936337D01*
X107333806Y-70030251D02*
X107662506Y-68803525D01*
X107662506Y-68803525D02*
X107498718Y-68947467D01*
X107498718Y-68947467D02*
X107350582Y-69032993D01*
X107350582Y-69032993D02*
X107218099Y-69060104D01*
X108421908Y-69007007D02*
X109181310Y-69210488D01*
X109181310Y-69210488D02*
X108647182Y-69568245D01*
X108647182Y-69568245D02*
X108822428Y-69615202D01*
X108822428Y-69615202D02*
X108923607Y-69704922D01*
X108923607Y-69704922D02*
X108966370Y-69778990D01*
X108966370Y-69778990D02*
X108993481Y-69911474D01*
X108993481Y-69911474D02*
X108915219Y-70203551D01*
X108915219Y-70203551D02*
X108825499Y-70304730D01*
X108825499Y-70304730D02*
X108751431Y-70347493D01*
X108751431Y-70347493D02*
X108618947Y-70374604D01*
X108618947Y-70374604D02*
X108268454Y-70280690D01*
X108268454Y-70280690D02*
X108167276Y-70190969D01*
X108167276Y-70190969D02*
X108124513Y-70116901D01*
X164274399Y-90161437D02*
X164465161Y-90147880D01*
X164465161Y-90147880D02*
X164744524Y-90032164D01*
X164744524Y-90032164D02*
X164833127Y-89930004D01*
X164833127Y-89930004D02*
X164865856Y-89850989D01*
X164865856Y-89850989D02*
X164875442Y-89716100D01*
X164875442Y-89716100D02*
X164829156Y-89604354D01*
X164829156Y-89604354D02*
X164726997Y-89515752D01*
X164726997Y-89515752D02*
X164647981Y-89483023D01*
X164647981Y-89483023D02*
X164513092Y-89473437D01*
X164513092Y-89473437D02*
X164266458Y-89510137D01*
X164266458Y-89510137D02*
X164131569Y-89500551D01*
X164131569Y-89500551D02*
X164052553Y-89467821D01*
X164052553Y-89467821D02*
X163950394Y-89379219D01*
X163950394Y-89379219D02*
X163904108Y-89267473D01*
X163904108Y-89267473D02*
X163913694Y-89132585D01*
X163913694Y-89132585D02*
X163946423Y-89053569D01*
X163946423Y-89053569D02*
X164035026Y-88951410D01*
X164035026Y-88951410D02*
X164314389Y-88835693D01*
X164314389Y-88835693D02*
X164505151Y-88822136D01*
X166085470Y-89476726D02*
X165414997Y-89754445D01*
X165750233Y-89615585D02*
X165264226Y-88442258D01*
X165264226Y-88442258D02*
X165221910Y-88656163D01*
X165221910Y-88656163D02*
X165156451Y-88814195D01*
X165156451Y-88814195D02*
X165067849Y-88916354D01*
X166605171Y-87886821D02*
X166381680Y-87979394D01*
X166381680Y-87979394D02*
X166293078Y-88081553D01*
X166293078Y-88081553D02*
X166260348Y-88160569D01*
X166260348Y-88160569D02*
X166218033Y-88374473D01*
X166218033Y-88374473D02*
X166254733Y-88621107D01*
X166254733Y-88621107D02*
X166439879Y-89068089D01*
X166439879Y-89068089D02*
X166542038Y-89156691D01*
X166542038Y-89156691D02*
X166621054Y-89189421D01*
X166621054Y-89189421D02*
X166755943Y-89199007D01*
X166755943Y-89199007D02*
X166979433Y-89106434D01*
X166979433Y-89106434D02*
X167068036Y-89004275D01*
X167068036Y-89004275D02*
X167100765Y-88925259D01*
X167100765Y-88925259D02*
X167110351Y-88790370D01*
X167110351Y-88790370D02*
X166994635Y-88511007D01*
X166994635Y-88511007D02*
X166892476Y-88422405D01*
X166892476Y-88422405D02*
X166813460Y-88389675D01*
X166813460Y-88389675D02*
X166678571Y-88380089D01*
X166678571Y-88380089D02*
X166455080Y-88472662D01*
X166455080Y-88472662D02*
X166366478Y-88574821D01*
X166366478Y-88574821D02*
X166333749Y-88653837D01*
X166333749Y-88653837D02*
X166324163Y-88788726D01*
X123740866Y-73939776D02*
X123885341Y-74065078D01*
X123885341Y-74065078D02*
X124164705Y-74180794D01*
X124164705Y-74180794D02*
X124299593Y-74171208D01*
X124299593Y-74171208D02*
X124378609Y-74138479D01*
X124378609Y-74138479D02*
X124480768Y-74049876D01*
X124480768Y-74049876D02*
X124527055Y-73938131D01*
X124527055Y-73938131D02*
X124517469Y-73803242D01*
X124517469Y-73803242D02*
X124484739Y-73724226D01*
X124484739Y-73724226D02*
X124396137Y-73622067D01*
X124396137Y-73622067D02*
X124195789Y-73473622D01*
X124195789Y-73473622D02*
X124107187Y-73371462D01*
X124107187Y-73371462D02*
X124074458Y-73292446D01*
X124074458Y-73292446D02*
X124064871Y-73157558D01*
X124064871Y-73157558D02*
X124111158Y-73045812D01*
X124111158Y-73045812D02*
X124213317Y-72957210D01*
X124213317Y-72957210D02*
X124292333Y-72924481D01*
X124292333Y-72924481D02*
X124427222Y-72914894D01*
X124427222Y-72914894D02*
X124706585Y-73030611D01*
X124706585Y-73030611D02*
X124851060Y-73155913D01*
X125717910Y-73907728D02*
X125393904Y-74689946D01*
X125623692Y-73345030D02*
X124997180Y-74067404D01*
X124997180Y-74067404D02*
X125723525Y-74368266D01*
X211082825Y-87090387D02*
X211270595Y-87126665D01*
X211270595Y-87126665D02*
X211570389Y-87087196D01*
X211570389Y-87087196D02*
X211682413Y-87011450D01*
X211682413Y-87011450D02*
X211734478Y-86943598D01*
X211734478Y-86943598D02*
X211778650Y-86815786D01*
X211778650Y-86815786D02*
X211762862Y-86695869D01*
X211762862Y-86695869D02*
X211687116Y-86583845D01*
X211687116Y-86583845D02*
X211619263Y-86531780D01*
X211619263Y-86531780D02*
X211491452Y-86487608D01*
X211491452Y-86487608D02*
X211243723Y-86459224D01*
X211243723Y-86459224D02*
X211115912Y-86415053D01*
X211115912Y-86415053D02*
X211048059Y-86362988D01*
X211048059Y-86362988D02*
X210972313Y-86250964D01*
X210972313Y-86250964D02*
X210956525Y-86131047D01*
X210956525Y-86131047D02*
X211000697Y-86003235D01*
X211000697Y-86003235D02*
X211052762Y-85935383D01*
X211052762Y-85935383D02*
X211164786Y-85859636D01*
X211164786Y-85859636D02*
X211464580Y-85820168D01*
X211464580Y-85820168D02*
X211652350Y-85856445D01*
X212139914Y-85853254D02*
X212191979Y-85785402D01*
X212191979Y-85785402D02*
X212304003Y-85709656D01*
X212304003Y-85709656D02*
X212603797Y-85670187D01*
X212603797Y-85670187D02*
X212731609Y-85714358D01*
X212731609Y-85714358D02*
X212799461Y-85766423D01*
X212799461Y-85766423D02*
X212875207Y-85878447D01*
X212875207Y-85878447D02*
X212890995Y-85998365D01*
X212890995Y-85998365D02*
X212854717Y-86186135D01*
X212854717Y-86186135D02*
X212229936Y-87000365D01*
X212229936Y-87000365D02*
X213009401Y-86897747D01*
X213608989Y-86818810D02*
X213848824Y-86787235D01*
X213848824Y-86787235D02*
X213960848Y-86711489D01*
X213960848Y-86711489D02*
X214012913Y-86643636D01*
X214012913Y-86643636D02*
X214109150Y-86447972D01*
X214109150Y-86447972D02*
X214137534Y-86200243D01*
X214137534Y-86200243D02*
X214074384Y-85720573D01*
X214074384Y-85720573D02*
X213998638Y-85608549D01*
X213998638Y-85608549D02*
X213930785Y-85556484D01*
X213930785Y-85556484D02*
X213802974Y-85512312D01*
X213802974Y-85512312D02*
X213563138Y-85543887D01*
X213563138Y-85543887D02*
X213451115Y-85619634D01*
X213451115Y-85619634D02*
X213399049Y-85687486D01*
X213399049Y-85687486D02*
X213354878Y-85815297D01*
X213354878Y-85815297D02*
X213394347Y-86115091D01*
X213394347Y-86115091D02*
X213470093Y-86227115D01*
X213470093Y-86227115D02*
X213537946Y-86279180D01*
X213537946Y-86279180D02*
X213665757Y-86323352D01*
X213665757Y-86323352D02*
X213905592Y-86291777D01*
X213905592Y-86291777D02*
X214017616Y-86216031D01*
X214017616Y-86216031D02*
X214069681Y-86148178D01*
X214069681Y-86148178D02*
X214113852Y-86020367D01*
X177668319Y-122497221D02*
X177859081Y-122483664D01*
X177859081Y-122483664D02*
X178138444Y-122367948D01*
X178138444Y-122367948D02*
X178227047Y-122265788D01*
X178227047Y-122265788D02*
X178259776Y-122186773D01*
X178259776Y-122186773D02*
X178269362Y-122051884D01*
X178269362Y-122051884D02*
X178223076Y-121940138D01*
X178223076Y-121940138D02*
X178120917Y-121851536D01*
X178120917Y-121851536D02*
X178041901Y-121818807D01*
X178041901Y-121818807D02*
X177907012Y-121809221D01*
X177907012Y-121809221D02*
X177660378Y-121845921D01*
X177660378Y-121845921D02*
X177525489Y-121836335D01*
X177525489Y-121836335D02*
X177446473Y-121803605D01*
X177446473Y-121803605D02*
X177344314Y-121715003D01*
X177344314Y-121715003D02*
X177298028Y-121603257D01*
X177298028Y-121603257D02*
X177307614Y-121468369D01*
X177307614Y-121468369D02*
X177340343Y-121389353D01*
X177340343Y-121389353D02*
X177428946Y-121287194D01*
X177428946Y-121287194D02*
X177708309Y-121171477D01*
X177708309Y-121171477D02*
X177899071Y-121157920D01*
X178267037Y-120940045D02*
X178993382Y-120639183D01*
X178993382Y-120639183D02*
X178787419Y-121248167D01*
X178787419Y-121248167D02*
X178955037Y-121178738D01*
X178955037Y-121178738D02*
X179089925Y-121188324D01*
X179089925Y-121188324D02*
X179168941Y-121221053D01*
X179168941Y-121221053D02*
X179271101Y-121309656D01*
X179271101Y-121309656D02*
X179386817Y-121589019D01*
X179386817Y-121589019D02*
X179377231Y-121723908D01*
X179377231Y-121723908D02*
X179344501Y-121802924D01*
X179344501Y-121802924D02*
X179255899Y-121905083D01*
X179255899Y-121905083D02*
X178920663Y-122043942D01*
X178920663Y-122043942D02*
X178785774Y-122034356D01*
X178785774Y-122034356D02*
X178706758Y-122001627D01*
X179384491Y-120477180D02*
X180110836Y-120176318D01*
X180110836Y-120176318D02*
X179904873Y-120785303D01*
X179904873Y-120785303D02*
X180072491Y-120715873D01*
X180072491Y-120715873D02*
X180207380Y-120725459D01*
X180207380Y-120725459D02*
X180286396Y-120758189D01*
X180286396Y-120758189D02*
X180388555Y-120846791D01*
X180388555Y-120846791D02*
X180504271Y-121126154D01*
X180504271Y-121126154D02*
X180494685Y-121261043D01*
X180494685Y-121261043D02*
X180461956Y-121340059D01*
X180461956Y-121340059D02*
X180373353Y-121442218D01*
X180373353Y-121442218D02*
X180038117Y-121581078D01*
X180038117Y-121581078D02*
X179903228Y-121571491D01*
X179903228Y-121571491D02*
X179824212Y-121538762D01*
X113232368Y-97729211D02*
X113376843Y-97854514D01*
X113376843Y-97854514D02*
X113656206Y-97970230D01*
X113656206Y-97970230D02*
X113791095Y-97960644D01*
X113791095Y-97960644D02*
X113870111Y-97927914D01*
X113870111Y-97927914D02*
X113972270Y-97839312D01*
X113972270Y-97839312D02*
X114018557Y-97727567D01*
X114018557Y-97727567D02*
X114008970Y-97592678D01*
X114008970Y-97592678D02*
X113976241Y-97513662D01*
X113976241Y-97513662D02*
X113887639Y-97411503D01*
X113887639Y-97411503D02*
X113687291Y-97263057D01*
X113687291Y-97263057D02*
X113598689Y-97160898D01*
X113598689Y-97160898D02*
X113565959Y-97081882D01*
X113565959Y-97081882D02*
X113556373Y-96946993D01*
X113556373Y-96946993D02*
X113602660Y-96835248D01*
X113602660Y-96835248D02*
X113704819Y-96746646D01*
X113704819Y-96746646D02*
X113783835Y-96713916D01*
X113783835Y-96713916D02*
X113918723Y-96704330D01*
X113918723Y-96704330D02*
X114198087Y-96820046D01*
X114198087Y-96820046D02*
X114342562Y-96945349D01*
X114766401Y-97186367D02*
X114845417Y-97153638D01*
X114845417Y-97153638D02*
X114980305Y-97144052D01*
X114980305Y-97144052D02*
X115259669Y-97259768D01*
X115259669Y-97259768D02*
X115348271Y-97361927D01*
X115348271Y-97361927D02*
X115381000Y-97440943D01*
X115381000Y-97440943D02*
X115390587Y-97575832D01*
X115390587Y-97575832D02*
X115344300Y-97687577D01*
X115344300Y-97687577D02*
X115218998Y-97832052D01*
X115218998Y-97832052D02*
X114270806Y-98224806D01*
X114270806Y-98224806D02*
X114997152Y-98525668D01*
X116326866Y-98160028D02*
X116002861Y-98942246D01*
X116232648Y-97597330D02*
X115606136Y-98319705D01*
X115606136Y-98319705D02*
X116332481Y-98620567D01*
D11*
%TO.C,S11*%
X64859360Y-74030088D02*
X64859360Y-74030088D01*
X64859360Y-74230088D02*
X64859360Y-74230088D01*
D12*
X65459360Y-73870088D02*
X77459360Y-73870088D01*
X65459360Y-75970087D02*
X65459360Y-73870088D01*
X65459360Y-78670088D02*
X65459360Y-81070088D01*
X65459360Y-83770088D02*
X65459360Y-85870088D01*
X65459360Y-85870088D02*
X77459360Y-85870088D01*
X77459360Y-73870088D02*
X77459360Y-75970088D01*
X77459360Y-78670088D02*
X77459360Y-81070088D01*
X77459360Y-85870088D02*
X77459360Y-83770089D01*
D11*
X64859360Y-74030088D02*
G75*
G02*
X64859360Y-74230088I0J-100000D01*
G01*
X64859360Y-74230088D02*
G75*
G02*
X64859360Y-74030088I0J100000D01*
G01*
D12*
%TO.C,S3*%
X103498630Y-61161109D02*
X115089739Y-64266938D01*
X104042150Y-59132665D02*
X103498630Y-61161109D01*
X105362127Y-54206443D02*
X104740961Y-56524666D01*
D11*
X105931728Y-49762442D02*
X105931728Y-49762442D01*
X105983492Y-49569256D02*
X105983492Y-49569256D01*
D12*
X106060939Y-51598444D02*
X106604459Y-49570000D01*
X106604459Y-49570000D02*
X118195568Y-52675829D01*
X115089739Y-64266938D02*
X115633259Y-62238494D01*
X116953237Y-57312272D02*
X116332071Y-59630495D01*
X118195568Y-52675829D02*
X117652048Y-54704273D01*
D11*
X105931728Y-49762442D02*
G75*
G02*
X105983492Y-49569255I25880J96594D01*
G01*
X105983492Y-49569256D02*
G75*
G02*
X105931728Y-49762443I-25888J-96592D01*
G01*
D12*
%TO.C,S12*%
X82130327Y-78652434D02*
X94027666Y-80218749D01*
X82404432Y-76570400D02*
X82130327Y-78652434D01*
D11*
X83054786Y-67033700D02*
X83054786Y-67033700D01*
D12*
X83070116Y-71514031D02*
X82756855Y-73893498D01*
D11*
X83080891Y-66835411D02*
X83080891Y-66835411D01*
D12*
X83422537Y-68837130D02*
X83696642Y-66755095D01*
X83696642Y-66755095D02*
X95593981Y-68321410D01*
X94027666Y-80218749D02*
X94301771Y-78136714D01*
X94967453Y-73080346D02*
X94654192Y-75459813D01*
X95593981Y-68321410D02*
X95319876Y-70403444D01*
D11*
X83054786Y-67033700D02*
G75*
G02*
X83080891Y-66835411I13048J99145D01*
G01*
X83080891Y-66835411D02*
G75*
G02*
X83054786Y-67033700I-13057J-99144D01*
G01*
D12*
%TO.C,S14*%
X112017206Y-89092951D02*
X123103761Y-93685152D01*
X112820841Y-87152805D02*
X112017206Y-89092951D01*
X114772527Y-82441018D02*
X113854087Y-84658329D01*
X115805772Y-79946543D02*
X116609407Y-78006396D01*
D11*
X115917314Y-78109383D02*
X115917314Y-78109383D01*
X115993850Y-77924607D02*
X115993850Y-77924607D01*
D12*
X116609407Y-78006396D02*
X127695962Y-82598597D01*
X123103761Y-93685152D02*
X123907396Y-91745005D01*
X125859081Y-87033219D02*
X124940641Y-89250530D01*
X127695962Y-82598597D02*
X126892327Y-84538743D01*
D11*
X115917314Y-78109383D02*
G75*
G02*
X115993850Y-77924607I38268J92388D01*
G01*
X115993850Y-77924607D02*
G75*
G02*
X115917314Y-78109383I-38268J-92388D01*
G01*
%TO.C,S30*%
X221680636Y-87030087D02*
X221680636Y-87030087D01*
X221680636Y-87230087D02*
X221680636Y-87230087D01*
D12*
X222280636Y-86870087D02*
X234280636Y-86870087D01*
X222280636Y-88970087D02*
X222280636Y-86870087D01*
X222280636Y-91670087D02*
X222280636Y-94070087D01*
X222280636Y-96770088D02*
X222280636Y-98870087D01*
X222280636Y-98870087D02*
X234280636Y-98870087D01*
X234280636Y-86870087D02*
X234280636Y-88970086D01*
X234280636Y-91670087D02*
X234280636Y-94070087D01*
X234280636Y-98870087D02*
X234280636Y-96770087D01*
D11*
X221680636Y-87030087D02*
G75*
G02*
X221680636Y-87230087I0J-100000D01*
G01*
X221680636Y-87230087D02*
G75*
G02*
X221680636Y-87030087I0J100000D01*
G01*
%TO.C,S27*%
X176525823Y-94986462D02*
X176525823Y-94986462D01*
X176602360Y-95171238D02*
X176602360Y-95171238D01*
D12*
X177018921Y-94609031D02*
X188105476Y-90016830D01*
X177822556Y-96549177D02*
X177018921Y-94609031D01*
X178855802Y-99043653D02*
X179774242Y-101260964D01*
X180807487Y-103755439D02*
X181611122Y-105695586D01*
X181611122Y-105695586D02*
X192697677Y-101103385D01*
X188105476Y-90016830D02*
X188909111Y-91956977D01*
X189942356Y-94451452D02*
X190860796Y-96668763D01*
X192697677Y-101103385D02*
X191894042Y-99163239D01*
D11*
X176525823Y-94986462D02*
G75*
G02*
X176602360Y-95171238I38268J-92388D01*
G01*
X176602360Y-95171238D02*
G75*
G02*
X176525823Y-94986462I-38269J92388D01*
G01*
%TO.C,S17*%
X171550938Y-82976028D02*
X171550938Y-82976028D01*
X171627475Y-83160804D02*
X171627475Y-83160804D01*
D12*
X172044036Y-82598597D02*
X183130591Y-78006396D01*
X172847671Y-84538743D02*
X172044036Y-82598597D01*
X173880917Y-87033219D02*
X174799357Y-89250530D01*
X175832602Y-91745005D02*
X176636237Y-93685152D01*
X176636237Y-93685152D02*
X187722792Y-89092951D01*
X183130591Y-78006396D02*
X183934226Y-79946543D01*
X184967471Y-82441018D02*
X185885911Y-84658329D01*
X187722792Y-89092951D02*
X186919157Y-87152805D01*
D11*
X171550938Y-82976028D02*
G75*
G02*
X171627475Y-83160804I38268J-92388D01*
G01*
X171627475Y-83160804D02*
G75*
G02*
X171550938Y-82976028I-38269J92388D01*
G01*
D12*
%TO.C,S2*%
X83827167Y-65763650D02*
X95724506Y-67329965D01*
X84101272Y-63681616D02*
X83827167Y-65763650D01*
D11*
X84751626Y-54144916D02*
X84751626Y-54144916D01*
D12*
X84766956Y-58625247D02*
X84453695Y-61004714D01*
D11*
X84777731Y-53946627D02*
X84777731Y-53946627D01*
D12*
X85119377Y-55948346D02*
X85393482Y-53866311D01*
X85393482Y-53866311D02*
X97290821Y-55432626D01*
X95724506Y-67329965D02*
X95998611Y-65247930D01*
X96664293Y-60191562D02*
X96351032Y-62571029D01*
X97290821Y-55432626D02*
X97016716Y-57514660D01*
D11*
X84751626Y-54144916D02*
G75*
G02*
X84777731Y-53946627I13048J99145D01*
G01*
X84777731Y-53946627D02*
G75*
G02*
X84751626Y-54144916I-13057J-99144D01*
G01*
%TO.C,S7*%
X166576053Y-70965594D02*
X166576053Y-70965594D01*
X166652590Y-71150370D02*
X166652590Y-71150370D01*
D12*
X167069151Y-70588163D02*
X178155706Y-65995962D01*
X167872786Y-72528309D02*
X167069151Y-70588163D01*
X168906032Y-75022785D02*
X169824472Y-77240096D01*
X170857717Y-79734571D02*
X171661352Y-81674718D01*
X171661352Y-81674718D02*
X182747907Y-77082517D01*
X178155706Y-65995962D02*
X178959341Y-67936109D01*
X179992586Y-70430584D02*
X180911026Y-72647895D01*
X182747907Y-77082517D02*
X181944272Y-75142371D01*
D11*
X166576053Y-70965594D02*
G75*
G02*
X166652590Y-71150370I38268J-92388D01*
G01*
X166652590Y-71150370D02*
G75*
G02*
X166576053Y-70965594I-38269J92388D01*
G01*
D12*
%TO.C,S23*%
X96769334Y-86275178D02*
X108360443Y-89381007D01*
X97312854Y-84246734D02*
X96769334Y-86275178D01*
X98632831Y-79320512D02*
X98011665Y-81638735D01*
D11*
X99202432Y-74876511D02*
X99202432Y-74876511D01*
X99254196Y-74683325D02*
X99254196Y-74683325D01*
D12*
X99331643Y-76712513D02*
X99875163Y-74684069D01*
X99875163Y-74684069D02*
X111466272Y-77789898D01*
X108360443Y-89381007D02*
X108903963Y-87352563D01*
X110223941Y-82426341D02*
X109602775Y-84744564D01*
X111466272Y-77789898D02*
X110922752Y-79818342D01*
D11*
X99202432Y-74876511D02*
G75*
G02*
X99254196Y-74683324I25880J96594D01*
G01*
X99254196Y-74683325D02*
G75*
G02*
X99202432Y-74876512I-25888J-96592D01*
G01*
%TO.C,S10*%
X221680637Y-61030087D02*
X221680637Y-61030087D01*
X221680637Y-61230087D02*
X221680637Y-61230087D01*
D12*
X222280637Y-60870087D02*
X234280637Y-60870087D01*
X222280637Y-62970087D02*
X222280637Y-60870087D01*
X222280637Y-65670087D02*
X222280637Y-68070087D01*
X222280637Y-70770088D02*
X222280637Y-72870087D01*
X222280637Y-72870087D02*
X234280637Y-72870087D01*
X234280637Y-60870087D02*
X234280637Y-62970086D01*
X234280637Y-65670087D02*
X234280637Y-68070087D01*
X234280637Y-72870087D02*
X234280637Y-70770087D01*
D11*
X221680637Y-61030087D02*
G75*
G02*
X221680637Y-61230087I0J-100000D01*
G01*
X221680637Y-61230087D02*
G75*
G02*
X221680637Y-61030087I0J100000D01*
G01*
%TO.C,S26*%
X162172861Y-98225673D02*
X162172861Y-98225673D01*
X162249398Y-98410449D02*
X162249398Y-98410449D01*
D12*
X162665959Y-97848242D02*
X173752514Y-93256041D01*
X163469594Y-99788388D02*
X162665959Y-97848242D01*
X164502840Y-102282864D02*
X165421280Y-104500175D01*
X166454525Y-106994650D02*
X167258160Y-108934797D01*
X167258160Y-108934797D02*
X178344715Y-104342596D01*
X173752514Y-93256041D02*
X174556149Y-95196188D01*
X175589394Y-97690663D02*
X176507834Y-99907974D01*
X178344715Y-104342596D02*
X177541080Y-102402450D01*
D11*
X162172861Y-98225673D02*
G75*
G02*
X162249398Y-98410449I38268J-92388D01*
G01*
X162249398Y-98410449D02*
G75*
G02*
X162172861Y-98225673I-38269J92388D01*
G01*
D12*
%TO.C,S15*%
X126370168Y-92332162D02*
X137456723Y-96924363D01*
X127173803Y-90392016D02*
X126370168Y-92332162D01*
X129125489Y-85680229D02*
X128207049Y-87897540D01*
X130158734Y-83185754D02*
X130962369Y-81245607D01*
D11*
X130270276Y-81348594D02*
X130270276Y-81348594D01*
X130346812Y-81163818D02*
X130346812Y-81163818D01*
D12*
X130962369Y-81245607D02*
X142048924Y-85837808D01*
X137456723Y-96924363D02*
X138260358Y-94984216D01*
X140212043Y-90272430D02*
X139293603Y-92489741D01*
X142048924Y-85837808D02*
X141245289Y-87777954D01*
D11*
X130270276Y-81348594D02*
G75*
G02*
X130346812Y-81163818I38268J92388D01*
G01*
X130346812Y-81163818D02*
G75*
G02*
X130270276Y-81348594I-38268J-92388D01*
G01*
%TO.C,S8*%
X181006285Y-52985667D02*
X181006285Y-52985667D01*
X181058049Y-53178852D02*
X181058049Y-53178852D01*
D12*
X181544430Y-52675828D02*
X193135539Y-49569999D01*
X182087950Y-54704272D02*
X181544430Y-52675828D01*
X182786761Y-57312271D02*
X183407927Y-59630494D01*
X184106739Y-62238493D02*
X184650259Y-64266937D01*
X184650259Y-64266937D02*
X196241368Y-61161108D01*
X193135539Y-49569999D02*
X193679059Y-51598443D01*
X194377871Y-54206442D02*
X194999037Y-56524665D01*
X196241368Y-61161108D02*
X195697848Y-59132664D01*
D11*
X181006285Y-52985667D02*
G75*
G02*
X181058049Y-53178852I25881J-96593D01*
G01*
X181058049Y-53178852D02*
G75*
G02*
X181006285Y-52985667I-25883J96592D01*
G01*
D12*
%TO.C,S22*%
X80433486Y-91541217D02*
X92330825Y-93107532D01*
X80707591Y-89459183D02*
X80433486Y-91541217D01*
D11*
X81357945Y-79922483D02*
X81357945Y-79922483D01*
D12*
X81373275Y-84402814D02*
X81060014Y-86782281D01*
D11*
X81384050Y-79724194D02*
X81384050Y-79724194D01*
D12*
X81725696Y-81725913D02*
X81999801Y-79643878D01*
X81999801Y-79643878D02*
X93897140Y-81210193D01*
X92330825Y-93107532D02*
X92604930Y-91025497D01*
X93270612Y-85969129D02*
X92957351Y-88348596D01*
X93897140Y-81210193D02*
X93623035Y-83292227D01*
D11*
X81357945Y-79922483D02*
G75*
G02*
X81384050Y-79724194I13048J99145D01*
G01*
X81384050Y-79724194D02*
G75*
G02*
X81357945Y-79922483I-13057J-99144D01*
G01*
%TO.C,S20*%
X221680637Y-74030087D02*
X221680637Y-74030087D01*
X221680637Y-74230087D02*
X221680637Y-74230087D01*
D12*
X222280637Y-73870087D02*
X234280637Y-73870087D01*
X222280637Y-75970087D02*
X222280637Y-73870087D01*
X222280637Y-78670087D02*
X222280637Y-81070087D01*
X222280637Y-83770088D02*
X222280637Y-85870087D01*
X222280637Y-85870087D02*
X234280637Y-85870087D01*
X234280637Y-73870087D02*
X234280637Y-75970086D01*
X234280637Y-78670087D02*
X234280637Y-81070087D01*
X234280637Y-85870087D02*
X234280637Y-83770087D01*
D11*
X221680637Y-74030087D02*
G75*
G02*
X221680637Y-74230087I0J-100000D01*
G01*
X221680637Y-74230087D02*
G75*
G02*
X221680637Y-74030087I0J100000D01*
G01*
%TO.C,S9*%
X201875195Y-55669573D02*
X201875195Y-55669573D01*
X201901300Y-55867862D02*
X201901300Y-55867862D01*
D12*
X202449177Y-55432626D02*
X214346516Y-53866311D01*
X202723282Y-57514660D02*
X202449177Y-55432626D01*
X203075705Y-60191562D02*
X203388967Y-62571028D01*
X203741387Y-65247930D02*
X204015492Y-67329965D01*
X204015492Y-67329965D02*
X215912831Y-65763650D01*
X214346516Y-53866311D02*
X214620621Y-55948346D01*
X214973041Y-58625248D02*
X215286303Y-61004714D01*
X215912831Y-65763650D02*
X215638726Y-63681616D01*
D11*
X201875195Y-55669573D02*
G75*
G02*
X201901300Y-55867861I13054J-99144D01*
G01*
X201901300Y-55867862D02*
G75*
G02*
X201875195Y-55669572I-13051J99145D01*
G01*
%TO.C,S1*%
X64859360Y-61030089D02*
X64859360Y-61030089D01*
X64859360Y-61230089D02*
X64859360Y-61230089D01*
D12*
X65459360Y-60870089D02*
X77459360Y-60870089D01*
X65459360Y-62970088D02*
X65459360Y-60870089D01*
X65459360Y-65670089D02*
X65459360Y-68070089D01*
X65459360Y-70770089D02*
X65459360Y-72870089D01*
X65459360Y-72870089D02*
X77459360Y-72870089D01*
X77459360Y-60870089D02*
X77459360Y-62970089D01*
X77459360Y-65670089D02*
X77459360Y-68070089D01*
X77459360Y-72870089D02*
X77459360Y-70770090D01*
D11*
X64859360Y-61030089D02*
G75*
G02*
X64859360Y-61230089I0J-100000D01*
G01*
X64859360Y-61230089D02*
G75*
G02*
X64859360Y-61030089I0J100000D01*
G01*
%TO.C,S21*%
X64859362Y-87030087D02*
X64859362Y-87030087D01*
X64859362Y-87230087D02*
X64859362Y-87230087D01*
D12*
X65459362Y-86870087D02*
X77459362Y-86870087D01*
X65459362Y-88970086D02*
X65459362Y-86870087D01*
X65459362Y-91670087D02*
X65459362Y-94070087D01*
X65459362Y-96770087D02*
X65459362Y-98870087D01*
X65459362Y-98870087D02*
X77459362Y-98870087D01*
X77459362Y-86870087D02*
X77459362Y-88970087D01*
X77459362Y-91670087D02*
X77459362Y-94070087D01*
X77459362Y-98870087D02*
X77459362Y-96770088D01*
D11*
X64859362Y-87030087D02*
G75*
G02*
X64859362Y-87230087I0J-100000D01*
G01*
X64859362Y-87230087D02*
G75*
G02*
X64859362Y-87030087I0J100000D01*
G01*
D12*
%TO.C,S25*%
X121395283Y-104342596D02*
X132481838Y-108934797D01*
X122198918Y-102402450D02*
X121395283Y-104342596D01*
X124150604Y-97690663D02*
X123232164Y-99907974D01*
X125183849Y-95196188D02*
X125987484Y-93256041D01*
D11*
X125295391Y-93359028D02*
X125295391Y-93359028D01*
X125371927Y-93174252D02*
X125371927Y-93174252D01*
D12*
X125987484Y-93256041D02*
X137074039Y-97848242D01*
X132481838Y-108934797D02*
X133285473Y-106994650D01*
X135237158Y-102282864D02*
X134318718Y-104500175D01*
X137074039Y-97848242D02*
X136270404Y-99788388D01*
D11*
X125295391Y-93359028D02*
G75*
G02*
X125371927Y-93174252I38268J92388D01*
G01*
X125371927Y-93174252D02*
G75*
G02*
X125295391Y-93359028I-38268J-92388D01*
G01*
D12*
%TO.C,S31*%
X100536703Y-116809337D02*
X111623258Y-121401538D01*
X101340338Y-114869191D02*
X100536703Y-116809337D01*
X103292024Y-110157404D02*
X102373584Y-112374715D01*
X104325269Y-107662929D02*
X105128904Y-105722782D01*
D11*
X104436811Y-105825769D02*
X104436811Y-105825769D01*
X104513347Y-105640993D02*
X104513347Y-105640993D01*
D12*
X105128904Y-105722782D02*
X116215459Y-110314983D01*
X111623258Y-121401538D02*
X112426893Y-119461391D01*
X114378578Y-114749605D02*
X113460138Y-116966916D01*
X116215459Y-110314983D02*
X115411824Y-112255129D01*
D11*
X104436811Y-105825769D02*
G75*
G02*
X104513347Y-105640993I38268J92388D01*
G01*
X104513347Y-105640993D02*
G75*
G02*
X104436811Y-105825769I-38268J-92388D01*
G01*
%TO.C,S18*%
X184370933Y-65542702D02*
X184370933Y-65542702D01*
X184422697Y-65735887D02*
X184422697Y-65735887D01*
D12*
X184909078Y-65232863D02*
X196500187Y-62127034D01*
X185452598Y-67261307D02*
X184909078Y-65232863D01*
X186151409Y-69869306D02*
X186772575Y-72187529D01*
X187471387Y-74795528D02*
X188014907Y-76823972D01*
X188014907Y-76823972D02*
X199606016Y-73718143D01*
X196500187Y-62127034D02*
X197043707Y-64155478D01*
X197742519Y-66763477D02*
X198363685Y-69081700D01*
X199606016Y-73718143D02*
X199062496Y-71689699D01*
D11*
X184370933Y-65542702D02*
G75*
G02*
X184422697Y-65735887I25881J-96593D01*
G01*
X184422697Y-65735887D02*
G75*
G02*
X184370933Y-65542702I-25883J96592D01*
G01*
%TO.C,S28*%
X187735581Y-78099737D02*
X187735581Y-78099737D01*
X187787345Y-78292922D02*
X187787345Y-78292922D01*
D12*
X188273726Y-77789898D02*
X199864835Y-74684069D01*
X188817246Y-79818342D02*
X188273726Y-77789898D01*
X189516057Y-82426341D02*
X190137223Y-84744564D01*
X190836035Y-87352563D02*
X191379555Y-89381007D01*
X191379555Y-89381007D02*
X202970664Y-86275178D01*
X199864835Y-74684069D02*
X200408355Y-76712513D01*
X201107167Y-79320512D02*
X201728333Y-81638735D01*
X202970664Y-86275178D02*
X202427144Y-84246734D01*
D11*
X187735581Y-78099737D02*
G75*
G02*
X187787345Y-78292922I25881J-96593D01*
G01*
X187787345Y-78292922D02*
G75*
G02*
X187735581Y-78099737I-25883J96592D01*
G01*
%TO.C,S19*%
X203572035Y-68558357D02*
X203572035Y-68558357D01*
X203598140Y-68756646D02*
X203598140Y-68756646D01*
D12*
X204146017Y-68321410D02*
X216043356Y-66755095D01*
X204420122Y-70403444D02*
X204146017Y-68321410D01*
X204772545Y-73080346D02*
X205085807Y-75459812D01*
X205438227Y-78136714D02*
X205712332Y-80218749D01*
X205712332Y-80218749D02*
X217609671Y-78652434D01*
X216043356Y-66755095D02*
X216317461Y-68837130D01*
X216669881Y-71514032D02*
X216983143Y-73893498D01*
X217609671Y-78652434D02*
X217335566Y-76570400D01*
D11*
X203572035Y-68558357D02*
G75*
G02*
X203598140Y-68756645I13054J-99144D01*
G01*
X203598140Y-68756646D02*
G75*
G02*
X203572035Y-68558356I-13051J99145D01*
G01*
D12*
%TO.C,S5*%
X131345052Y-80321728D02*
X142431607Y-84913929D01*
X132148687Y-78381582D02*
X131345052Y-80321728D01*
X134100373Y-73669795D02*
X133181933Y-75887106D01*
X135133618Y-71175320D02*
X135937253Y-69235173D01*
D11*
X135245160Y-69338160D02*
X135245160Y-69338160D01*
X135321696Y-69153384D02*
X135321696Y-69153384D01*
D12*
X135937253Y-69235173D02*
X147023808Y-73827374D01*
X142431607Y-84913929D02*
X143235242Y-82973782D01*
X145186927Y-78261996D02*
X144268487Y-80479307D01*
X147023808Y-73827374D02*
X146220173Y-75767520D01*
D11*
X135245160Y-69338160D02*
G75*
G02*
X135321696Y-69153384I38268J92388D01*
G01*
X135321696Y-69153384D02*
G75*
G02*
X135245160Y-69338160I-38268J-92388D01*
G01*
D12*
%TO.C,S32*%
X112976248Y-124667946D02*
X124062803Y-129260147D01*
X113779883Y-122727800D02*
X112976248Y-124667946D01*
X115731569Y-118016013D02*
X114813129Y-120233324D01*
X116764814Y-115521538D02*
X117568449Y-113581391D01*
D11*
X116876356Y-113684378D02*
X116876356Y-113684378D01*
X116952892Y-113499602D02*
X116952892Y-113499602D01*
D12*
X117568449Y-113581391D02*
X128655004Y-118173592D01*
X124062803Y-129260147D02*
X124866438Y-127320000D01*
X126818123Y-122608214D02*
X125899683Y-124825525D01*
X128655004Y-118173592D02*
X127851369Y-120113738D01*
D11*
X116876356Y-113684378D02*
G75*
G02*
X116952892Y-113499602I38268J92388D01*
G01*
X116952892Y-113499602D02*
G75*
G02*
X116876356Y-113684378I-38268J-92388D01*
G01*
%TO.C,S6*%
X152223092Y-74204805D02*
X152223092Y-74204805D01*
X152299629Y-74389581D02*
X152299629Y-74389581D01*
D12*
X152716190Y-73827374D02*
X163802745Y-69235173D01*
X153519825Y-75767520D02*
X152716190Y-73827374D01*
X154553071Y-78261996D02*
X155471511Y-80479307D01*
X156504756Y-82973782D02*
X157308391Y-84913929D01*
X157308391Y-84913929D02*
X168394946Y-80321728D01*
X163802745Y-69235173D02*
X164606380Y-71175320D01*
X165639625Y-73669795D02*
X166558065Y-75887106D01*
X168394946Y-80321728D02*
X167591311Y-78381582D01*
D11*
X152223092Y-74204805D02*
G75*
G02*
X152299629Y-74389581I38268J-92388D01*
G01*
X152299629Y-74389581D02*
G75*
G02*
X152223092Y-74204805I-38269J92388D01*
G01*
%TO.C,S34*%
X183031441Y-110692414D02*
X183031441Y-110692414D01*
X183107978Y-110877190D02*
X183107978Y-110877190D01*
D12*
X183524539Y-110314983D02*
X194611094Y-105722782D01*
X184328174Y-112255129D02*
X183524539Y-110314983D01*
X185361420Y-114749605D02*
X186279860Y-116966916D01*
X187313105Y-119461391D02*
X188116740Y-121401538D01*
X188116740Y-121401538D02*
X199203295Y-116809337D01*
X194611094Y-105722782D02*
X195414729Y-107662929D01*
X196447974Y-110157404D02*
X197366414Y-112374715D01*
X199203295Y-116809337D02*
X198399660Y-114869191D01*
D11*
X183031441Y-110692414D02*
G75*
G02*
X183107978Y-110877190I38268J-92388D01*
G01*
X183107978Y-110877190D02*
G75*
G02*
X183031441Y-110692414I-38269J92388D01*
G01*
D12*
%TO.C,S13*%
X100133982Y-73718143D02*
X111725091Y-76823972D01*
X100677502Y-71689699D02*
X100133982Y-73718143D01*
X101997479Y-66763477D02*
X101376313Y-69081700D01*
D11*
X102567080Y-62319476D02*
X102567080Y-62319476D01*
X102618844Y-62126290D02*
X102618844Y-62126290D01*
D12*
X102696291Y-64155478D02*
X103239811Y-62127034D01*
X103239811Y-62127034D02*
X114830920Y-65232863D01*
X111725091Y-76823972D02*
X112268611Y-74795528D01*
X113588589Y-69869306D02*
X112967423Y-72187529D01*
X114830920Y-65232863D02*
X114287400Y-67261307D01*
D11*
X102567080Y-62319476D02*
G75*
G02*
X102618844Y-62126289I25880J96594D01*
G01*
X102618844Y-62126290D02*
G75*
G02*
X102567080Y-62319477I-25888J-96592D01*
G01*
%TO.C,S16*%
X157197976Y-86215239D02*
X157197976Y-86215239D01*
X157274513Y-86400015D02*
X157274513Y-86400015D01*
D12*
X157691074Y-85837808D02*
X168777629Y-81245607D01*
X158494709Y-87777954D02*
X157691074Y-85837808D01*
X159527955Y-90272430D02*
X160446395Y-92489741D01*
X161479640Y-94984216D02*
X162283275Y-96924363D01*
X162283275Y-96924363D02*
X173369830Y-92332162D01*
X168777629Y-81245607D02*
X169581264Y-83185754D01*
X170614509Y-85680229D02*
X171532949Y-87897540D01*
X173369830Y-92332162D02*
X172566195Y-90392016D01*
D11*
X157197976Y-86215239D02*
G75*
G02*
X157274513Y-86400015I38268J-92388D01*
G01*
X157274513Y-86400015D02*
G75*
G02*
X157197976Y-86215239I-38269J92388D01*
G01*
%TO.C,S4*%
X120968735Y-65914173D02*
G75*
G02*
X120892199Y-66098949I-38268J-92388D01*
G01*
X120892199Y-66098949D02*
G75*
G02*
X120968735Y-65914173I38268J92388D01*
G01*
D12*
X132670847Y-70588163D02*
X131867212Y-72528309D01*
X130833966Y-75022785D02*
X129915526Y-77240096D01*
X128078646Y-81674718D02*
X128882281Y-79734571D01*
X121584292Y-65995962D02*
X132670847Y-70588163D01*
D11*
X120968735Y-65914173D02*
X120968735Y-65914173D01*
X120892199Y-66098949D02*
X120892199Y-66098949D01*
D12*
X120780657Y-67936109D02*
X121584292Y-65995962D01*
X119747412Y-70430584D02*
X118828972Y-72647895D01*
X117795726Y-75142371D02*
X116992091Y-77082517D01*
X116992091Y-77082517D02*
X128078646Y-81674718D01*
D11*
%TO.C,S29*%
X205268876Y-81447140D02*
X205268876Y-81447140D01*
X205294981Y-81645429D02*
X205294981Y-81645429D01*
D12*
X205842858Y-81210193D02*
X217740197Y-79643878D01*
X206116963Y-83292227D02*
X205842858Y-81210193D01*
X206469386Y-85969129D02*
X206782648Y-88348595D01*
X207135068Y-91025497D02*
X207409173Y-93107532D01*
X207409173Y-93107532D02*
X219306512Y-91541217D01*
X217740197Y-79643878D02*
X218014302Y-81725913D01*
X218366722Y-84402815D02*
X218679984Y-86782281D01*
X219306512Y-91541217D02*
X219032407Y-89459183D01*
D11*
X205268876Y-81447140D02*
G75*
G02*
X205294981Y-81645428I13054J-99144D01*
G01*
X205294981Y-81645429D02*
G75*
G02*
X205268876Y-81447139I-13051J99145D01*
G01*
%TO.C,S33*%
X170591896Y-118551023D02*
X170591896Y-118551023D01*
X170668433Y-118735799D02*
X170668433Y-118735799D01*
D12*
X171084994Y-118173592D02*
X182171549Y-113581391D01*
X171888629Y-120113738D02*
X171084994Y-118173592D01*
X172921875Y-122608214D02*
X173840315Y-124825525D01*
X174873560Y-127320000D02*
X175677195Y-129260147D01*
X175677195Y-129260147D02*
X186763750Y-124667946D01*
X182171549Y-113581391D02*
X182975184Y-115521538D01*
X184008429Y-118016013D02*
X184926869Y-120233324D01*
X186763750Y-124667946D02*
X185960115Y-122727800D01*
D11*
X170591896Y-118551023D02*
G75*
G02*
X170668433Y-118735799I38268J-92388D01*
G01*
X170668433Y-118735799D02*
G75*
G02*
X170591896Y-118551023I-38269J92388D01*
G01*
D12*
%TO.C,S24*%
X107042320Y-101103385D02*
X118128875Y-105695586D01*
X107845955Y-99163239D02*
X107042320Y-101103385D01*
X109797641Y-94451452D02*
X108879201Y-96668763D01*
X110830886Y-91956977D02*
X111634521Y-90016830D01*
D11*
X110942428Y-90119817D02*
X110942428Y-90119817D01*
X111018964Y-89935041D02*
X111018964Y-89935041D01*
D12*
X111634521Y-90016830D02*
X122721076Y-94609031D01*
X118128875Y-105695586D02*
X118932510Y-103755439D01*
X120884195Y-99043653D02*
X119965755Y-101260964D01*
X122721076Y-94609031D02*
X121917441Y-96549177D01*
D11*
X110942428Y-90119817D02*
G75*
G02*
X111018964Y-89935041I38268J92388D01*
G01*
X111018964Y-89935041D02*
G75*
G02*
X110942428Y-90119817I-38268J-92388D01*
G01*
%TD*%
%LPC*%
D13*
%TO.C,H6*%
X85402219Y-99760079D03*
%TD*%
%TO.C,H5*%
X134832429Y-120245290D03*
%TD*%
%TO.C,H4*%
X164906645Y-120245671D03*
%TD*%
%TO.C,H3*%
X214335794Y-99760342D03*
%TD*%
%TO.C,H2*%
X170132812Y-59357029D03*
%TD*%
%TO.C,H1*%
X129606220Y-59356769D03*
%TD*%
D14*
%TO.C,S11*%
X71458360Y-75370088D03*
X71458360Y-84370089D03*
D15*
X65208360Y-77370088D03*
X77709359Y-77370088D03*
X65208360Y-82370088D03*
X77709360Y-82370088D03*
%TD*%
D14*
%TO.C,S3*%
X112010819Y-52571544D03*
X109681447Y-61264876D03*
D15*
X105456146Y-52885777D03*
X117531183Y-56121273D03*
X104162050Y-57715405D03*
X116237088Y-60950902D03*
%TD*%
D14*
%TO.C,S12*%
X89448530Y-69025290D03*
X88273795Y-77948293D03*
D15*
X82990948Y-70192390D03*
X95385000Y-71824098D03*
X82338317Y-75149614D03*
X94732369Y-76781323D03*
%TD*%
D14*
%TO.C,S14*%
X121577736Y-81687932D03*
X118133585Y-90002849D03*
D15*
X115038122Y-81143921D03*
X126587540Y-85927847D03*
X113124704Y-85763319D03*
X124674122Y-90547244D03*
%TD*%
D14*
%TO.C,S30*%
X228279636Y-88370086D03*
X228279636Y-97370087D03*
D15*
X222029636Y-90370087D03*
X234530636Y-90370087D03*
X222029636Y-95370087D03*
X234530636Y-95370086D03*
%TD*%
D14*
%TO.C,S27*%
X183135300Y-93699133D03*
X186579451Y-102014050D03*
D15*
X178126419Y-97938663D03*
X189675837Y-93154738D03*
X180039837Y-102558061D03*
X191589255Y-97774135D03*
%TD*%
D14*
%TO.C,S17*%
X178160415Y-81688699D03*
X181604566Y-90003616D03*
D15*
X173151534Y-85928229D03*
X184700952Y-81144304D03*
X175064952Y-90547627D03*
X186614370Y-85763701D03*
%TD*%
D14*
%TO.C,S2*%
X91145370Y-56136506D03*
X89970635Y-65059509D03*
D15*
X84687788Y-57303606D03*
X97081840Y-58935314D03*
X84035157Y-62260830D03*
X96429209Y-63892539D03*
%TD*%
D14*
%TO.C,S7*%
X173185530Y-69678265D03*
X176629681Y-77993182D03*
D15*
X168176649Y-73917795D03*
X179726067Y-69133870D03*
X170090067Y-78537193D03*
X181639485Y-73753267D03*
%TD*%
D14*
%TO.C,S23*%
X105281523Y-77685613D03*
X102952151Y-86378945D03*
D15*
X98726850Y-77999846D03*
X110801887Y-81235342D03*
X97432754Y-82829474D03*
X109507792Y-86064971D03*
%TD*%
D14*
%TO.C,S10*%
X228279637Y-62370086D03*
X228279637Y-71370087D03*
D15*
X222029637Y-64370087D03*
X234530637Y-64370087D03*
X222029637Y-69370087D03*
X234530637Y-69370086D03*
%TD*%
D14*
%TO.C,S26*%
X168782338Y-96938344D03*
X172226489Y-105253261D03*
D15*
X163773457Y-101177874D03*
X175322875Y-96393949D03*
X165686875Y-105797272D03*
X177236293Y-101013346D03*
%TD*%
D14*
%TO.C,S15*%
X135930698Y-84927143D03*
X132486547Y-93242060D03*
D15*
X129391084Y-84383132D03*
X140940502Y-89167058D03*
X127477666Y-89002530D03*
X139027084Y-93786455D03*
%TD*%
D14*
%TO.C,S8*%
X187727247Y-52572061D03*
X190056619Y-61265393D03*
D15*
X182207850Y-56121532D03*
X194282888Y-52886035D03*
X183501945Y-60951160D03*
X195576983Y-57715664D03*
%TD*%
D14*
%TO.C,S22*%
X87751689Y-81914073D03*
X86576954Y-90837076D03*
D15*
X81294107Y-83081173D03*
X93688159Y-84712881D03*
X80641476Y-88038397D03*
X93035528Y-89670106D03*
%TD*%
D14*
%TO.C,S20*%
X228279637Y-75370086D03*
X228279637Y-84370087D03*
D15*
X222029637Y-77370087D03*
X234530637Y-77370087D03*
X222029637Y-82370087D03*
X234530637Y-82370086D03*
%TD*%
D14*
%TO.C,S9*%
X209767379Y-65059771D03*
X208592645Y-56136767D03*
D15*
X202657167Y-58935446D03*
X215051219Y-57303737D03*
X203309798Y-63892670D03*
X215703850Y-62260961D03*
%TD*%
D14*
%TO.C,S1*%
X71458360Y-62370089D03*
X71458360Y-71370090D03*
D15*
X65208360Y-64370089D03*
X77709359Y-64370089D03*
X65208360Y-69370089D03*
X77709360Y-69370089D03*
%TD*%
D14*
%TO.C,S21*%
X71458362Y-88370087D03*
X71458362Y-97370088D03*
D15*
X65208362Y-90370087D03*
X77709361Y-90370087D03*
X65208362Y-95370087D03*
X77709362Y-95370087D03*
%TD*%
D14*
%TO.C,S25*%
X130955813Y-96937577D03*
X127511662Y-105252494D03*
D15*
X124416199Y-96393566D03*
X135965617Y-101177492D03*
X122502781Y-101012964D03*
X134052199Y-105796889D03*
%TD*%
D14*
%TO.C,S31*%
X110097233Y-109404318D03*
X106653082Y-117719235D03*
D15*
X103557619Y-108860307D03*
X115107037Y-113644233D03*
X101644201Y-113479705D03*
X113193619Y-118263630D03*
%TD*%
D14*
%TO.C,S18*%
X191091895Y-65129096D03*
X193421267Y-73822428D03*
D15*
X185572498Y-68678567D03*
X197647536Y-65443070D03*
X186866593Y-73508195D03*
X198941631Y-70272699D03*
%TD*%
D14*
%TO.C,S28*%
X194456543Y-77686131D03*
X196785915Y-86379463D03*
D15*
X188937146Y-81235602D03*
X201012184Y-78000105D03*
X190231241Y-86065230D03*
X202306279Y-82829734D03*
%TD*%
D14*
%TO.C,S19*%
X211464219Y-77948555D03*
X210289485Y-69025551D03*
D15*
X204354007Y-71824230D03*
X216748059Y-70192521D03*
X205006638Y-76781454D03*
X217400690Y-75149745D03*
%TD*%
D14*
%TO.C,S5*%
X140905582Y-72916709D03*
X137461431Y-81231626D03*
D15*
X134365968Y-72372698D03*
X145915386Y-77156624D03*
X132452550Y-76992096D03*
X144001968Y-81776021D03*
%TD*%
D14*
%TO.C,S32*%
X122536778Y-117262927D03*
X119092627Y-125577844D03*
D15*
X115997164Y-116718916D03*
X127546582Y-121502842D03*
X114083746Y-121338314D03*
X125633164Y-126122239D03*
%TD*%
D14*
%TO.C,S6*%
X158832569Y-72917476D03*
X162276720Y-81232393D03*
D15*
X153823688Y-77157006D03*
X165373106Y-72373081D03*
X155737106Y-81776404D03*
X167286524Y-76992478D03*
%TD*%
D14*
%TO.C,S34*%
X189640918Y-109405085D03*
X193085069Y-117720002D03*
D15*
X184632037Y-113644615D03*
X196181455Y-108860690D03*
X186545455Y-118264013D03*
X198094873Y-113480087D03*
%TD*%
D14*
%TO.C,S13*%
X108646171Y-65128578D03*
X106316799Y-73821910D03*
D15*
X102091498Y-65442811D03*
X114166535Y-68678307D03*
X100797402Y-70272439D03*
X112872440Y-73507936D03*
%TD*%
D14*
%TO.C,S16*%
X163807453Y-84927910D03*
X167251604Y-93242827D03*
D15*
X158798572Y-89167440D03*
X170347990Y-84383515D03*
X160711990Y-93786838D03*
X172261408Y-89002912D03*
%TD*%
%TO.C,S4*%
X129649007Y-78536810D03*
X118099589Y-73752885D03*
X131562425Y-73917413D03*
X120013007Y-69133487D03*
D14*
X123108470Y-77992415D03*
X126552621Y-69677498D03*
%TD*%
%TO.C,S29*%
X213161060Y-90837338D03*
X211986326Y-81914334D03*
D15*
X206050848Y-84713013D03*
X218444900Y-83081304D03*
X206703479Y-89670237D03*
X219097531Y-88038528D03*
%TD*%
D14*
%TO.C,S33*%
X177201373Y-117263694D03*
X180645524Y-125578611D03*
D15*
X172192492Y-121503224D03*
X183741910Y-116719299D03*
X174105910Y-126122622D03*
X185655328Y-121338696D03*
%TD*%
D14*
%TO.C,S24*%
X116602850Y-93698366D03*
X113158699Y-102013283D03*
D15*
X110063236Y-93154355D03*
X121612654Y-97938281D03*
X108149818Y-97773753D03*
X119699236Y-102557678D03*
%TD*%
D16*
%TO.C,J1*%
X146980000Y-64917500D03*
X152760000Y-64917500D03*
D17*
X145550000Y-61267500D03*
D18*
X145550000Y-65447500D03*
D17*
X154190000Y-61267500D03*
D18*
X154190000Y-65447500D03*
%TD*%
D19*
%TO.C,J3*%
X149870000Y-112857500D03*
X148854000Y-107777500D03*
X150886000Y-107777500D03*
%TD*%
%LPD*%
M02*
