M48
; DRILL file {KiCad 8.0.8-8.0.8-0~ubuntu22.04.1} date 2025-02-01T01:24:59+0000
; FORMAT={-:-/ absolute / inch / decimal}
; #@! TF.CreationDate,2025-02-01T01:24:59+00:00
; #@! TF.GenerationSoftware,Kicad,Pcbnew,8.0.8-8.0.8-0~ubuntu22.04.1
; #@! TF.FileFunction,Plated,1,2,PTH
FMAT,2
INCH
; #@! TA.AperFunction,Plated,PTH,ViaDrill
T1C0.0118
; #@! TA.AperFunction,Plated,PTH,ComponentDrill
T2C0.0236
; #@! TA.AperFunction,Plated,PTH,ComponentDrill
T3C0.0512
%
G90
G05
T1
X2.8134Y-2.5815
X2.8134Y-3.0924
X2.8134Y-3.6051
X3.4384Y-3.3499
X3.5052Y-2.8424
X3.572Y-2.335
X4.1116Y-3.1838
X4.2448Y-2.6858
X4.2864Y-4.4237
X4.3773Y-2.1914
X4.5425Y-3.8053
X4.7383Y-3.3325
X4.7761Y-4.7331
X4.9342Y-2.8596
X5.1076Y-3.9328
X5.2008Y-2.7426
X5.2953Y-2.748
X5.3051Y-3.4583
X5.3858Y-2.3622
X5.3858Y-2.748
X5.4993Y-2.9871
X5.5Y-2.7677
X5.6102Y-2.7677
X5.6102Y-2.4803
X5.6248Y-3.6409
X5.6252Y-3.5858
X5.6299Y-4.1772
X5.6299Y-4.5118
X5.646Y-3.6646
X5.6487Y-3.7138
X5.649Y-3.6173
X5.6499Y-3.746
X5.6573Y-3.7774
X5.6684Y-3.3688
X5.6684Y-3.4082
X5.6684Y-3.4475
X5.6684Y-3.4869
X5.6684Y-3.5721
X5.6779Y-3.8012
X5.7035Y-4.5118
X5.7059Y-3.8291
X5.7469Y-2.7111
X5.7653Y-3.3688
X5.7823Y-3.8575
X5.7857Y-3.546
X5.7875Y-3.4017
X5.7913Y-3.7429
X5.8039Y-2.6613
X5.8118Y-3.4217
X5.8118Y-3.9248
X5.836Y-4.2932
X5.836Y-4.3932
X5.8433Y-3.4142
X5.8512Y-3.9248
X5.8709Y-3.7492
X5.8745Y-3.3995
X5.902Y-3.4169
X5.9201Y-2.7656
X5.9201Y-2.9733
X5.9648Y-4.3432
X5.9648Y-4.3932
X5.989Y-3.5199
X5.9969Y-2.6609
X6.0087Y-3.8575
X6.0151Y-3.7231
X6.0236Y-4.1772
X6.0236Y-4.5118
X6.0335Y-3.9276
X6.0441Y-3.4012
X6.0665Y-3.7795
X6.0665Y-3.8189
X6.0669Y-4.5394
X6.0728Y-3.9276
X6.0736Y-2.7111
X6.0835Y-3.4004
X6.1099Y-3.4696
X6.1325Y-3.6588
X6.1339Y-3.6247
X6.1346Y-3.5862
X6.135Y-3.5472
X6.1829Y-3.836
X6.2102Y-3.8642
X6.3015Y-2.9872
X6.4973Y-3.46
X6.6932Y-3.9329
X6.8665Y-2.8596
X7.0246Y-4.7331
X7.0624Y-3.3325
X7.2583Y-3.8053
X7.4234Y-2.1915
X7.5144Y-4.4237
X7.5559Y-2.6858
X7.6884Y-3.1802
X8.2288Y-2.335
X8.2956Y-2.8424
X8.3624Y-3.3499
X8.9874Y-3.6051
X8.9874Y-2.5815
X8.9874Y-3.0933
T3
X2.5673Y-2.5343
X2.5673Y-2.7311
X2.5673Y-3.0461
X2.5673Y-3.2429
X2.5673Y-3.5579
X2.5673Y-3.7547
X3.0594Y-2.5343
X3.0594Y-3.0461
X3.0594Y-2.7311
X3.0594Y-3.2429
X3.0594Y-3.5579
X3.0594Y-3.7547
X3.1749Y-3.4661
X3.2006Y-3.2709
X3.2417Y-2.9586
X3.2674Y-2.7635
X3.3085Y-2.4512
X3.3342Y-2.256
X3.6628Y-3.5303
X3.6885Y-3.3352
X3.7296Y-3.0229
X3.7553Y-2.8277
X3.7964Y-2.5155
X3.8221Y-2.3203
X3.8359Y-3.261
X3.8869Y-3.0709
X3.9684Y-2.7666
X4.0017Y-4.4677
X4.0194Y-2.5765
X4.0771Y-4.2858
X4.1009Y-2.2723
X4.1518Y-2.0821
X4.2579Y-3.8494
X4.3113Y-3.3884
X4.3332Y-3.6675
X4.3623Y-3.1982
X4.4438Y-2.894
X4.4537Y-3.3765
X4.4564Y-4.656
X4.4915Y-4.7771
X4.4947Y-2.7039
X4.5291Y-3.1946
X4.5318Y-4.4742
X4.5668Y-4.5952
X4.5763Y-2.3996
X4.6272Y-2.2095
X4.6496Y-2.9037
X4.7126Y-4.0377
X4.7249Y-2.7218
X4.7879Y-3.8558
X4.8229Y-3.9769
X4.8983Y-3.795
X4.9084Y-3.5649
X4.9462Y-4.9654
X4.9838Y-3.383
X5.0188Y-3.504
X5.0215Y-4.7836
X5.0941Y-3.3222
X5.1043Y-3.092
X5.1796Y-2.9101
X5.2147Y-3.0312
X5.2776Y-4.1652
X5.29Y-2.8493
X5.353Y-3.9834
X5.4735Y-3.6924
X5.5488Y-3.5105
X5.6694Y-3.2195
X5.7447Y-3.0377
X6.0561Y-3.0377
X6.1314Y-3.2195
X6.2519Y-3.5105
X6.3272Y-3.6924
X6.4478Y-3.9834
X6.5108Y-2.8493
X6.5231Y-4.1652
X6.5861Y-3.0312
X6.6211Y-2.9101
X6.6965Y-3.092
X6.7066Y-3.3222
X6.7792Y-4.7836
X6.7819Y-3.5041
X6.817Y-3.383
X6.8546Y-4.9655
X6.8923Y-3.5649
X6.9025Y-3.795
X6.9778Y-3.9769
X7.0129Y-3.8559
X7.0758Y-2.7218
X7.0882Y-4.0377
X7.1512Y-2.9037
X7.1735Y-2.2095
X7.2245Y-2.3997
X7.2339Y-4.5952
X7.269Y-4.4742
X7.2717Y-3.1947
X7.306Y-2.7039
X7.3093Y-4.7771
X7.3443Y-4.6561
X7.347Y-3.3765
X7.357Y-2.894
X7.4385Y-3.1983
X7.4676Y-3.6675
X7.4894Y-3.3884
X7.5429Y-3.8494
X7.6489Y-2.0821
X7.6999Y-2.2723
X7.7237Y-4.2859
X7.7814Y-2.5765
X7.799Y-4.4677
X7.8323Y-2.7666
X7.9139Y-3.0709
X7.9648Y-3.261
X7.9786Y-2.3203
X8.0043Y-2.5155
X8.0454Y-2.8277
X8.0711Y-3.0229
X8.1122Y-3.3352
X8.1379Y-3.5303
X8.4666Y-2.2561
X8.4923Y-2.4512
X8.5334Y-2.7635
X8.5591Y-2.9587
X8.6002Y-3.2709
X8.6259Y-3.4661
X8.7413Y-3.5579
X8.7413Y-3.7547
X8.7413Y-2.5343
X8.7413Y-2.7311
X8.7413Y-3.0461
X8.7413Y-3.2429
X9.2335Y-3.5579
X9.2335Y-3.7547
X9.2335Y-2.5343
X9.2335Y-2.7311
X9.2335Y-3.0461
X9.2335Y-3.2429
T2
G00X5.7303Y-2.4003
M15
G01X5.7303Y-2.4239
M16
G05
G00X5.7303Y-2.555
M15
G01X5.7303Y-2.5983
M16
G05
G00X6.0705Y-2.4003
M15
G01X6.0705Y-2.4239
M16
G05
G00X6.0705Y-2.555
M15
G01X6.0705Y-2.5983
M16
G05
M30
