%TF.GenerationSoftware,KiCad,Pcbnew,8.0.7-8.0.7-0~ubuntu22.04.1*%
%TF.CreationDate,2025-01-04T18:43:15+00:00*%
%TF.ProjectId,minikeeb,6d696e69-6b65-4656-922e-6b696361645f,rev?*%
%TF.SameCoordinates,Original*%
%TF.FileFunction,Soldermask,Bot*%
%TF.FilePolarity,Negative*%
%FSLAX46Y46*%
G04 Gerber Fmt 4.6, Leading zero omitted, Abs format (unit mm)*
G04 Created by KiCad (PCBNEW 8.0.7-8.0.7-0~ubuntu22.04.1) date 2025-01-04 18:43:15*
%MOMM*%
%LPD*%
G01*
G04 APERTURE LIST*
%ADD10C,1.800000*%
%ADD11C,1.950000*%
%ADD12O,2.500000X1.500000*%
%ADD13O,1.500000X2.500000*%
G04 APERTURE END LIST*
D10*
%TO.C,S33*%
X182362658Y-107842042D03*
X186862658Y-115636270D03*
D11*
X177949999Y-112699092D03*
X188776183Y-106448592D03*
X180449999Y-117029220D03*
X191276183Y-110778720D03*
%TD*%
D10*
%TO.C,S21*%
X74908156Y-68796313D03*
X70408156Y-76590541D03*
D11*
X68495497Y-67403363D03*
X79321681Y-73653863D03*
X65995497Y-71733491D03*
X76821681Y-77983991D03*
%TD*%
D10*
%TO.C,S27*%
X185386533Y-83579546D03*
X189886533Y-91373774D03*
D11*
X180973874Y-88436596D03*
X191800058Y-82186096D03*
X183473874Y-92766724D03*
X194300058Y-86516224D03*
%TD*%
D10*
%TO.C,S1*%
X87908156Y-46279652D03*
X83408156Y-54073880D03*
D11*
X81495497Y-44886702D03*
X92321681Y-51137202D03*
X78995497Y-49216830D03*
X89821681Y-55467330D03*
%TD*%
D10*
%TO.C,S28*%
X194219446Y-66378600D03*
X198719446Y-74172828D03*
D11*
X189806787Y-71235650D03*
X200632971Y-64985150D03*
X192306787Y-75565778D03*
X203132971Y-69315278D03*
%TD*%
D10*
%TO.C,S9*%
X200531493Y-44813386D03*
X205031493Y-52607614D03*
D11*
X196118834Y-49670436D03*
X206945018Y-43419936D03*
X198618834Y-54000564D03*
X209445018Y-47750064D03*
%TD*%
D10*
%TO.C,S5*%
X146036476Y-70602449D03*
X141536476Y-78396677D03*
D11*
X139623817Y-69209499D03*
X150450001Y-75459999D03*
X137123817Y-73539627D03*
X147950001Y-79790127D03*
%TD*%
D10*
%TO.C,S2*%
X106365909Y-44811886D03*
X101865909Y-52606114D03*
D11*
X99953250Y-43418936D03*
X110779434Y-49669436D03*
X97453250Y-47749064D03*
X108279434Y-53999564D03*
%TD*%
D10*
%TO.C,S14*%
X128013467Y-72321216D03*
X123513467Y-80115444D03*
D11*
X121600808Y-70928266D03*
X132426992Y-77178766D03*
X119100808Y-75258394D03*
X129926992Y-81508894D03*
%TD*%
D10*
%TO.C,S6*%
X160862658Y-70602949D03*
X165362658Y-78397177D03*
D11*
X156449999Y-75459999D03*
X167276183Y-69209499D03*
X158949999Y-79790127D03*
X169776183Y-73539627D03*
%TD*%
D10*
%TO.C,S4*%
X134512601Y-61062386D03*
X130012601Y-68856614D03*
D11*
X128099942Y-59669436D03*
X138926126Y-65919936D03*
X125599942Y-63999564D03*
X136426126Y-70250064D03*
%TD*%
D10*
%TO.C,S3*%
X125693822Y-43834959D03*
X121193822Y-51629187D03*
D11*
X119281163Y-42442009D03*
X130107347Y-48692509D03*
X116781163Y-46772137D03*
X127607347Y-53022637D03*
%TD*%
D10*
%TO.C,S31*%
X113011735Y-98300978D03*
X108511735Y-106095206D03*
D11*
X106599076Y-96908028D03*
X117425260Y-103158528D03*
X104099076Y-101238156D03*
X114925260Y-107488656D03*
%TD*%
D12*
%TO.C,U1*%
X161570000Y-45250000D03*
X161570000Y-47790000D03*
X161570000Y-50330000D03*
X161570000Y-52870000D03*
X161570000Y-55410000D03*
X161570000Y-57950000D03*
X161570000Y-60490000D03*
X161570000Y-63030000D03*
X161570000Y-65570000D03*
D13*
X158530000Y-66070000D03*
X155990000Y-66070000D03*
X153450000Y-66070000D03*
X150910000Y-66070000D03*
X148370000Y-66070000D03*
D12*
X145330000Y-65570000D03*
X145330000Y-63030000D03*
X145330000Y-60490000D03*
X145330000Y-57950000D03*
X145330000Y-55410000D03*
X145330000Y-52870000D03*
X145330000Y-50330000D03*
X145330000Y-47790000D03*
X145330000Y-45250000D03*
%TD*%
D10*
%TO.C,S17*%
X178885667Y-72321716D03*
X183385667Y-80115944D03*
D11*
X174473008Y-77178766D03*
X185299192Y-70928266D03*
X176973008Y-81508894D03*
X187799192Y-75258394D03*
%TD*%
D10*
%TO.C,S15*%
X139536476Y-81860779D03*
X135036476Y-89655007D03*
D11*
X133123817Y-80467829D03*
X143950001Y-86718329D03*
X130623817Y-84797957D03*
X141450001Y-91048457D03*
%TD*%
D10*
%TO.C,S8*%
X181208580Y-43845119D03*
X185708580Y-51639347D03*
D11*
X176795921Y-48702169D03*
X187622105Y-42451669D03*
X179295921Y-53032297D03*
X190122105Y-46781797D03*
%TD*%
D10*
%TO.C,S22*%
X93366775Y-67329046D03*
X88866775Y-75123274D03*
D11*
X86954116Y-65936096D03*
X97780300Y-72186596D03*
X84454116Y-70266224D03*
X95280300Y-76516724D03*
%TD*%
D10*
%TO.C,S16*%
X167362658Y-81861280D03*
X171862658Y-89655508D03*
D11*
X162949999Y-86718330D03*
X173776183Y-80467830D03*
X165449999Y-91048458D03*
X176276183Y-84797958D03*
%TD*%
D10*
%TO.C,S13*%
X119188822Y-55101949D03*
X114688822Y-62896177D03*
D11*
X112776163Y-53708999D03*
X123602347Y-59959499D03*
X110276163Y-58039127D03*
X121102347Y-64289627D03*
%TD*%
D10*
%TO.C,S10*%
X218988380Y-46281653D03*
X223488380Y-54075881D03*
D11*
X214575721Y-51138703D03*
X225401905Y-44888203D03*
X217075721Y-55468831D03*
X227901905Y-49218331D03*
%TD*%
D10*
%TO.C,S34*%
X193886533Y-98301978D03*
X198386533Y-106096206D03*
D11*
X189473874Y-103159028D03*
X200300058Y-96908528D03*
X191973874Y-107489156D03*
X202800058Y-101238656D03*
%TD*%
D10*
%TO.C,S30*%
X231988380Y-68798313D03*
X236488380Y-76592541D03*
D11*
X227575721Y-73655363D03*
X238401905Y-67404863D03*
X230075721Y-77985491D03*
X240901905Y-71734991D03*
%TD*%
D10*
%TO.C,S25*%
X133036476Y-93119110D03*
X128536476Y-100913338D03*
D11*
X126623817Y-91726160D03*
X137450001Y-97976660D03*
X124123817Y-96056288D03*
X134950001Y-102306788D03*
%TD*%
D10*
%TO.C,S12*%
X99865909Y-56070216D03*
X95365909Y-63864444D03*
D11*
X93453250Y-54677266D03*
X104279434Y-60927766D03*
X90953250Y-59007394D03*
X101779434Y-65257894D03*
%TD*%
D10*
%TO.C,S32*%
X124536476Y-107841541D03*
X120036476Y-115635769D03*
D11*
X118123817Y-106448591D03*
X128950001Y-112699091D03*
X115623817Y-110778719D03*
X126450001Y-117029219D03*
%TD*%
D10*
%TO.C,S23*%
X112688822Y-66360279D03*
X108188822Y-74154507D03*
D11*
X106276163Y-64967329D03*
X117102347Y-71217829D03*
X103776163Y-69297457D03*
X114602347Y-75547957D03*
%TD*%
D10*
%TO.C,S11*%
X81408156Y-57537983D03*
X76908156Y-65332211D03*
D11*
X74995497Y-56145033D03*
X85821681Y-62395533D03*
X72495497Y-60475161D03*
X83321681Y-66725661D03*
%TD*%
D10*
%TO.C,S19*%
X207032359Y-56071216D03*
X211532359Y-63865444D03*
D11*
X202619700Y-60928266D03*
X213445884Y-54677766D03*
X205119700Y-65258394D03*
X215945884Y-59007894D03*
%TD*%
D10*
%TO.C,S24*%
X121513467Y-83579546D03*
X117013467Y-91373774D03*
D11*
X115100808Y-82186596D03*
X125926992Y-88437096D03*
X112600808Y-86516724D03*
X123426992Y-92767224D03*
%TD*%
D10*
%TO.C,S20*%
X225489246Y-57539483D03*
X229989246Y-65333711D03*
D11*
X221076587Y-62396533D03*
X231902771Y-56146033D03*
X223576587Y-66726661D03*
X234402771Y-60476161D03*
%TD*%
D10*
%TO.C,S18*%
X187709446Y-55102949D03*
X192209446Y-62897177D03*
D11*
X183296787Y-59959999D03*
X194122971Y-53709499D03*
X185796787Y-64290127D03*
X196622971Y-58039627D03*
%TD*%
D10*
%TO.C,S7*%
X172385667Y-61063386D03*
X176885667Y-68857614D03*
D11*
X167973008Y-65920436D03*
X178799192Y-59669936D03*
X170473008Y-70250564D03*
X181299192Y-64000064D03*
%TD*%
D10*
%TO.C,S26*%
X173862658Y-93119610D03*
X178362658Y-100913838D03*
D11*
X169449999Y-97976660D03*
X180276183Y-91726160D03*
X171949999Y-102306788D03*
X182776183Y-96056288D03*
%TD*%
D10*
%TO.C,S29*%
X213532359Y-67329546D03*
X218032359Y-75123774D03*
D11*
X209119700Y-72186596D03*
X219945884Y-65936096D03*
X211619700Y-76516724D03*
X222445884Y-70266224D03*
%TD*%
M02*
