M48
; DRILL file {KiCad 8.0.7-8.0.7-0~ubuntu22.04.1} date 2025-01-04T18:43:19+0000
; FORMAT={-:-/ absolute / inch / decimal}
; #@! TF.CreationDate,2025-01-04T18:43:19+00:00
; #@! TF.GenerationSoftware,Kicad,Pcbnew,8.0.7-8.0.7-0~ubuntu22.04.1
; #@! TF.FileFunction,NonPlated,1,2,NPTH
FMAT,2
INCH
; #@! TA.AperFunction,NonPlated,NPTH,ComponentDrill
T1C0.0709
%
G90
G05
T1
X2.772Y-3.0154
X2.9491Y-2.7085
X3.0279Y-2.5721
X3.205Y-2.2653
X3.2838Y-2.1289
X3.461Y-1.822
X3.4987Y-2.9576
X3.6759Y-2.6507
X3.7546Y-2.5143
X3.9317Y-2.2075
X4.0105Y-2.0711
X4.1876Y-1.7642
X4.2594Y-2.9195
X4.2721Y-4.177
X4.4366Y-2.6126
X4.4493Y-3.8701
X4.5153Y-2.4762
X4.6068Y-3.5974
X4.6925Y-2.1694
X4.7258Y-4.5526
X4.7714Y-2.0326
X4.784Y-3.2905
X4.8627Y-3.1542
X4.903Y-4.2457
X4.9486Y-1.7258
X5.0399Y-2.8473
X5.0605Y-3.973
X5.1186Y-2.7109
X5.2377Y-3.6661
X5.2958Y-2.404
X5.3164Y-3.5297
X5.4936Y-3.2229
X5.5723Y-3.0865
X5.7495Y-2.7796
X6.3332Y-2.7796
X6.5103Y-3.0865
X6.5891Y-3.2229
X6.7662Y-3.5297
X6.7868Y-2.4041
X6.845Y-3.6661
X6.964Y-2.7109
X7.0222Y-3.973
X7.0427Y-2.8473
X7.1342Y-1.7262
X7.1796Y-4.2457
X7.2199Y-3.1542
X7.2987Y-3.2905
X7.3114Y-2.033
X7.3568Y-4.5526
X7.3901Y-2.1694
X7.4758Y-3.5974
X7.5673Y-2.4763
X7.6333Y-3.8702
X7.6464Y-2.6133
X7.8105Y-4.177
X7.8236Y-2.9202
X7.8949Y-1.7643
X8.0721Y-2.0712
X8.1509Y-2.2075
X8.328Y-2.5144
X8.4068Y-2.6508
X8.584Y-2.9576
X8.6216Y-1.8221
X8.7988Y-2.129
X8.8775Y-2.2653
X9.0547Y-2.5722
X9.1334Y-2.7086
X9.3106Y-3.0155
M30
