%TF.GenerationSoftware,KiCad,Pcbnew,8.0.7-8.0.7-0~ubuntu22.04.1*%
%TF.CreationDate,2025-01-04T18:43:15+00:00*%
%TF.ProjectId,minikeeb,6d696e69-6b65-4656-922e-6b696361645f,rev?*%
%TF.SameCoordinates,Original*%
%TF.FileFunction,Copper,L2,Bot*%
%TF.FilePolarity,Positive*%
%FSLAX46Y46*%
G04 Gerber Fmt 4.6, Leading zero omitted, Abs format (unit mm)*
G04 Created by KiCad (PCBNEW 8.0.7-8.0.7-0~ubuntu22.04.1) date 2025-01-04 18:43:15*
%MOMM*%
%LPD*%
G01*
G04 APERTURE LIST*
%TA.AperFunction,ComponentPad*%
%ADD10C,1.950000*%
%TD*%
%TA.AperFunction,ComponentPad*%
%ADD11O,2.500000X1.500000*%
%TD*%
%TA.AperFunction,ComponentPad*%
%ADD12O,1.500000X2.500000*%
%TD*%
%TA.AperFunction,Conductor*%
%ADD13C,0.200000*%
%TD*%
G04 APERTURE END LIST*
D10*
%TO.P,S33,1,NO_1*%
%TO.N,COL-14*%
X177949999Y-112699092D03*
%TO.P,S33,2,NO_2*%
%TO.N,unconnected-(S33-NO_2-Pad2)*%
X188776183Y-106448592D03*
%TO.P,S33,3,NO_3*%
%TO.N,unconnected-(S33-NO_3-Pad3)*%
X180449999Y-117029220D03*
%TO.P,S33,4,NO_4*%
%TO.N,Net-(D33-A)*%
X191276183Y-110778720D03*
%TD*%
%TO.P,S21,1,NO_1*%
%TO.N,unconnected-(S21-NO_1-Pad1)*%
X68495497Y-67403363D03*
%TO.P,S21,2,NO_2*%
%TO.N,COL-00*%
X79321681Y-73653863D03*
%TO.P,S21,3,NO_3*%
%TO.N,Net-(D21-A)*%
X65995497Y-71733491D03*
%TO.P,S21,4,NO_4*%
%TO.N,unconnected-(S21-NO_4-Pad4)*%
X76821681Y-77983991D03*
%TD*%
%TO.P,S27,1,NO_1*%
%TO.N,COL-13*%
X180973874Y-88436596D03*
%TO.P,S27,2,NO_2*%
%TO.N,unconnected-(S27-NO_2-Pad2)*%
X191800058Y-82186096D03*
%TO.P,S27,3,NO_3*%
%TO.N,unconnected-(S27-NO_3-Pad3)*%
X183473874Y-92766724D03*
%TO.P,S27,4,NO_4*%
%TO.N,Net-(D27-A)*%
X194300058Y-86516224D03*
%TD*%
%TO.P,S1,1,NO_1*%
%TO.N,unconnected-(S1-NO_1-Pad1)*%
X81495497Y-44886702D03*
%TO.P,S1,2,NO_2*%
%TO.N,COL-00*%
X92321681Y-51137202D03*
%TO.P,S1,3,NO_3*%
%TO.N,Net-(D1-A)*%
X78995497Y-49216830D03*
%TO.P,S1,4,NO_4*%
%TO.N,unconnected-(S1-NO_4-Pad4)*%
X89821681Y-55467330D03*
%TD*%
%TO.P,S28,1,NO_1*%
%TO.N,COL-12*%
X189806787Y-71235650D03*
%TO.P,S28,2,NO_2*%
%TO.N,unconnected-(S28-NO_2-Pad2)*%
X200632971Y-64985150D03*
%TO.P,S28,3,NO_3*%
%TO.N,unconnected-(S28-NO_3-Pad3)*%
X192306787Y-75565778D03*
%TO.P,S28,4,NO_4*%
%TO.N,Net-(D28-A)*%
X203132971Y-69315278D03*
%TD*%
%TO.P,S9,1,NO_1*%
%TO.N,COL-11*%
X196118834Y-49670436D03*
%TO.P,S9,2,NO_2*%
%TO.N,unconnected-(S9-NO_2-Pad2)*%
X206945018Y-43419936D03*
%TO.P,S9,3,NO_3*%
%TO.N,unconnected-(S9-NO_3-Pad3)*%
X198618834Y-54000564D03*
%TO.P,S9,4,NO_4*%
%TO.N,Net-(D9-A)*%
X209445018Y-47750064D03*
%TD*%
%TO.P,S5,1,NO_1*%
%TO.N,unconnected-(S5-NO_1-Pad1)*%
X139623817Y-69209499D03*
%TO.P,S5,2,NO_2*%
%TO.N,COL-04*%
X150450001Y-75459999D03*
%TO.P,S5,3,NO_3*%
%TO.N,Net-(D5-A)*%
X137123817Y-73539627D03*
%TO.P,S5,4,NO_4*%
%TO.N,unconnected-(S5-NO_4-Pad4)*%
X147950001Y-79790127D03*
%TD*%
%TO.P,S2,1,NO_1*%
%TO.N,unconnected-(S2-NO_1-Pad1)*%
X99953250Y-43418936D03*
%TO.P,S2,2,NO_2*%
%TO.N,COL-01*%
X110779434Y-49669436D03*
%TO.P,S2,3,NO_3*%
%TO.N,Net-(D2-A)*%
X97453250Y-47749064D03*
%TO.P,S2,4,NO_4*%
%TO.N,unconnected-(S2-NO_4-Pad4)*%
X108279434Y-53999564D03*
%TD*%
%TO.P,S14,1,NO_1*%
%TO.N,unconnected-(S14-NO_1-Pad1)*%
X121600808Y-70928266D03*
%TO.P,S14,2,NO_2*%
%TO.N,COL-03*%
X132426992Y-77178766D03*
%TO.P,S14,3,NO_3*%
%TO.N,Net-(D14-A)*%
X119100808Y-75258394D03*
%TO.P,S14,4,NO_4*%
%TO.N,unconnected-(S14-NO_4-Pad4)*%
X129926992Y-81508894D03*
%TD*%
%TO.P,S6,1,NO_1*%
%TO.N,COL-14*%
X156449999Y-75459999D03*
%TO.P,S6,2,NO_2*%
%TO.N,unconnected-(S6-NO_2-Pad2)*%
X167276183Y-69209499D03*
%TO.P,S6,3,NO_3*%
%TO.N,unconnected-(S6-NO_3-Pad3)*%
X158949999Y-79790127D03*
%TO.P,S6,4,NO_4*%
%TO.N,Net-(D6-A)*%
X169776183Y-73539627D03*
%TD*%
%TO.P,S4,1,NO_1*%
%TO.N,unconnected-(S4-NO_1-Pad1)*%
X128099942Y-59669436D03*
%TO.P,S4,2,NO_2*%
%TO.N,COL-03*%
X138926126Y-65919936D03*
%TO.P,S4,3,NO_3*%
%TO.N,Net-(D4-A)*%
X125599942Y-63999564D03*
%TO.P,S4,4,NO_4*%
%TO.N,unconnected-(S4-NO_4-Pad4)*%
X136426126Y-70250064D03*
%TD*%
%TO.P,S3,1,NO_1*%
%TO.N,unconnected-(S3-NO_1-Pad1)*%
X119281163Y-42442009D03*
%TO.P,S3,2,NO_2*%
%TO.N,COL-02*%
X130107347Y-48692509D03*
%TO.P,S3,3,NO_3*%
%TO.N,Net-(D3-A)*%
X116781163Y-46772137D03*
%TO.P,S3,4,NO_4*%
%TO.N,unconnected-(S3-NO_4-Pad4)*%
X127607347Y-53022637D03*
%TD*%
%TO.P,S31,1,NO_1*%
%TO.N,unconnected-(S31-NO_1-Pad1)*%
X106599076Y-96908028D03*
%TO.P,S31,2,NO_2*%
%TO.N,COL-03*%
X117425260Y-103158528D03*
%TO.P,S31,3,NO_3*%
%TO.N,Net-(D31-A)*%
X104099076Y-101238156D03*
%TO.P,S31,4,NO_4*%
%TO.N,unconnected-(S31-NO_4-Pad4)*%
X114925260Y-107488656D03*
%TD*%
D11*
%TO.P,U1,1,0*%
%TO.N,COL-10*%
X161570000Y-45250000D03*
%TO.P,U1,2,1*%
%TO.N,COL-11*%
X161570000Y-47790000D03*
%TO.P,U1,3,2*%
%TO.N,COL-12*%
X161570000Y-50330000D03*
%TO.P,U1,4,3*%
%TO.N,COL-13*%
X161570000Y-52870000D03*
%TO.P,U1,5,4*%
%TO.N,COL-14*%
X161570000Y-55410000D03*
%TO.P,U1,6,5*%
%TO.N,ROW-10*%
X161570000Y-57950000D03*
%TO.P,U1,7,6*%
%TO.N,ROW-11*%
X161570000Y-60490000D03*
%TO.P,U1,8,7*%
%TO.N,ROW-12*%
X161570000Y-63030000D03*
%TO.P,U1,9,8*%
%TO.N,ROW-13*%
X161570000Y-65570000D03*
D12*
%TO.P,U1,10,9*%
%TO.N,unconnected-(U1-9-Pad10)*%
X158530000Y-66070000D03*
%TO.P,U1,11,10*%
%TO.N,unconnected-(U1-10-Pad11)*%
X155990000Y-66070000D03*
%TO.P,U1,12,11*%
%TO.N,ROW-03*%
X153450000Y-66070000D03*
%TO.P,U1,13,12*%
%TO.N,ROW-02*%
X150910000Y-66070000D03*
%TO.P,U1,14,13*%
%TO.N,ROW-01*%
X148370000Y-66070000D03*
D11*
%TO.P,U1,15,14*%
%TO.N,ROW-00*%
X145330000Y-65570000D03*
%TO.P,U1,16,15*%
%TO.N,COL-04*%
X145330000Y-63030000D03*
%TO.P,U1,17,26*%
%TO.N,COL-03*%
X145330000Y-60490000D03*
%TO.P,U1,18,27*%
%TO.N,COL-02*%
X145330000Y-57950000D03*
%TO.P,U1,19,28*%
%TO.N,COL-01*%
X145330000Y-55410000D03*
%TO.P,U1,20,29*%
%TO.N,COL-00*%
X145330000Y-52870000D03*
%TO.P,U1,21,3V3*%
%TO.N,unconnected-(U1-3V3-Pad21)*%
X145330000Y-50330000D03*
%TO.P,U1,22,GND*%
%TO.N,unconnected-(U1-GND-Pad22)*%
X145330000Y-47790000D03*
%TO.P,U1,23,5V*%
%TO.N,unconnected-(U1-5V-Pad23)*%
X145330000Y-45250000D03*
%TD*%
D10*
%TO.P,S17,1,NO_1*%
%TO.N,COL-13*%
X174473008Y-77178766D03*
%TO.P,S17,2,NO_2*%
%TO.N,unconnected-(S17-NO_2-Pad2)*%
X185299192Y-70928266D03*
%TO.P,S17,3,NO_3*%
%TO.N,unconnected-(S17-NO_3-Pad3)*%
X176973008Y-81508894D03*
%TO.P,S17,4,NO_4*%
%TO.N,Net-(D17-A)*%
X187799192Y-75258394D03*
%TD*%
%TO.P,S15,1,NO_1*%
%TO.N,unconnected-(S15-NO_1-Pad1)*%
X133123817Y-80467829D03*
%TO.P,S15,2,NO_2*%
%TO.N,COL-04*%
X143950001Y-86718329D03*
%TO.P,S15,3,NO_3*%
%TO.N,Net-(D15-A)*%
X130623817Y-84797957D03*
%TO.P,S15,4,NO_4*%
%TO.N,unconnected-(S15-NO_4-Pad4)*%
X141450001Y-91048457D03*
%TD*%
%TO.P,S8,1,NO_1*%
%TO.N,COL-12*%
X176795921Y-48702169D03*
%TO.P,S8,2,NO_2*%
%TO.N,unconnected-(S8-NO_2-Pad2)*%
X187622105Y-42451669D03*
%TO.P,S8,3,NO_3*%
%TO.N,unconnected-(S8-NO_3-Pad3)*%
X179295921Y-53032297D03*
%TO.P,S8,4,NO_4*%
%TO.N,Net-(D8-A)*%
X190122105Y-46781797D03*
%TD*%
%TO.P,S22,1,NO_1*%
%TO.N,unconnected-(S22-NO_1-Pad1)*%
X86954116Y-65936096D03*
%TO.P,S22,2,NO_2*%
%TO.N,COL-01*%
X97780300Y-72186596D03*
%TO.P,S22,3,NO_3*%
%TO.N,Net-(D22-A)*%
X84454116Y-70266224D03*
%TO.P,S22,4,NO_4*%
%TO.N,unconnected-(S22-NO_4-Pad4)*%
X95280300Y-76516724D03*
%TD*%
%TO.P,S16,1,NO_1*%
%TO.N,COL-14*%
X162949999Y-86718330D03*
%TO.P,S16,2,NO_2*%
%TO.N,unconnected-(S16-NO_2-Pad2)*%
X173776183Y-80467830D03*
%TO.P,S16,3,NO_3*%
%TO.N,unconnected-(S16-NO_3-Pad3)*%
X165449999Y-91048458D03*
%TO.P,S16,4,NO_4*%
%TO.N,Net-(D16-A)*%
X176276183Y-84797958D03*
%TD*%
%TO.P,S13,1,NO_1*%
%TO.N,unconnected-(S13-NO_1-Pad1)*%
X112776163Y-53708999D03*
%TO.P,S13,2,NO_2*%
%TO.N,COL-02*%
X123602347Y-59959499D03*
%TO.P,S13,3,NO_3*%
%TO.N,Net-(D13-A)*%
X110276163Y-58039127D03*
%TO.P,S13,4,NO_4*%
%TO.N,unconnected-(S13-NO_4-Pad4)*%
X121102347Y-64289627D03*
%TD*%
%TO.P,S10,1,NO_1*%
%TO.N,COL-10*%
X214575721Y-51138703D03*
%TO.P,S10,2,NO_2*%
%TO.N,unconnected-(S10-NO_2-Pad2)*%
X225401905Y-44888203D03*
%TO.P,S10,3,NO_3*%
%TO.N,unconnected-(S10-NO_3-Pad3)*%
X217075721Y-55468831D03*
%TO.P,S10,4,NO_4*%
%TO.N,Net-(D10-A)*%
X227901905Y-49218331D03*
%TD*%
%TO.P,S34,1,NO_1*%
%TO.N,COL-13*%
X189473874Y-103159028D03*
%TO.P,S34,2,NO_2*%
%TO.N,unconnected-(S34-NO_2-Pad2)*%
X200300058Y-96908528D03*
%TO.P,S34,3,NO_3*%
%TO.N,unconnected-(S34-NO_3-Pad3)*%
X191973874Y-107489156D03*
%TO.P,S34,4,NO_4*%
%TO.N,Net-(D34-A)*%
X202800058Y-101238656D03*
%TD*%
%TO.P,S30,1,NO_1*%
%TO.N,COL-10*%
X227575721Y-73655363D03*
%TO.P,S30,2,NO_2*%
%TO.N,unconnected-(S30-NO_2-Pad2)*%
X238401905Y-67404863D03*
%TO.P,S30,3,NO_3*%
%TO.N,unconnected-(S30-NO_3-Pad3)*%
X230075721Y-77985491D03*
%TO.P,S30,4,NO_4*%
%TO.N,Net-(D30-A)*%
X240901905Y-71734991D03*
%TD*%
%TO.P,S25,1,NO_1*%
%TO.N,unconnected-(S25-NO_1-Pad1)*%
X126623817Y-91726160D03*
%TO.P,S25,2,NO_2*%
%TO.N,COL-04*%
X137450001Y-97976660D03*
%TO.P,S25,3,NO_3*%
%TO.N,Net-(D25-A)*%
X124123817Y-96056288D03*
%TO.P,S25,4,NO_4*%
%TO.N,unconnected-(S25-NO_4-Pad4)*%
X134950001Y-102306788D03*
%TD*%
%TO.P,S12,1,NO_1*%
%TO.N,unconnected-(S12-NO_1-Pad1)*%
X93453250Y-54677266D03*
%TO.P,S12,2,NO_2*%
%TO.N,COL-01*%
X104279434Y-60927766D03*
%TO.P,S12,3,NO_3*%
%TO.N,Net-(D12-A)*%
X90953250Y-59007394D03*
%TO.P,S12,4,NO_4*%
%TO.N,unconnected-(S12-NO_4-Pad4)*%
X101779434Y-65257894D03*
%TD*%
%TO.P,S32,1,NO_1*%
%TO.N,unconnected-(S32-NO_1-Pad1)*%
X118123817Y-106448591D03*
%TO.P,S32,2,NO_2*%
%TO.N,COL-04*%
X128950001Y-112699091D03*
%TO.P,S32,3,NO_3*%
%TO.N,Net-(D32-A)*%
X115623817Y-110778719D03*
%TO.P,S32,4,NO_4*%
%TO.N,unconnected-(S32-NO_4-Pad4)*%
X126450001Y-117029219D03*
%TD*%
%TO.P,S23,1,NO_1*%
%TO.N,unconnected-(S23-NO_1-Pad1)*%
X106276163Y-64967329D03*
%TO.P,S23,2,NO_2*%
%TO.N,COL-02*%
X117102347Y-71217829D03*
%TO.P,S23,3,NO_3*%
%TO.N,Net-(D23-A)*%
X103776163Y-69297457D03*
%TO.P,S23,4,NO_4*%
%TO.N,unconnected-(S23-NO_4-Pad4)*%
X114602347Y-75547957D03*
%TD*%
%TO.P,S11,1,NO_1*%
%TO.N,unconnected-(S11-NO_1-Pad1)*%
X74995497Y-56145033D03*
%TO.P,S11,2,NO_2*%
%TO.N,COL-00*%
X85821681Y-62395533D03*
%TO.P,S11,3,NO_3*%
%TO.N,Net-(D11-A)*%
X72495497Y-60475161D03*
%TO.P,S11,4,NO_4*%
%TO.N,unconnected-(S11-NO_4-Pad4)*%
X83321681Y-66725661D03*
%TD*%
%TO.P,S19,1,NO_1*%
%TO.N,COL-11*%
X202619700Y-60928266D03*
%TO.P,S19,2,NO_2*%
%TO.N,unconnected-(S19-NO_2-Pad2)*%
X213445884Y-54677766D03*
%TO.P,S19,3,NO_3*%
%TO.N,unconnected-(S19-NO_3-Pad3)*%
X205119700Y-65258394D03*
%TO.P,S19,4,NO_4*%
%TO.N,Net-(D19-A)*%
X215945884Y-59007894D03*
%TD*%
%TO.P,S24,1,NO_1*%
%TO.N,unconnected-(S24-NO_1-Pad1)*%
X115100808Y-82186596D03*
%TO.P,S24,2,NO_2*%
%TO.N,COL-03*%
X125926992Y-88437096D03*
%TO.P,S24,3,NO_3*%
%TO.N,Net-(D24-A)*%
X112600808Y-86516724D03*
%TO.P,S24,4,NO_4*%
%TO.N,unconnected-(S24-NO_4-Pad4)*%
X123426992Y-92767224D03*
%TD*%
%TO.P,S20,1,NO_1*%
%TO.N,COL-10*%
X221076587Y-62396533D03*
%TO.P,S20,2,NO_2*%
%TO.N,unconnected-(S20-NO_2-Pad2)*%
X231902771Y-56146033D03*
%TO.P,S20,3,NO_3*%
%TO.N,unconnected-(S20-NO_3-Pad3)*%
X223576587Y-66726661D03*
%TO.P,S20,4,NO_4*%
%TO.N,Net-(D20-A)*%
X234402771Y-60476161D03*
%TD*%
%TO.P,S18,1,NO_1*%
%TO.N,COL-12*%
X183296787Y-59959999D03*
%TO.P,S18,2,NO_2*%
%TO.N,unconnected-(S18-NO_2-Pad2)*%
X194122971Y-53709499D03*
%TO.P,S18,3,NO_3*%
%TO.N,unconnected-(S18-NO_3-Pad3)*%
X185796787Y-64290127D03*
%TO.P,S18,4,NO_4*%
%TO.N,Net-(D18-A)*%
X196622971Y-58039627D03*
%TD*%
%TO.P,S7,1,NO_1*%
%TO.N,COL-13*%
X167973008Y-65920436D03*
%TO.P,S7,2,NO_2*%
%TO.N,unconnected-(S7-NO_2-Pad2)*%
X178799192Y-59669936D03*
%TO.P,S7,3,NO_3*%
%TO.N,unconnected-(S7-NO_3-Pad3)*%
X170473008Y-70250564D03*
%TO.P,S7,4,NO_4*%
%TO.N,Net-(D7-A)*%
X181299192Y-64000064D03*
%TD*%
%TO.P,S26,1,NO_1*%
%TO.N,COL-14*%
X169449999Y-97976660D03*
%TO.P,S26,2,NO_2*%
%TO.N,unconnected-(S26-NO_2-Pad2)*%
X180276183Y-91726160D03*
%TO.P,S26,3,NO_3*%
%TO.N,unconnected-(S26-NO_3-Pad3)*%
X171949999Y-102306788D03*
%TO.P,S26,4,NO_4*%
%TO.N,Net-(D26-A)*%
X182776183Y-96056288D03*
%TD*%
%TO.P,S29,1,NO_1*%
%TO.N,COL-11*%
X209119700Y-72186596D03*
%TO.P,S29,2,NO_2*%
%TO.N,unconnected-(S29-NO_2-Pad2)*%
X219945884Y-65936096D03*
%TO.P,S29,3,NO_3*%
%TO.N,unconnected-(S29-NO_3-Pad3)*%
X211619700Y-76516724D03*
%TO.P,S29,4,NO_4*%
%TO.N,Net-(D29-A)*%
X222445884Y-70266224D03*
%TD*%
D13*
%TO.N,COL-00*%
X90579998Y-51603885D02*
X85354998Y-60653851D01*
X84079998Y-62862215D02*
X78854998Y-71912181D01*
X112672863Y-45497137D02*
X138457137Y-45497137D01*
X138457137Y-45497137D02*
X145830000Y-52870000D01*
X107032798Y-51137202D02*
X112672863Y-45497137D01*
X92321681Y-51137202D02*
X107032798Y-51137202D01*
X92321681Y-51137203D02*
X90579998Y-51603885D01*
X85354998Y-60653851D02*
X85821681Y-62395533D01*
X85821681Y-62395533D02*
X84079998Y-62862215D01*
X78854998Y-71912181D02*
X79321681Y-73653863D01*
%TO.N,COL-01*%
X103812752Y-59186084D02*
X104279434Y-60927766D01*
X97780300Y-72186597D02*
X97313252Y-70443548D01*
X110779434Y-49669436D02*
X109037752Y-50136118D01*
X110779434Y-49669436D02*
X111754434Y-48694436D01*
X111754434Y-48694436D02*
X127915564Y-48694436D01*
X97313252Y-70443548D02*
X102537752Y-61394449D01*
X102537752Y-61394449D02*
X104279434Y-60927766D01*
X109037752Y-50136118D02*
X103812752Y-59186084D01*
X127915564Y-48694436D02*
X129340000Y-47270000D01*
X129340000Y-47270000D02*
X137690000Y-47270000D01*
X137690000Y-47270000D02*
X145830000Y-55410000D01*
%TO.N,COL-02*%
X130107347Y-51427347D02*
X138180000Y-59500000D01*
X121860664Y-60426182D02*
X116635664Y-69476147D01*
X116635664Y-69476147D02*
X117102347Y-71217830D01*
X130107347Y-48692509D02*
X127104823Y-49497033D01*
X123602347Y-59959500D02*
X121860664Y-60426182D01*
X144280000Y-59500000D02*
X145830000Y-57950000D01*
X122797823Y-56956976D02*
X123602347Y-59959500D01*
X130107347Y-48692509D02*
X130107347Y-51427347D01*
X138180000Y-59500000D02*
X144280000Y-59500000D01*
X127104823Y-49497033D02*
X122797823Y-56956976D01*
%TO.N,COL-03*%
X138926126Y-65919936D02*
X140400064Y-65919936D01*
X138926126Y-65919936D02*
X137184443Y-66386618D01*
X116959309Y-101419578D02*
X117425260Y-103158528D01*
X125926992Y-88437097D02*
X124185309Y-88903779D01*
X131959943Y-75435718D02*
X132426992Y-77178766D01*
X137184443Y-66386618D02*
X131959943Y-75435718D01*
X125460309Y-86695414D02*
X125926992Y-88437097D01*
X132426992Y-77178766D02*
X130685309Y-77645449D01*
X124185309Y-88903779D02*
X116959309Y-101419578D01*
X140400064Y-65919936D02*
X145830000Y-60490000D01*
X130685309Y-77645449D02*
X125460309Y-86695414D01*
%TO.N,COL-04*%
X150450001Y-75459999D02*
X150450001Y-72700001D01*
X137450000Y-97976660D02*
X135708318Y-98443342D01*
X150450000Y-75460000D02*
X148708318Y-75926682D01*
X142208318Y-87185012D02*
X136983318Y-96234978D01*
X143483318Y-84976647D02*
X143950000Y-86718330D01*
X143780000Y-65080000D02*
X145830000Y-63030000D01*
X135708318Y-98443342D02*
X128483318Y-110957410D01*
X136983318Y-96234978D02*
X137450000Y-97976660D01*
X143950000Y-86718330D02*
X142208318Y-87185012D01*
X148708318Y-75926682D02*
X143483318Y-84976647D01*
X128483318Y-110957410D02*
X128950000Y-112699092D01*
X150450001Y-72700001D02*
X143780000Y-66030000D01*
X143780000Y-66030000D02*
X143780000Y-65080000D01*
%TO.N,COL-14*%
X164691682Y-87185013D02*
X169916682Y-96234978D01*
X169450000Y-97976660D02*
X171191682Y-98443343D01*
X163140000Y-57480000D02*
X161070000Y-55410000D01*
X178416682Y-110957410D02*
X177950000Y-112699092D01*
X163140000Y-70148856D02*
X163140000Y-57480000D01*
X171191682Y-98443343D02*
X178416682Y-110957410D01*
X156449999Y-75459999D02*
X157828857Y-75459999D01*
X158191682Y-75926682D02*
X163416682Y-84976648D01*
X163416682Y-84976648D02*
X162950000Y-86718330D01*
X162950000Y-86718330D02*
X164691682Y-87185013D01*
X169916682Y-96234978D02*
X169450000Y-97976660D01*
X156450000Y-75460000D02*
X158191682Y-75926682D01*
X157828857Y-75459999D02*
X163140000Y-70148856D01*
%TO.N,COL-13*%
X167973008Y-59773008D02*
X161070000Y-52870000D01*
X182715557Y-88903279D02*
X180973874Y-88436597D01*
X174473008Y-77178767D02*
X176214691Y-77645449D01*
X167973008Y-65920436D02*
X169714691Y-66387119D01*
X189473874Y-103159029D02*
X189940557Y-101417346D01*
X189940557Y-101417346D02*
X182715557Y-88903279D01*
X181440191Y-86696281D02*
X180973874Y-88436597D01*
X176214691Y-77645449D02*
X181440191Y-86696281D01*
X167973008Y-65920436D02*
X167973008Y-59773008D01*
X169714691Y-66387119D02*
X174939691Y-75437084D01*
X174939691Y-75437084D02*
X174473008Y-77178767D01*
%TO.N,COL-12*%
X178537603Y-49168852D02*
X183763103Y-58219684D01*
X190273469Y-69493968D02*
X189806787Y-71235651D01*
X183763103Y-58219684D02*
X183296787Y-59960000D01*
X162697831Y-48702169D02*
X161070000Y-50330000D01*
X176795921Y-48702169D02*
X162697831Y-48702169D01*
X183296787Y-59960000D02*
X185038469Y-60426682D01*
X176795921Y-48702170D02*
X178537603Y-49168852D01*
X185038469Y-60426682D02*
X190273469Y-69493968D01*
%TO.N,COL-11*%
X202619700Y-60928267D02*
X204361382Y-61394949D01*
X197860516Y-50137119D02*
X203086016Y-59187950D01*
X196118834Y-49670436D02*
X195143834Y-48695436D01*
X203086016Y-59187950D02*
X202619700Y-60928267D01*
X209586382Y-70444915D02*
X209119700Y-72186597D01*
X161432831Y-47427169D02*
X161070000Y-47790000D01*
X196118834Y-49670436D02*
X197860516Y-50137119D01*
X195143834Y-48695436D02*
X178605436Y-48695436D01*
X204361382Y-61394949D02*
X209586382Y-70444915D01*
X178605436Y-48695436D02*
X177337169Y-47427169D01*
X177337169Y-47427169D02*
X161432831Y-47427169D01*
%TO.N,COL-10*%
X216317404Y-51605386D02*
X221542904Y-60656217D01*
X196400000Y-48140000D02*
X178615686Y-48140000D01*
X198027844Y-49767844D02*
X196400000Y-48140000D01*
X221076587Y-62396533D02*
X222818270Y-62863216D01*
X213204862Y-49767844D02*
X198027844Y-49767844D01*
X228042770Y-71912315D02*
X227575721Y-73655364D01*
X221542904Y-60656217D02*
X221076587Y-62396533D01*
X162410000Y-46590000D02*
X161070000Y-45250000D01*
X178615686Y-48140000D02*
X177065686Y-46590000D01*
X222818270Y-62863216D02*
X228042770Y-71912315D01*
X177065686Y-46590000D02*
X162410000Y-46590000D01*
X214575721Y-51138703D02*
X213204862Y-49767844D01*
X214575721Y-51138703D02*
X216317404Y-51605386D01*
%TD*%
M02*
