%TF.GenerationSoftware,KiCad,Pcbnew,8.0.7-8.0.7-0~ubuntu22.04.1*%
%TF.CreationDate,2025-01-04T18:43:15+00:00*%
%TF.ProjectId,minikeeb,6d696e69-6b65-4656-922e-6b696361645f,rev?*%
%TF.SameCoordinates,Original*%
%TF.FileFunction,Paste,Top*%
%TF.FilePolarity,Positive*%
%FSLAX46Y46*%
G04 Gerber Fmt 4.6, Leading zero omitted, Abs format (unit mm)*
G04 Created by KiCad (PCBNEW 8.0.7-8.0.7-0~ubuntu22.04.1) date 2025-01-04 18:43:15*
%MOMM*%
%LPD*%
G01*
G04 APERTURE LIST*
G04 Aperture macros list*
%AMRoundRect*
0 Rectangle with rounded corners*
0 $1 Rounding radius*
0 $2 $3 $4 $5 $6 $7 $8 $9 X,Y pos of 4 corners*
0 Add a 4 corners polygon primitive as box body*
4,1,4,$2,$3,$4,$5,$6,$7,$8,$9,$2,$3,0*
0 Add four circle primitives for the rounded corners*
1,1,$1+$1,$2,$3*
1,1,$1+$1,$4,$5*
1,1,$1+$1,$6,$7*
1,1,$1+$1,$8,$9*
0 Add four rect primitives between the rounded corners*
20,1,$1+$1,$2,$3,$4,$5,0*
20,1,$1+$1,$4,$5,$6,$7,0*
20,1,$1+$1,$6,$7,$8,$9,0*
20,1,$1+$1,$8,$9,$2,$3,0*%
G04 Aperture macros list end*
%ADD10RoundRect,0.225000X-0.007356X-0.437260X0.382356X-0.212260X0.007356X0.437260X-0.382356X0.212260X0*%
%ADD11RoundRect,0.225000X-0.437260X0.007356X-0.212260X-0.382356X0.437260X-0.007356X0.212260X0.382356X0*%
%ADD12RoundRect,0.225000X0.382356X0.212260X-0.007356X0.437260X-0.382356X-0.212260X0.007356X-0.437260X0*%
%ADD13RoundRect,0.225000X-0.212260X0.382356X-0.437260X-0.007356X0.212260X-0.382356X0.437260X0.007356X0*%
%ADD14RoundRect,0.225000X0.007356X0.437260X-0.382356X0.212260X-0.007356X-0.437260X0.382356X-0.212260X0*%
%ADD15RoundRect,0.225000X-0.382356X-0.212260X0.007356X-0.437260X0.382356X0.212260X-0.007356X0.437260X0*%
G04 APERTURE END LIST*
D10*
%TO.C,D19*%
X214021558Y-81480864D03*
X216879442Y-79830864D03*
%TD*%
%TO.C,D18*%
X203360631Y-75511597D03*
X206218515Y-73861597D03*
%TD*%
%TO.C,D30*%
X225181812Y-80810991D03*
X228039696Y-79160991D03*
%TD*%
%TO.C,D7*%
X172237814Y-57107297D03*
X175095698Y-55457297D03*
%TD*%
D11*
%TO.C,D34*%
X200855762Y-92373036D03*
X202505762Y-95230920D03*
%TD*%
D10*
%TO.C,D9*%
X193023290Y-45106797D03*
X195881174Y-43456797D03*
%TD*%
%TO.C,D28*%
X205860631Y-79841724D03*
X208718515Y-78191724D03*
%TD*%
D12*
%TO.C,D13*%
X103539369Y-75511597D03*
X100681485Y-73861597D03*
%TD*%
D13*
%TO.C,D15*%
X148155704Y-84931837D03*
X146505704Y-87789721D03*
%TD*%
D12*
%TO.C,D2*%
X113879978Y-45097136D03*
X111022094Y-43447136D03*
%TD*%
D11*
%TO.C,D16*%
X158754680Y-84951823D03*
X160404680Y-87809707D03*
%TD*%
D14*
%TO.C,D6*%
X167714996Y-59718547D03*
X164857112Y-61368547D03*
%TD*%
D13*
%TO.C,D32*%
X133144454Y-110932085D03*
X131494454Y-113789969D03*
%TD*%
D12*
%TO.C,D1*%
X95418091Y-46574063D03*
X92560207Y-44924063D03*
%TD*%
D11*
%TO.C,D33*%
X173754680Y-110932585D03*
X175404680Y-113790469D03*
%TD*%
D12*
%TO.C,D23*%
X101039369Y-79841724D03*
X98181485Y-78191724D03*
%TD*%
D13*
%TO.C,D25*%
X141655704Y-96190167D03*
X140005704Y-99048051D03*
%TD*%
D12*
%TO.C,D21*%
X81714724Y-80808990D03*
X78856840Y-79158990D03*
%TD*%
%TO.C,D22*%
X90374978Y-85808990D03*
X87517094Y-84158990D03*
%TD*%
D10*
%TO.C,D10*%
X211481043Y-46574563D03*
X214338927Y-44924563D03*
%TD*%
%TO.C,D29*%
X216521558Y-85810991D03*
X219379442Y-84160991D03*
%TD*%
D12*
%TO.C,D11*%
X84214724Y-76478863D03*
X81356840Y-74828863D03*
%TD*%
D11*
%TO.C,D8*%
X174840217Y-50812791D03*
X176490217Y-53670675D03*
%TD*%
D12*
%TO.C,D24*%
X109699623Y-84841724D03*
X106841739Y-83191724D03*
%TD*%
%TO.C,D4*%
X134665454Y-57097636D03*
X131807570Y-55447636D03*
%TD*%
D13*
%TO.C,D3*%
X132063917Y-50803631D03*
X130413917Y-53661515D03*
%TD*%
D15*
%TO.C,D5*%
X139188271Y-59708886D03*
X142046155Y-61358886D03*
%TD*%
D11*
%TO.C,D26*%
X165243430Y-96190668D03*
X166893430Y-99048552D03*
%TD*%
D12*
%TO.C,D14*%
X112199623Y-80511597D03*
X109341739Y-78861597D03*
%TD*%
D10*
%TO.C,D27*%
X197200377Y-84841724D03*
X200058261Y-83191724D03*
%TD*%
D13*
%TO.C,D31*%
X106031256Y-92391521D03*
X104381256Y-95249405D03*
%TD*%
D10*
%TO.C,D17*%
X194700377Y-80511597D03*
X197558261Y-78861597D03*
%TD*%
%TO.C,D20*%
X222681812Y-76480864D03*
X225539696Y-74830864D03*
%TD*%
D12*
%TO.C,D12*%
X92874978Y-81478863D03*
X90017094Y-79828863D03*
%TD*%
M02*
