M48
; DRILL file {KiCad 8.0.7-8.0.7-0~ubuntu22.04.1} date 2025-01-04T18:43:19+0000
; FORMAT={-:-/ absolute / inch / decimal}
; #@! TF.CreationDate,2025-01-04T18:43:19+00:00
; #@! TF.GenerationSoftware,Kicad,Pcbnew,8.0.7-8.0.7-0~ubuntu22.04.1
; #@! TF.FileFunction,Plated,1,2,PTH
FMAT,2
INCH
; #@! TA.AperFunction,Plated,PTH,ComponentDrill
T1C0.0394
; #@! TA.AperFunction,Plated,PTH,ComponentDrill
T2C0.0512
%
G90
G05
T1
X5.7413Y-1.7815
X5.7413Y-1.8815
X5.7413Y-1.9815
X5.7413Y-2.0815
X5.7413Y-2.1815
X5.7413Y-2.2815
X5.7413Y-2.3815
X5.7413Y-2.4815
X5.7413Y-2.5815
X5.8413Y-2.5815
X5.9413Y-2.5815
X6.0413Y-2.5815
X6.1413Y-2.5815
X6.2413Y-2.5815
X6.3413Y-1.7815
X6.3413Y-1.8815
X6.3413Y-1.9815
X6.3413Y-2.0815
X6.3413Y-2.1815
X6.3413Y-2.2815
X6.3413Y-2.3815
X6.3413Y-2.4815
X6.3413Y-2.5815
T2
X2.5982Y-2.8242
X2.6967Y-2.6537
X2.8542Y-2.3809
X2.9526Y-2.2104
X3.0245Y-3.0702
X3.1101Y-1.9377
X3.1229Y-2.8998
X3.2085Y-1.7672
X3.2804Y-2.627
X3.325Y-2.7664
X3.3788Y-2.4565
X3.4234Y-2.5959
X3.5363Y-2.1838
X3.5808Y-2.3231
X3.6347Y-2.0133
X3.6793Y-2.1526
X3.7512Y-3.0125
X3.8367Y-1.8799
X3.8496Y-2.842
X3.9352Y-1.7094
X4.0071Y-2.5692
X4.0857Y-2.7282
X4.0984Y-3.9858
X4.1055Y-2.3987
X4.1841Y-2.5578
X4.1968Y-3.8153
X4.263Y-2.126
X4.3416Y-2.285
X4.3614Y-1.9555
X4.4331Y-3.4062
X4.44Y-2.1145
X4.5119Y-2.9743
X4.5246Y-4.2318
X4.5315Y-3.2357
X4.5521Y-4.3614
X4.5977Y-1.8414
X4.6103Y-2.8039
X4.623Y-4.0614
X4.6505Y-4.1909
X4.689Y-2.9629
X4.6961Y-1.6709
X4.7678Y-2.5311
X4.7874Y-2.7925
X4.8593Y-3.6523
X4.8662Y-2.3606
X4.8868Y-3.7817
X4.9449Y-2.5197
X4.9578Y-3.4818
X4.9783Y-4.6074
X4.9852Y-3.6113
X5.0239Y-2.0875
X5.0433Y-2.3492
X5.0768Y-4.437
X5.1152Y-3.209
X5.1223Y-1.917
X5.1427Y-3.3385
X5.2137Y-3.0385
X5.2411Y-3.168
X5.313Y-4.0278
X5.3711Y-2.7658
X5.3986Y-2.8953
X5.4114Y-3.8573
X5.4695Y-2.5953
X5.497Y-2.7248
X5.5689Y-3.5846
X5.6673Y-3.4141
X5.8248Y-3.1413
X5.9232Y-2.9709
X6.1594Y-2.9709
X6.2579Y-3.1413
X6.4154Y-3.4141
X6.5138Y-3.5846
X6.5857Y-2.7248
X6.6131Y-2.5953
X6.6713Y-3.8573
X6.6841Y-2.8953
X6.7115Y-2.7658
X6.7697Y-4.0278
X6.8416Y-3.168
X6.869Y-3.0385
X6.94Y-3.3385
X6.9605Y-1.9174
X6.9674Y-3.209
X7.0059Y-4.437
X7.0393Y-2.3492
X7.0589Y-2.0879
X7.0975Y-3.6113
X7.1043Y-4.6074
X7.125Y-3.4818
X7.1378Y-2.5197
X7.1959Y-3.7817
X7.2164Y-2.3606
X7.2234Y-3.6522
X7.2952Y-2.7925
X7.3148Y-2.5311
X7.3867Y-1.6713
X7.3937Y-2.9629
X7.4321Y-4.1909
X7.4596Y-4.0614
X7.4727Y-2.8046
X7.4851Y-1.8418
X7.5306Y-4.3614
X7.5512Y-3.2357
X7.558Y-4.2319
X7.5711Y-2.975
X7.6426Y-2.1145
X7.6496Y-3.4062
X7.7212Y-1.9555
X7.7411Y-2.285
X7.8196Y-2.126
X7.8858Y-3.8153
X7.8989Y-2.5585
X7.9772Y-2.3988
X7.9843Y-3.9858
X7.9974Y-2.7289
X8.0756Y-2.5692
X8.1474Y-1.7094
X8.2331Y-2.842
X8.2459Y-1.8799
X8.3315Y-3.0125
X8.4034Y-2.1527
X8.4479Y-2.0133
X8.5018Y-2.3231
X8.5463Y-2.1838
X8.6593Y-2.5959
X8.7038Y-2.4566
X8.7577Y-2.7664
X8.8022Y-2.627
X8.8741Y-1.7673
X8.9597Y-2.8998
X8.9725Y-1.9377
X9.0581Y-3.0703
X9.13Y-2.2105
X9.2285Y-2.381
X9.3859Y-2.6537
X9.4843Y-2.8242
M30
