%TF.GenerationSoftware,KiCad,Pcbnew,8.0.7-8.0.7-0~ubuntu22.04.1*%
%TF.CreationDate,2025-01-04T18:43:20+00:00*%
%TF.ProjectId,minikeeb,6d696e69-6b65-4656-922e-6b696361645f,rev?*%
%TF.SameCoordinates,Original*%
%TF.FileFunction,Drillmap*%
%TF.FilePolarity,Positive*%
%FSLAX45Y45*%
G04 Gerber Fmt 4.5, Leading zero omitted, Abs format (unit mm)*
G04 Created by KiCad (PCBNEW 8.0.7-8.0.7-0~ubuntu22.04.1) date 2025-01-04 18:43:20*
%MOMM*%
%LPD*%
G01*
G04 APERTURE LIST*
%ADD10C,0.050000*%
%ADD11C,0.120000*%
%ADD12C,0.200000*%
%ADD13C,0.100000*%
%ADD14C,0.130000*%
G04 APERTURE END LIST*
D10*
X18548813Y-3675552D02*
G75*
G02*
X16144997Y-4166009I-1692366J2158587D01*
G01*
X12583366Y-12292517D02*
G75*
G02*
X18106682Y-12292498I2761677J-5523329D01*
G01*
X14545004Y-4166013D02*
G75*
G02*
X12141600Y-3674636I-710324J2649092D01*
G01*
X12431603Y-12272537D02*
X11175866Y-11547537D01*
X10057045Y-3752348D02*
G75*
G02*
X10208809Y-3772328I51765J-193182D01*
G01*
X18258311Y-12272587D02*
X19514048Y-11547587D01*
X6213034Y-7643014D02*
X7468771Y-8368014D01*
X23220970Y-8368164D02*
X24476793Y-7643114D01*
X8089829Y-3992310D02*
G75*
G02*
X8363031Y-3919109I173201J-100000D01*
G01*
X11175866Y-11547537D02*
G75*
G02*
X11082681Y-11426096I100004J173207D01*
G01*
X18258311Y-12272587D02*
G75*
G02*
X18106720Y-12292470I-99831J173307D01*
G01*
X10024174Y-10593948D02*
G75*
G02*
X9930194Y-10472045I99216J173668D01*
G01*
X19607233Y-11426146D02*
G75*
G02*
X19514047Y-11547585I-193183J51766D01*
G01*
X22326793Y-3919205D02*
G75*
G02*
X22599994Y-3992412I99997J-173205D01*
G01*
X18548813Y-3675552D02*
G75*
G02*
X18700576Y-3655574I99997J-173208D01*
G01*
X20481191Y-3772328D02*
G75*
G02*
X20632955Y-3752349I99999J-173202D01*
G01*
X6213034Y-7643014D02*
G75*
G02*
X6139828Y-7369809I99996J173204D01*
G01*
X10057045Y-3752348D02*
G75*
G02*
X8363034Y-3919104I-1013761J1610633D01*
G01*
X11989837Y-3654655D02*
G75*
G02*
X12141600Y-3674636I51763J-193185D01*
G01*
X7468770Y-8368014D02*
G75*
G02*
X9930191Y-10472046I-873321J-3513436D01*
G01*
X14545000Y-4166000D02*
G75*
G02*
X14745000Y-4366000I0J-200000D01*
G01*
X22326793Y-3919205D02*
G75*
G02*
X20632955Y-3752347I-680063J1777245D01*
G01*
X11989836Y-3654655D02*
G75*
G02*
X10208809Y-3772328I-1008186J1722195D01*
G01*
X24549911Y-7369959D02*
G75*
G02*
X24476793Y-7643114I-173202J-100001D01*
G01*
X15945000Y-4366000D02*
G75*
G02*
X16145000Y-4166000I200000J0D01*
G01*
X19607233Y-11426146D02*
G75*
G02*
X20666437Y-10593590I1362157J-642924D01*
G01*
X20759620Y-10472140D02*
G75*
G02*
X23220970Y-8368164I3334655J-1409367D01*
G01*
X20481191Y-3772328D02*
G75*
G02*
X18700581Y-3655564I-773541J1838978D01*
G01*
X20759620Y-10472140D02*
G75*
G02*
X20666435Y-10593581I-193180J51760D01*
G01*
X10024180Y-10593936D02*
G75*
G02*
X11082688Y-11426092I-302900J-1474584D01*
G01*
X12583366Y-12292517D02*
G75*
G02*
X12431601Y-12272539I-51766J193187D01*
G01*
X6139829Y-7369809D02*
X8089829Y-3992310D01*
X22599998Y-3992410D02*
X24549911Y-7369959D01*
D11*
X14745000Y-4366000D02*
X14745000Y-6430000D01*
X14745000Y-6430000D02*
X15945000Y-6430000D01*
X15945000Y-6430000D02*
X15945000Y-4366000D01*
D12*
D13*
X14533000Y-4475000D02*
X14633000Y-4575000D01*
X14633000Y-4475000D02*
X14533000Y-4575000D01*
X14533000Y-4729000D02*
X14633000Y-4829000D01*
X14633000Y-4729000D02*
X14533000Y-4829000D01*
X14533000Y-4983000D02*
X14633000Y-5083000D01*
X14633000Y-4983000D02*
X14533000Y-5083000D01*
X14533000Y-5237000D02*
X14633000Y-5337000D01*
X14633000Y-5237000D02*
X14533000Y-5337000D01*
X14533000Y-5491000D02*
X14633000Y-5591000D01*
X14633000Y-5491000D02*
X14533000Y-5591000D01*
X14533000Y-5745000D02*
X14633000Y-5845000D01*
X14633000Y-5745000D02*
X14533000Y-5845000D01*
X14533000Y-5999000D02*
X14633000Y-6099000D01*
X14633000Y-5999000D02*
X14533000Y-6099000D01*
X14533000Y-6253000D02*
X14633000Y-6353000D01*
X14633000Y-6253000D02*
X14533000Y-6353000D01*
X14533000Y-6507000D02*
X14633000Y-6607000D01*
X14633000Y-6507000D02*
X14533000Y-6607000D01*
X14787000Y-6507000D02*
X14887000Y-6607000D01*
X14887000Y-6507000D02*
X14787000Y-6607000D01*
X15041000Y-6507000D02*
X15141000Y-6607000D01*
X15141000Y-6507000D02*
X15041000Y-6607000D01*
X15295000Y-6507000D02*
X15395000Y-6607000D01*
X15395000Y-6507000D02*
X15295000Y-6607000D01*
X15549000Y-6507000D02*
X15649000Y-6607000D01*
X15649000Y-6507000D02*
X15549000Y-6607000D01*
X15803000Y-6507000D02*
X15903000Y-6607000D01*
X15903000Y-6507000D02*
X15803000Y-6607000D01*
X16057000Y-4475000D02*
X16157000Y-4575000D01*
X16157000Y-4475000D02*
X16057000Y-4575000D01*
X16057000Y-4729000D02*
X16157000Y-4829000D01*
X16157000Y-4729000D02*
X16057000Y-4829000D01*
X16057000Y-4983000D02*
X16157000Y-5083000D01*
X16157000Y-4983000D02*
X16057000Y-5083000D01*
X16057000Y-5237000D02*
X16157000Y-5337000D01*
X16157000Y-5237000D02*
X16057000Y-5337000D01*
X16057000Y-5491000D02*
X16157000Y-5591000D01*
X16157000Y-5491000D02*
X16057000Y-5591000D01*
X16057000Y-5745000D02*
X16157000Y-5845000D01*
X16157000Y-5745000D02*
X16057000Y-5845000D01*
X16057000Y-5999000D02*
X16157000Y-6099000D01*
X16157000Y-5999000D02*
X16057000Y-6099000D01*
X16057000Y-6253000D02*
X16157000Y-6353000D01*
X16157000Y-6253000D02*
X16057000Y-6353000D01*
X16057000Y-6507000D02*
X16157000Y-6607000D01*
X16157000Y-6507000D02*
X16057000Y-6607000D01*
D14*
X6664550Y-7173349D02*
G75*
G02*
X6534550Y-7173349I-65000J0D01*
G01*
X6534550Y-7173349D02*
G75*
G02*
X6664550Y-7173349I65000J0D01*
G01*
X6914550Y-6740336D02*
G75*
G02*
X6784550Y-6740336I-65000J0D01*
G01*
X6784550Y-6740336D02*
G75*
G02*
X6914550Y-6740336I65000J0D01*
G01*
X7314550Y-6047516D02*
G75*
G02*
X7184550Y-6047516I-65000J0D01*
G01*
X7184550Y-6047516D02*
G75*
G02*
X7314550Y-6047516I65000J0D01*
G01*
X7564550Y-5614503D02*
G75*
G02*
X7434550Y-5614503I-65000J0D01*
G01*
X7434550Y-5614503D02*
G75*
G02*
X7564550Y-5614503I65000J0D01*
G01*
X7747168Y-7798399D02*
G75*
G02*
X7617168Y-7798399I-65000J0D01*
G01*
X7617168Y-7798399D02*
G75*
G02*
X7747168Y-7798399I65000J0D01*
G01*
X7964550Y-4921683D02*
G75*
G02*
X7834550Y-4921683I-65000J0D01*
G01*
X7834550Y-4921683D02*
G75*
G02*
X7964550Y-4921683I65000J0D01*
G01*
X7997168Y-7365386D02*
G75*
G02*
X7867168Y-7365386I-65000J0D01*
G01*
X7867168Y-7365386D02*
G75*
G02*
X7997168Y-7365386I65000J0D01*
G01*
X8214550Y-4488670D02*
G75*
G02*
X8084550Y-4488670I-65000J0D01*
G01*
X8084550Y-4488670D02*
G75*
G02*
X8214550Y-4488670I65000J0D01*
G01*
X8397168Y-6672566D02*
G75*
G02*
X8267168Y-6672566I-65000J0D01*
G01*
X8267168Y-6672566D02*
G75*
G02*
X8397168Y-6672566I65000J0D01*
G01*
X8510412Y-7026622D02*
G75*
G02*
X8380412Y-7026622I-65000J0D01*
G01*
X8380412Y-7026622D02*
G75*
G02*
X8510412Y-7026622I65000J0D01*
G01*
X8647168Y-6239553D02*
G75*
G02*
X8517168Y-6239553I-65000J0D01*
G01*
X8517168Y-6239553D02*
G75*
G02*
X8647168Y-6239553I65000J0D01*
G01*
X8760412Y-6593610D02*
G75*
G02*
X8630412Y-6593610I-65000J0D01*
G01*
X8630412Y-6593610D02*
G75*
G02*
X8760412Y-6593610I65000J0D01*
G01*
X9047168Y-5546733D02*
G75*
G02*
X8917168Y-5546733I-65000J0D01*
G01*
X8917168Y-5546733D02*
G75*
G02*
X9047168Y-5546733I65000J0D01*
G01*
X9160325Y-5900739D02*
G75*
G02*
X9030325Y-5900739I-65000J0D01*
G01*
X9030325Y-5900739D02*
G75*
G02*
X9160325Y-5900739I65000J0D01*
G01*
X9297168Y-5113720D02*
G75*
G02*
X9167168Y-5113720I-65000J0D01*
G01*
X9167168Y-5113720D02*
G75*
G02*
X9297168Y-5113720I65000J0D01*
G01*
X9410325Y-5467727D02*
G75*
G02*
X9280325Y-5467727I-65000J0D01*
G01*
X9280325Y-5467727D02*
G75*
G02*
X9410325Y-5467727I65000J0D01*
G01*
X9593030Y-7651672D02*
G75*
G02*
X9463030Y-7651672I-65000J0D01*
G01*
X9463030Y-7651672D02*
G75*
G02*
X9593030Y-7651672I65000J0D01*
G01*
X9810325Y-4774906D02*
G75*
G02*
X9680325Y-4774906I-65000J0D01*
G01*
X9680325Y-4774906D02*
G75*
G02*
X9810325Y-4774906I65000J0D01*
G01*
X9843030Y-7218660D02*
G75*
G02*
X9713030Y-7218660I-65000J0D01*
G01*
X9713030Y-7218660D02*
G75*
G02*
X9843030Y-7218660I65000J0D01*
G01*
X10060325Y-4341894D02*
G75*
G02*
X9930325Y-4341894I-65000J0D01*
G01*
X9930325Y-4341894D02*
G75*
G02*
X10060325Y-4341894I65000J0D01*
G01*
X10242943Y-6525789D02*
G75*
G02*
X10112943Y-6525789I-65000J0D01*
G01*
X10112943Y-6525789D02*
G75*
G02*
X10242943Y-6525789I65000J0D01*
G01*
X10442616Y-6929746D02*
G75*
G02*
X10312616Y-6929746I-65000J0D01*
G01*
X10312616Y-6929746D02*
G75*
G02*
X10442616Y-6929746I65000J0D01*
G01*
X10474908Y-10123816D02*
G75*
G02*
X10344908Y-10123816I-65000J0D01*
G01*
X10344908Y-10123816D02*
G75*
G02*
X10474908Y-10123816I65000J0D01*
G01*
X10492943Y-6092777D02*
G75*
G02*
X10362943Y-6092777I-65000J0D01*
G01*
X10362943Y-6092777D02*
G75*
G02*
X10492943Y-6092777I65000J0D01*
G01*
X10692616Y-6496733D02*
G75*
G02*
X10562616Y-6496733I-65000J0D01*
G01*
X10562616Y-6496733D02*
G75*
G02*
X10692616Y-6496733I65000J0D01*
G01*
X10724908Y-9690803D02*
G75*
G02*
X10594908Y-9690803I-65000J0D01*
G01*
X10594908Y-9690803D02*
G75*
G02*
X10724908Y-9690803I65000J0D01*
G01*
X10892943Y-5399956D02*
G75*
G02*
X10762943Y-5399956I-65000J0D01*
G01*
X10762943Y-5399956D02*
G75*
G02*
X10892943Y-5399956I65000J0D01*
G01*
X11092616Y-5803913D02*
G75*
G02*
X10962616Y-5803913I-65000J0D01*
G01*
X10962616Y-5803913D02*
G75*
G02*
X11092616Y-5803913I65000J0D01*
G01*
X11142943Y-4966944D02*
G75*
G02*
X11012943Y-4966944I-65000J0D01*
G01*
X11012943Y-4966944D02*
G75*
G02*
X11142943Y-4966944I65000J0D01*
G01*
X11325081Y-8651672D02*
G75*
G02*
X11195081Y-8651672I-65000J0D01*
G01*
X11195081Y-8651672D02*
G75*
G02*
X11325081Y-8651672I65000J0D01*
G01*
X11342616Y-5370900D02*
G75*
G02*
X11212616Y-5370900I-65000J0D01*
G01*
X11212616Y-5370900D02*
G75*
G02*
X11342616Y-5370900I65000J0D01*
G01*
X11525235Y-7554796D02*
G75*
G02*
X11395235Y-7554796I-65000J0D01*
G01*
X11395235Y-7554796D02*
G75*
G02*
X11525235Y-7554796I65000J0D01*
G01*
X11557526Y-10748866D02*
G75*
G02*
X11427526Y-10748866I-65000J0D01*
G01*
X11427526Y-10748866D02*
G75*
G02*
X11557526Y-10748866I65000J0D01*
G01*
X11575081Y-8218660D02*
G75*
G02*
X11445081Y-8218660I-65000J0D01*
G01*
X11445081Y-8218660D02*
G75*
G02*
X11575081Y-8218660I65000J0D01*
G01*
X11627382Y-11077872D02*
G75*
G02*
X11497382Y-11077872I-65000J0D01*
G01*
X11497382Y-11077872D02*
G75*
G02*
X11627382Y-11077872I65000J0D01*
G01*
X11743116Y-4677214D02*
G75*
G02*
X11613116Y-4677214I-65000J0D01*
G01*
X11613116Y-4677214D02*
G75*
G02*
X11743116Y-4677214I65000J0D01*
G01*
X11775235Y-7121783D02*
G75*
G02*
X11645235Y-7121783I-65000J0D01*
G01*
X11645235Y-7121783D02*
G75*
G02*
X11775235Y-7121783I65000J0D01*
G01*
X11807526Y-10315853D02*
G75*
G02*
X11677526Y-10315853I-65000J0D01*
G01*
X11677526Y-10315853D02*
G75*
G02*
X11807526Y-10315853I65000J0D01*
G01*
X11877382Y-10644859D02*
G75*
G02*
X11747382Y-10644859I-65000J0D01*
G01*
X11747382Y-10644859D02*
G75*
G02*
X11877382Y-10644859I65000J0D01*
G01*
X11975081Y-7525839D02*
G75*
G02*
X11845081Y-7525839I-65000J0D01*
G01*
X11845081Y-7525839D02*
G75*
G02*
X11975081Y-7525839I65000J0D01*
G01*
X11993116Y-4244201D02*
G75*
G02*
X11863116Y-4244201I-65000J0D01*
G01*
X11863116Y-4244201D02*
G75*
G02*
X11993116Y-4244201I65000J0D01*
G01*
X12175235Y-6428963D02*
G75*
G02*
X12045235Y-6428963I-65000J0D01*
G01*
X12045235Y-6428963D02*
G75*
G02*
X12175235Y-6428963I65000J0D01*
G01*
X12225081Y-7092827D02*
G75*
G02*
X12095081Y-7092827I-65000J0D01*
G01*
X12095081Y-7092827D02*
G75*
G02*
X12225081Y-7092827I65000J0D01*
G01*
X12407699Y-9276722D02*
G75*
G02*
X12277699Y-9276722I-65000J0D01*
G01*
X12277699Y-9276722D02*
G75*
G02*
X12407699Y-9276722I65000J0D01*
G01*
X12425235Y-5995950D02*
G75*
G02*
X12295235Y-5995950I-65000J0D01*
G01*
X12295235Y-5995950D02*
G75*
G02*
X12425235Y-5995950I65000J0D01*
G01*
X12477382Y-9605629D02*
G75*
G02*
X12347382Y-9605629I-65000J0D01*
G01*
X12347382Y-9605629D02*
G75*
G02*
X12477382Y-9605629I65000J0D01*
G01*
X12624994Y-6399956D02*
G75*
G02*
X12494994Y-6399956I-65000J0D01*
G01*
X12494994Y-6399956D02*
G75*
G02*
X12624994Y-6399956I65000J0D01*
G01*
X12657699Y-8843710D02*
G75*
G02*
X12527699Y-8843710I-65000J0D01*
G01*
X12527699Y-8843710D02*
G75*
G02*
X12657699Y-8843710I65000J0D01*
G01*
X12710000Y-11702922D02*
G75*
G02*
X12580000Y-11702922I-65000J0D01*
G01*
X12580000Y-11702922D02*
G75*
G02*
X12710000Y-11702922I65000J0D01*
G01*
X12727382Y-9172616D02*
G75*
G02*
X12597382Y-9172616I-65000J0D01*
G01*
X12597382Y-9172616D02*
G75*
G02*
X12727382Y-9172616I65000J0D01*
G01*
X12825735Y-5302264D02*
G75*
G02*
X12695735Y-5302264I-65000J0D01*
G01*
X12695735Y-5302264D02*
G75*
G02*
X12825735Y-5302264I65000J0D01*
G01*
X12874994Y-5966944D02*
G75*
G02*
X12744994Y-5966944I-65000J0D01*
G01*
X12744994Y-5966944D02*
G75*
G02*
X12874994Y-5966944I65000J0D01*
G01*
X12960000Y-11269909D02*
G75*
G02*
X12830000Y-11269909I-65000J0D01*
G01*
X12830000Y-11269909D02*
G75*
G02*
X12960000Y-11269909I65000J0D01*
G01*
X13057699Y-8150889D02*
G75*
G02*
X12927699Y-8150889I-65000J0D01*
G01*
X12927699Y-8150889D02*
G75*
G02*
X13057699Y-8150889I65000J0D01*
G01*
X13075735Y-4869251D02*
G75*
G02*
X12945735Y-4869251I-65000J0D01*
G01*
X12945735Y-4869251D02*
G75*
G02*
X13075735Y-4869251I65000J0D01*
G01*
X13127382Y-8479796D02*
G75*
G02*
X12997382Y-8479796I-65000J0D01*
G01*
X12997382Y-8479796D02*
G75*
G02*
X13127382Y-8479796I65000J0D01*
G01*
X13307699Y-7717877D02*
G75*
G02*
X13177699Y-7717877I-65000J0D01*
G01*
X13177699Y-7717877D02*
G75*
G02*
X13307699Y-7717877I65000J0D01*
G01*
X13377382Y-8046783D02*
G75*
G02*
X13247382Y-8046783I-65000J0D01*
G01*
X13247382Y-8046783D02*
G75*
G02*
X13377382Y-8046783I65000J0D01*
G01*
X13560000Y-10230679D02*
G75*
G02*
X13430000Y-10230679I-65000J0D01*
G01*
X13430000Y-10230679D02*
G75*
G02*
X13560000Y-10230679I65000J0D01*
G01*
X13707613Y-7025006D02*
G75*
G02*
X13577613Y-7025006I-65000J0D01*
G01*
X13577613Y-7025006D02*
G75*
G02*
X13707613Y-7025006I65000J0D01*
G01*
X13777382Y-7353963D02*
G75*
G02*
X13647382Y-7353963I-65000J0D01*
G01*
X13647382Y-7353963D02*
G75*
G02*
X13777382Y-7353963I65000J0D01*
G01*
X13810000Y-9797666D02*
G75*
G02*
X13680000Y-9797666I-65000J0D01*
G01*
X13680000Y-9797666D02*
G75*
G02*
X13810000Y-9797666I65000J0D01*
G01*
X13957613Y-6591994D02*
G75*
G02*
X13827613Y-6591994I-65000J0D01*
G01*
X13827613Y-6591994D02*
G75*
G02*
X13957613Y-6591994I65000J0D01*
G01*
X14027382Y-6920950D02*
G75*
G02*
X13897382Y-6920950I-65000J0D01*
G01*
X13897382Y-6920950D02*
G75*
G02*
X14027382Y-6920950I65000J0D01*
G01*
X14210000Y-9104846D02*
G75*
G02*
X14080000Y-9104846I-65000J0D01*
G01*
X14080000Y-9104846D02*
G75*
G02*
X14210000Y-9104846I65000J0D01*
G01*
X14460000Y-8671833D02*
G75*
G02*
X14330000Y-8671833I-65000J0D01*
G01*
X14330000Y-8671833D02*
G75*
G02*
X14460000Y-8671833I65000J0D01*
G01*
X14860000Y-7979013D02*
G75*
G02*
X14730000Y-7979013I-65000J0D01*
G01*
X14730000Y-7979013D02*
G75*
G02*
X14860000Y-7979013I65000J0D01*
G01*
X15110000Y-7546000D02*
G75*
G02*
X14980000Y-7546000I-65000J0D01*
G01*
X14980000Y-7546000D02*
G75*
G02*
X15110000Y-7546000I65000J0D01*
G01*
X15710000Y-7546000D02*
G75*
G02*
X15580000Y-7546000I-65000J0D01*
G01*
X15580000Y-7546000D02*
G75*
G02*
X15710000Y-7546000I65000J0D01*
G01*
X15960000Y-7979013D02*
G75*
G02*
X15830000Y-7979013I-65000J0D01*
G01*
X15830000Y-7979013D02*
G75*
G02*
X15960000Y-7979013I65000J0D01*
G01*
X16360000Y-8671833D02*
G75*
G02*
X16230000Y-8671833I-65000J0D01*
G01*
X16230000Y-8671833D02*
G75*
G02*
X16360000Y-8671833I65000J0D01*
G01*
X16610000Y-9104846D02*
G75*
G02*
X16480000Y-9104846I-65000J0D01*
G01*
X16480000Y-9104846D02*
G75*
G02*
X16610000Y-9104846I65000J0D01*
G01*
X16792618Y-6920950D02*
G75*
G02*
X16662618Y-6920950I-65000J0D01*
G01*
X16662618Y-6920950D02*
G75*
G02*
X16792618Y-6920950I65000J0D01*
G01*
X16862301Y-6592044D02*
G75*
G02*
X16732301Y-6592044I-65000J0D01*
G01*
X16732301Y-6592044D02*
G75*
G02*
X16862301Y-6592044I65000J0D01*
G01*
X17010000Y-9797666D02*
G75*
G02*
X16880000Y-9797666I-65000J0D01*
G01*
X16880000Y-9797666D02*
G75*
G02*
X17010000Y-9797666I65000J0D01*
G01*
X17042618Y-7353963D02*
G75*
G02*
X16912618Y-7353963I-65000J0D01*
G01*
X16912618Y-7353963D02*
G75*
G02*
X17042618Y-7353963I65000J0D01*
G01*
X17112301Y-7025056D02*
G75*
G02*
X16982301Y-7025056I-65000J0D01*
G01*
X16982301Y-7025056D02*
G75*
G02*
X17112301Y-7025056I65000J0D01*
G01*
X17260000Y-10230679D02*
G75*
G02*
X17130000Y-10230679I-65000J0D01*
G01*
X17130000Y-10230679D02*
G75*
G02*
X17260000Y-10230679I65000J0D01*
G01*
X17442618Y-8046783D02*
G75*
G02*
X17312618Y-8046783I-65000J0D01*
G01*
X17312618Y-8046783D02*
G75*
G02*
X17442618Y-8046783I65000J0D01*
G01*
X17512301Y-7717877D02*
G75*
G02*
X17382301Y-7717877I-65000J0D01*
G01*
X17382301Y-7717877D02*
G75*
G02*
X17512301Y-7717877I65000J0D01*
G01*
X17692618Y-8479796D02*
G75*
G02*
X17562618Y-8479796I-65000J0D01*
G01*
X17562618Y-8479796D02*
G75*
G02*
X17692618Y-8479796I65000J0D01*
G01*
X17744592Y-4870217D02*
G75*
G02*
X17614592Y-4870217I-65000J0D01*
G01*
X17614592Y-4870217D02*
G75*
G02*
X17744592Y-4870217I65000J0D01*
G01*
X17762301Y-8150889D02*
G75*
G02*
X17632301Y-8150889I-65000J0D01*
G01*
X17632301Y-8150889D02*
G75*
G02*
X17762301Y-8150889I65000J0D01*
G01*
X17860000Y-11269909D02*
G75*
G02*
X17730000Y-11269909I-65000J0D01*
G01*
X17730000Y-11269909D02*
G75*
G02*
X17860000Y-11269909I65000J0D01*
G01*
X17944919Y-5966994D02*
G75*
G02*
X17814919Y-5966994I-65000J0D01*
G01*
X17814919Y-5966994D02*
G75*
G02*
X17944919Y-5966994I65000J0D01*
G01*
X17994592Y-5303230D02*
G75*
G02*
X17864592Y-5303230I-65000J0D01*
G01*
X17864592Y-5303230D02*
G75*
G02*
X17994592Y-5303230I65000J0D01*
G01*
X18092618Y-9172616D02*
G75*
G02*
X17962618Y-9172616I-65000J0D01*
G01*
X17962618Y-9172616D02*
G75*
G02*
X18092618Y-9172616I65000J0D01*
G01*
X18110000Y-11702922D02*
G75*
G02*
X17980000Y-11702922I-65000J0D01*
G01*
X17980000Y-11702922D02*
G75*
G02*
X18110000Y-11702922I65000J0D01*
G01*
X18162387Y-8843660D02*
G75*
G02*
X18032387Y-8843660I-65000J0D01*
G01*
X18032387Y-8843660D02*
G75*
G02*
X18162387Y-8843660I65000J0D01*
G01*
X18194919Y-6400006D02*
G75*
G02*
X18064919Y-6400006I-65000J0D01*
G01*
X18064919Y-6400006D02*
G75*
G02*
X18194919Y-6400006I65000J0D01*
G01*
X18342618Y-9605629D02*
G75*
G02*
X18212618Y-9605629I-65000J0D01*
G01*
X18212618Y-9605629D02*
G75*
G02*
X18342618Y-9605629I65000J0D01*
G01*
X18394679Y-5996000D02*
G75*
G02*
X18264679Y-5996000I-65000J0D01*
G01*
X18264679Y-5996000D02*
G75*
G02*
X18394679Y-5996000I65000J0D01*
G01*
X18412387Y-9276672D02*
G75*
G02*
X18282387Y-9276672I-65000J0D01*
G01*
X18282387Y-9276672D02*
G75*
G02*
X18412387Y-9276672I65000J0D01*
G01*
X18594919Y-7092827D02*
G75*
G02*
X18464919Y-7092827I-65000J0D01*
G01*
X18464919Y-7092827D02*
G75*
G02*
X18594919Y-7092827I65000J0D01*
G01*
X18644679Y-6429013D02*
G75*
G02*
X18514679Y-6429013I-65000J0D01*
G01*
X18514679Y-6429013D02*
G75*
G02*
X18644679Y-6429013I65000J0D01*
G01*
X18827211Y-4245167D02*
G75*
G02*
X18697211Y-4245167I-65000J0D01*
G01*
X18697211Y-4245167D02*
G75*
G02*
X18827211Y-4245167I65000J0D01*
G01*
X18844919Y-7525839D02*
G75*
G02*
X18714919Y-7525839I-65000J0D01*
G01*
X18714919Y-7525839D02*
G75*
G02*
X18844919Y-7525839I65000J0D01*
G01*
X18942618Y-10644859D02*
G75*
G02*
X18812618Y-10644859I-65000J0D01*
G01*
X18812618Y-10644859D02*
G75*
G02*
X18942618Y-10644859I65000J0D01*
G01*
X19012387Y-10315903D02*
G75*
G02*
X18882387Y-10315903I-65000J0D01*
G01*
X18882387Y-10315903D02*
G75*
G02*
X19012387Y-10315903I65000J0D01*
G01*
X19045679Y-7123565D02*
G75*
G02*
X18915679Y-7123565I-65000J0D01*
G01*
X18915679Y-7123565D02*
G75*
G02*
X19045679Y-7123565I65000J0D01*
G01*
X19077211Y-4678180D02*
G75*
G02*
X18947211Y-4678180I-65000J0D01*
G01*
X18947211Y-4678180D02*
G75*
G02*
X19077211Y-4678180I65000J0D01*
G01*
X19192618Y-11077872D02*
G75*
G02*
X19062618Y-11077872I-65000J0D01*
G01*
X19062618Y-11077872D02*
G75*
G02*
X19192618Y-11077872I65000J0D01*
G01*
X19245006Y-8218610D02*
G75*
G02*
X19115006Y-8218610I-65000J0D01*
G01*
X19115006Y-8218610D02*
G75*
G02*
X19245006Y-8218610I65000J0D01*
G01*
X19262387Y-10748916D02*
G75*
G02*
X19132387Y-10748916I-65000J0D01*
G01*
X19132387Y-10748916D02*
G75*
G02*
X19262387Y-10748916I65000J0D01*
G01*
X19295679Y-7556578D02*
G75*
G02*
X19165679Y-7556578I-65000J0D01*
G01*
X19165679Y-7556578D02*
G75*
G02*
X19295679Y-7556578I65000J0D01*
G01*
X19477297Y-5370950D02*
G75*
G02*
X19347297Y-5370950I-65000J0D01*
G01*
X19347297Y-5370950D02*
G75*
G02*
X19477297Y-5370950I65000J0D01*
G01*
X19495006Y-8651622D02*
G75*
G02*
X19365006Y-8651622I-65000J0D01*
G01*
X19365006Y-8651622D02*
G75*
G02*
X19495006Y-8651622I65000J0D01*
G01*
X19676883Y-4967044D02*
G75*
G02*
X19546883Y-4967044I-65000J0D01*
G01*
X19546883Y-4967044D02*
G75*
G02*
X19676883Y-4967044I65000J0D01*
G01*
X19727297Y-5803963D02*
G75*
G02*
X19597297Y-5803963I-65000J0D01*
G01*
X19597297Y-5803963D02*
G75*
G02*
X19727297Y-5803963I65000J0D01*
G01*
X19926883Y-5400056D02*
G75*
G02*
X19796883Y-5400056I-65000J0D01*
G01*
X19796883Y-5400056D02*
G75*
G02*
X19926883Y-5400056I65000J0D01*
G01*
X20095006Y-9690853D02*
G75*
G02*
X19965006Y-9690853I-65000J0D01*
G01*
X19965006Y-9690853D02*
G75*
G02*
X20095006Y-9690853I65000J0D01*
G01*
X20128297Y-6498515D02*
G75*
G02*
X19998297Y-6498515I-65000J0D01*
G01*
X19998297Y-6498515D02*
G75*
G02*
X20128297Y-6498515I65000J0D01*
G01*
X20326970Y-6092827D02*
G75*
G02*
X20196970Y-6092827I-65000J0D01*
G01*
X20196970Y-6092827D02*
G75*
G02*
X20326970Y-6092827I65000J0D01*
G01*
X20345006Y-10123866D02*
G75*
G02*
X20215006Y-10123866I-65000J0D01*
G01*
X20215006Y-10123866D02*
G75*
G02*
X20345006Y-10123866I65000J0D01*
G01*
X20378297Y-6931528D02*
G75*
G02*
X20248297Y-6931528I-65000J0D01*
G01*
X20248297Y-6931528D02*
G75*
G02*
X20378297Y-6931528I65000J0D01*
G01*
X20576970Y-6525839D02*
G75*
G02*
X20446970Y-6525839I-65000J0D01*
G01*
X20446970Y-6525839D02*
G75*
G02*
X20576970Y-6525839I65000J0D01*
G01*
X20759502Y-4341994D02*
G75*
G02*
X20629502Y-4341994I-65000J0D01*
G01*
X20629502Y-4341994D02*
G75*
G02*
X20759502Y-4341994I65000J0D01*
G01*
X20976970Y-7218660D02*
G75*
G02*
X20846970Y-7218660I-65000J0D01*
G01*
X20846970Y-7218660D02*
G75*
G02*
X20976970Y-7218660I65000J0D01*
G01*
X21009502Y-4775006D02*
G75*
G02*
X20879502Y-4775006I-65000J0D01*
G01*
X20879502Y-4775006D02*
G75*
G02*
X21009502Y-4775006I65000J0D01*
G01*
X21226970Y-7651672D02*
G75*
G02*
X21096970Y-7651672I-65000J0D01*
G01*
X21096970Y-7651672D02*
G75*
G02*
X21226970Y-7651672I65000J0D01*
G01*
X21409588Y-5467777D02*
G75*
G02*
X21279588Y-5467777I-65000J0D01*
G01*
X21279588Y-5467777D02*
G75*
G02*
X21409588Y-5467777I65000J0D01*
G01*
X21522572Y-5113870D02*
G75*
G02*
X21392572Y-5113870I-65000J0D01*
G01*
X21392572Y-5113870D02*
G75*
G02*
X21522572Y-5113870I65000J0D01*
G01*
X21659588Y-5900789D02*
G75*
G02*
X21529588Y-5900789I-65000J0D01*
G01*
X21529588Y-5900789D02*
G75*
G02*
X21659588Y-5900789I65000J0D01*
G01*
X21772572Y-5546883D02*
G75*
G02*
X21642572Y-5546883I-65000J0D01*
G01*
X21642572Y-5546883D02*
G75*
G02*
X21772572Y-5546883I65000J0D01*
G01*
X22059588Y-6593610D02*
G75*
G02*
X21929588Y-6593610I-65000J0D01*
G01*
X21929588Y-6593610D02*
G75*
G02*
X22059588Y-6593610I65000J0D01*
G01*
X22172659Y-6239653D02*
G75*
G02*
X22042659Y-6239653I-65000J0D01*
G01*
X22042659Y-6239653D02*
G75*
G02*
X22172659Y-6239653I65000J0D01*
G01*
X22309588Y-7026622D02*
G75*
G02*
X22179588Y-7026622I-65000J0D01*
G01*
X22179588Y-7026622D02*
G75*
G02*
X22309588Y-7026622I65000J0D01*
G01*
X22422659Y-6672666D02*
G75*
G02*
X22292659Y-6672666I-65000J0D01*
G01*
X22292659Y-6672666D02*
G75*
G02*
X22422659Y-6672666I65000J0D01*
G01*
X22605190Y-4488820D02*
G75*
G02*
X22475190Y-4488820I-65000J0D01*
G01*
X22475190Y-4488820D02*
G75*
G02*
X22605190Y-4488820I65000J0D01*
G01*
X22822572Y-7365536D02*
G75*
G02*
X22692572Y-7365536I-65000J0D01*
G01*
X22692572Y-7365536D02*
G75*
G02*
X22822572Y-7365536I65000J0D01*
G01*
X22855190Y-4921833D02*
G75*
G02*
X22725190Y-4921833I-65000J0D01*
G01*
X22725190Y-4921833D02*
G75*
G02*
X22855190Y-4921833I65000J0D01*
G01*
X23072572Y-7798549D02*
G75*
G02*
X22942572Y-7798549I-65000J0D01*
G01*
X22942572Y-7798549D02*
G75*
G02*
X23072572Y-7798549I65000J0D01*
G01*
X23255277Y-5614603D02*
G75*
G02*
X23125277Y-5614603I-65000J0D01*
G01*
X23125277Y-5614603D02*
G75*
G02*
X23255277Y-5614603I65000J0D01*
G01*
X23505277Y-6047616D02*
G75*
G02*
X23375277Y-6047616I-65000J0D01*
G01*
X23375277Y-6047616D02*
G75*
G02*
X23505277Y-6047616I65000J0D01*
G01*
X23905190Y-6740486D02*
G75*
G02*
X23775190Y-6740486I-65000J0D01*
G01*
X23775190Y-6740486D02*
G75*
G02*
X23905190Y-6740486I65000J0D01*
G01*
X24155190Y-7173499D02*
G75*
G02*
X24025190Y-7173499I-65000J0D01*
G01*
X24025190Y-7173499D02*
G75*
G02*
X24155190Y-7173499I65000J0D01*
G01*
D12*
X6371309Y-12613316D02*
X6371309Y-12413316D01*
X6371309Y-12413316D02*
X6418928Y-12413316D01*
X6418928Y-12413316D02*
X6447500Y-12422840D01*
X6447500Y-12422840D02*
X6466547Y-12441888D01*
X6466547Y-12441888D02*
X6476071Y-12460935D01*
X6476071Y-12460935D02*
X6485595Y-12499031D01*
X6485595Y-12499031D02*
X6485595Y-12527602D01*
X6485595Y-12527602D02*
X6476071Y-12565697D01*
X6476071Y-12565697D02*
X6466547Y-12584745D01*
X6466547Y-12584745D02*
X6447500Y-12603793D01*
X6447500Y-12603793D02*
X6418928Y-12613316D01*
X6418928Y-12613316D02*
X6371309Y-12613316D01*
X6571309Y-12613316D02*
X6571309Y-12479983D01*
X6571309Y-12518078D02*
X6580833Y-12499031D01*
X6580833Y-12499031D02*
X6590357Y-12489507D01*
X6590357Y-12489507D02*
X6609405Y-12479983D01*
X6609405Y-12479983D02*
X6628452Y-12479983D01*
X6695119Y-12613316D02*
X6695119Y-12479983D01*
X6695119Y-12413316D02*
X6685595Y-12422840D01*
X6685595Y-12422840D02*
X6695119Y-12432364D01*
X6695119Y-12432364D02*
X6704643Y-12422840D01*
X6704643Y-12422840D02*
X6695119Y-12413316D01*
X6695119Y-12413316D02*
X6695119Y-12432364D01*
X6818928Y-12613316D02*
X6799881Y-12603793D01*
X6799881Y-12603793D02*
X6790357Y-12584745D01*
X6790357Y-12584745D02*
X6790357Y-12413316D01*
X6923690Y-12613316D02*
X6904643Y-12603793D01*
X6904643Y-12603793D02*
X6895119Y-12584745D01*
X6895119Y-12584745D02*
X6895119Y-12413316D01*
X7152262Y-12613316D02*
X7152262Y-12413316D01*
X7152262Y-12413316D02*
X7218928Y-12556174D01*
X7218928Y-12556174D02*
X7285595Y-12413316D01*
X7285595Y-12413316D02*
X7285595Y-12613316D01*
X7466547Y-12613316D02*
X7466547Y-12508555D01*
X7466547Y-12508555D02*
X7457024Y-12489507D01*
X7457024Y-12489507D02*
X7437976Y-12479983D01*
X7437976Y-12479983D02*
X7399881Y-12479983D01*
X7399881Y-12479983D02*
X7380833Y-12489507D01*
X7466547Y-12603793D02*
X7447500Y-12613316D01*
X7447500Y-12613316D02*
X7399881Y-12613316D01*
X7399881Y-12613316D02*
X7380833Y-12603793D01*
X7380833Y-12603793D02*
X7371309Y-12584745D01*
X7371309Y-12584745D02*
X7371309Y-12565697D01*
X7371309Y-12565697D02*
X7380833Y-12546650D01*
X7380833Y-12546650D02*
X7399881Y-12537126D01*
X7399881Y-12537126D02*
X7447500Y-12537126D01*
X7447500Y-12537126D02*
X7466547Y-12527602D01*
X7561786Y-12479983D02*
X7561786Y-12679983D01*
X7561786Y-12489507D02*
X7580833Y-12479983D01*
X7580833Y-12479983D02*
X7618928Y-12479983D01*
X7618928Y-12479983D02*
X7637976Y-12489507D01*
X7637976Y-12489507D02*
X7647500Y-12499031D01*
X7647500Y-12499031D02*
X7657024Y-12518078D01*
X7657024Y-12518078D02*
X7657024Y-12575221D01*
X7657024Y-12575221D02*
X7647500Y-12594269D01*
X7647500Y-12594269D02*
X7637976Y-12603793D01*
X7637976Y-12603793D02*
X7618928Y-12613316D01*
X7618928Y-12613316D02*
X7580833Y-12613316D01*
X7580833Y-12613316D02*
X7561786Y-12603793D01*
X7742738Y-12594269D02*
X7752262Y-12603793D01*
X7752262Y-12603793D02*
X7742738Y-12613316D01*
X7742738Y-12613316D02*
X7733214Y-12603793D01*
X7733214Y-12603793D02*
X7742738Y-12594269D01*
X7742738Y-12594269D02*
X7742738Y-12613316D01*
X7742738Y-12489507D02*
X7752262Y-12499031D01*
X7752262Y-12499031D02*
X7742738Y-12508555D01*
X7742738Y-12508555D02*
X7733214Y-12499031D01*
X7733214Y-12499031D02*
X7742738Y-12489507D01*
X7742738Y-12489507D02*
X7742738Y-12508555D01*
D13*
X6010533Y-12891833D02*
X6110533Y-12991833D01*
X6110533Y-12891833D02*
X6010533Y-12991833D01*
D12*
X6476071Y-13033316D02*
X6361786Y-13033316D01*
X6418928Y-13033316D02*
X6418928Y-12833316D01*
X6418928Y-12833316D02*
X6399881Y-12861888D01*
X6399881Y-12861888D02*
X6380833Y-12880935D01*
X6380833Y-12880935D02*
X6361786Y-12890459D01*
X6561786Y-13014269D02*
X6571309Y-13023793D01*
X6571309Y-13023793D02*
X6561786Y-13033316D01*
X6561786Y-13033316D02*
X6552262Y-13023793D01*
X6552262Y-13023793D02*
X6561786Y-13014269D01*
X6561786Y-13014269D02*
X6561786Y-13033316D01*
X6695119Y-12833316D02*
X6714167Y-12833316D01*
X6714167Y-12833316D02*
X6733214Y-12842840D01*
X6733214Y-12842840D02*
X6742738Y-12852364D01*
X6742738Y-12852364D02*
X6752262Y-12871412D01*
X6752262Y-12871412D02*
X6761786Y-12909507D01*
X6761786Y-12909507D02*
X6761786Y-12957126D01*
X6761786Y-12957126D02*
X6752262Y-12995221D01*
X6752262Y-12995221D02*
X6742738Y-13014269D01*
X6742738Y-13014269D02*
X6733214Y-13023793D01*
X6733214Y-13023793D02*
X6714167Y-13033316D01*
X6714167Y-13033316D02*
X6695119Y-13033316D01*
X6695119Y-13033316D02*
X6676071Y-13023793D01*
X6676071Y-13023793D02*
X6666547Y-13014269D01*
X6666547Y-13014269D02*
X6657024Y-12995221D01*
X6657024Y-12995221D02*
X6647500Y-12957126D01*
X6647500Y-12957126D02*
X6647500Y-12909507D01*
X6647500Y-12909507D02*
X6657024Y-12871412D01*
X6657024Y-12871412D02*
X6666547Y-12852364D01*
X6666547Y-12852364D02*
X6676071Y-12842840D01*
X6676071Y-12842840D02*
X6695119Y-12833316D01*
X6885595Y-12833316D02*
X6904643Y-12833316D01*
X6904643Y-12833316D02*
X6923690Y-12842840D01*
X6923690Y-12842840D02*
X6933214Y-12852364D01*
X6933214Y-12852364D02*
X6942738Y-12871412D01*
X6942738Y-12871412D02*
X6952262Y-12909507D01*
X6952262Y-12909507D02*
X6952262Y-12957126D01*
X6952262Y-12957126D02*
X6942738Y-12995221D01*
X6942738Y-12995221D02*
X6933214Y-13014269D01*
X6933214Y-13014269D02*
X6923690Y-13023793D01*
X6923690Y-13023793D02*
X6904643Y-13033316D01*
X6904643Y-13033316D02*
X6885595Y-13033316D01*
X6885595Y-13033316D02*
X6866547Y-13023793D01*
X6866547Y-13023793D02*
X6857024Y-13014269D01*
X6857024Y-13014269D02*
X6847500Y-12995221D01*
X6847500Y-12995221D02*
X6837976Y-12957126D01*
X6837976Y-12957126D02*
X6837976Y-12909507D01*
X6837976Y-12909507D02*
X6847500Y-12871412D01*
X6847500Y-12871412D02*
X6857024Y-12852364D01*
X6857024Y-12852364D02*
X6866547Y-12842840D01*
X6866547Y-12842840D02*
X6885595Y-12833316D01*
X7076071Y-12833316D02*
X7095119Y-12833316D01*
X7095119Y-12833316D02*
X7114167Y-12842840D01*
X7114167Y-12842840D02*
X7123690Y-12852364D01*
X7123690Y-12852364D02*
X7133214Y-12871412D01*
X7133214Y-12871412D02*
X7142738Y-12909507D01*
X7142738Y-12909507D02*
X7142738Y-12957126D01*
X7142738Y-12957126D02*
X7133214Y-12995221D01*
X7133214Y-12995221D02*
X7123690Y-13014269D01*
X7123690Y-13014269D02*
X7114167Y-13023793D01*
X7114167Y-13023793D02*
X7095119Y-13033316D01*
X7095119Y-13033316D02*
X7076071Y-13033316D01*
X7076071Y-13033316D02*
X7057024Y-13023793D01*
X7057024Y-13023793D02*
X7047500Y-13014269D01*
X7047500Y-13014269D02*
X7037976Y-12995221D01*
X7037976Y-12995221D02*
X7028452Y-12957126D01*
X7028452Y-12957126D02*
X7028452Y-12909507D01*
X7028452Y-12909507D02*
X7037976Y-12871412D01*
X7037976Y-12871412D02*
X7047500Y-12852364D01*
X7047500Y-12852364D02*
X7057024Y-12842840D01*
X7057024Y-12842840D02*
X7076071Y-12833316D01*
X7228452Y-13033316D02*
X7228452Y-12899983D01*
X7228452Y-12919031D02*
X7237976Y-12909507D01*
X7237976Y-12909507D02*
X7257024Y-12899983D01*
X7257024Y-12899983D02*
X7285595Y-12899983D01*
X7285595Y-12899983D02*
X7304643Y-12909507D01*
X7304643Y-12909507D02*
X7314167Y-12928555D01*
X7314167Y-12928555D02*
X7314167Y-13033316D01*
X7314167Y-12928555D02*
X7323690Y-12909507D01*
X7323690Y-12909507D02*
X7342738Y-12899983D01*
X7342738Y-12899983D02*
X7371309Y-12899983D01*
X7371309Y-12899983D02*
X7390357Y-12909507D01*
X7390357Y-12909507D02*
X7399881Y-12928555D01*
X7399881Y-12928555D02*
X7399881Y-13033316D01*
X7495119Y-13033316D02*
X7495119Y-12899983D01*
X7495119Y-12919031D02*
X7504643Y-12909507D01*
X7504643Y-12909507D02*
X7523690Y-12899983D01*
X7523690Y-12899983D02*
X7552262Y-12899983D01*
X7552262Y-12899983D02*
X7571309Y-12909507D01*
X7571309Y-12909507D02*
X7580833Y-12928555D01*
X7580833Y-12928555D02*
X7580833Y-13033316D01*
X7580833Y-12928555D02*
X7590357Y-12909507D01*
X7590357Y-12909507D02*
X7609405Y-12899983D01*
X7609405Y-12899983D02*
X7637976Y-12899983D01*
X7637976Y-12899983D02*
X7657024Y-12909507D01*
X7657024Y-12909507D02*
X7666548Y-12928555D01*
X7666548Y-12928555D02*
X7666548Y-13033316D01*
X8057024Y-12823793D02*
X7885595Y-13080935D01*
X8314167Y-12833316D02*
X8333214Y-12833316D01*
X8333214Y-12833316D02*
X8352262Y-12842840D01*
X8352262Y-12842840D02*
X8361786Y-12852364D01*
X8361786Y-12852364D02*
X8371310Y-12871412D01*
X8371310Y-12871412D02*
X8380833Y-12909507D01*
X8380833Y-12909507D02*
X8380833Y-12957126D01*
X8380833Y-12957126D02*
X8371310Y-12995221D01*
X8371310Y-12995221D02*
X8361786Y-13014269D01*
X8361786Y-13014269D02*
X8352262Y-13023793D01*
X8352262Y-13023793D02*
X8333214Y-13033316D01*
X8333214Y-13033316D02*
X8314167Y-13033316D01*
X8314167Y-13033316D02*
X8295119Y-13023793D01*
X8295119Y-13023793D02*
X8285595Y-13014269D01*
X8285595Y-13014269D02*
X8276071Y-12995221D01*
X8276071Y-12995221D02*
X8266548Y-12957126D01*
X8266548Y-12957126D02*
X8266548Y-12909507D01*
X8266548Y-12909507D02*
X8276071Y-12871412D01*
X8276071Y-12871412D02*
X8285595Y-12852364D01*
X8285595Y-12852364D02*
X8295119Y-12842840D01*
X8295119Y-12842840D02*
X8314167Y-12833316D01*
X8466548Y-13014269D02*
X8476072Y-13023793D01*
X8476072Y-13023793D02*
X8466548Y-13033316D01*
X8466548Y-13033316D02*
X8457024Y-13023793D01*
X8457024Y-13023793D02*
X8466548Y-13014269D01*
X8466548Y-13014269D02*
X8466548Y-13033316D01*
X8599881Y-12833316D02*
X8618929Y-12833316D01*
X8618929Y-12833316D02*
X8637976Y-12842840D01*
X8637976Y-12842840D02*
X8647500Y-12852364D01*
X8647500Y-12852364D02*
X8657024Y-12871412D01*
X8657024Y-12871412D02*
X8666548Y-12909507D01*
X8666548Y-12909507D02*
X8666548Y-12957126D01*
X8666548Y-12957126D02*
X8657024Y-12995221D01*
X8657024Y-12995221D02*
X8647500Y-13014269D01*
X8647500Y-13014269D02*
X8637976Y-13023793D01*
X8637976Y-13023793D02*
X8618929Y-13033316D01*
X8618929Y-13033316D02*
X8599881Y-13033316D01*
X8599881Y-13033316D02*
X8580833Y-13023793D01*
X8580833Y-13023793D02*
X8571310Y-13014269D01*
X8571310Y-13014269D02*
X8561786Y-12995221D01*
X8561786Y-12995221D02*
X8552262Y-12957126D01*
X8552262Y-12957126D02*
X8552262Y-12909507D01*
X8552262Y-12909507D02*
X8561786Y-12871412D01*
X8561786Y-12871412D02*
X8571310Y-12852364D01*
X8571310Y-12852364D02*
X8580833Y-12842840D01*
X8580833Y-12842840D02*
X8599881Y-12833316D01*
X8733214Y-12833316D02*
X8857024Y-12833316D01*
X8857024Y-12833316D02*
X8790357Y-12909507D01*
X8790357Y-12909507D02*
X8818929Y-12909507D01*
X8818929Y-12909507D02*
X8837976Y-12919031D01*
X8837976Y-12919031D02*
X8847500Y-12928555D01*
X8847500Y-12928555D02*
X8857024Y-12947602D01*
X8857024Y-12947602D02*
X8857024Y-12995221D01*
X8857024Y-12995221D02*
X8847500Y-13014269D01*
X8847500Y-13014269D02*
X8837976Y-13023793D01*
X8837976Y-13023793D02*
X8818929Y-13033316D01*
X8818929Y-13033316D02*
X8761786Y-13033316D01*
X8761786Y-13033316D02*
X8742738Y-13023793D01*
X8742738Y-13023793D02*
X8733214Y-13014269D01*
X8952262Y-13033316D02*
X8990357Y-13033316D01*
X8990357Y-13033316D02*
X9009405Y-13023793D01*
X9009405Y-13023793D02*
X9018929Y-13014269D01*
X9018929Y-13014269D02*
X9037976Y-12985697D01*
X9037976Y-12985697D02*
X9047500Y-12947602D01*
X9047500Y-12947602D02*
X9047500Y-12871412D01*
X9047500Y-12871412D02*
X9037976Y-12852364D01*
X9037976Y-12852364D02*
X9028453Y-12842840D01*
X9028453Y-12842840D02*
X9009405Y-12833316D01*
X9009405Y-12833316D02*
X8971310Y-12833316D01*
X8971310Y-12833316D02*
X8952262Y-12842840D01*
X8952262Y-12842840D02*
X8942738Y-12852364D01*
X8942738Y-12852364D02*
X8933214Y-12871412D01*
X8933214Y-12871412D02*
X8933214Y-12919031D01*
X8933214Y-12919031D02*
X8942738Y-12938078D01*
X8942738Y-12938078D02*
X8952262Y-12947602D01*
X8952262Y-12947602D02*
X8971310Y-12957126D01*
X8971310Y-12957126D02*
X9009405Y-12957126D01*
X9009405Y-12957126D02*
X9028453Y-12947602D01*
X9028453Y-12947602D02*
X9037976Y-12938078D01*
X9037976Y-12938078D02*
X9047500Y-12919031D01*
X9218929Y-12899983D02*
X9218929Y-13033316D01*
X9171310Y-12823793D02*
X9123691Y-12966650D01*
X9123691Y-12966650D02*
X9247500Y-12966650D01*
X9314167Y-12833316D02*
X9314167Y-12871412D01*
X9390357Y-12833316D02*
X9390357Y-12871412D01*
X9685596Y-13109507D02*
X9676072Y-13099983D01*
X9676072Y-13099983D02*
X9657024Y-13071412D01*
X9657024Y-13071412D02*
X9647500Y-13052364D01*
X9647500Y-13052364D02*
X9637976Y-13023793D01*
X9637976Y-13023793D02*
X9628453Y-12976174D01*
X9628453Y-12976174D02*
X9628453Y-12938078D01*
X9628453Y-12938078D02*
X9637976Y-12890459D01*
X9637976Y-12890459D02*
X9647500Y-12861888D01*
X9647500Y-12861888D02*
X9657024Y-12842840D01*
X9657024Y-12842840D02*
X9676072Y-12814269D01*
X9676072Y-12814269D02*
X9685596Y-12804745D01*
X9752262Y-12852364D02*
X9761786Y-12842840D01*
X9761786Y-12842840D02*
X9780834Y-12833316D01*
X9780834Y-12833316D02*
X9828453Y-12833316D01*
X9828453Y-12833316D02*
X9847500Y-12842840D01*
X9847500Y-12842840D02*
X9857024Y-12852364D01*
X9857024Y-12852364D02*
X9866548Y-12871412D01*
X9866548Y-12871412D02*
X9866548Y-12890459D01*
X9866548Y-12890459D02*
X9857024Y-12919031D01*
X9857024Y-12919031D02*
X9742738Y-13033316D01*
X9742738Y-13033316D02*
X9866548Y-13033316D01*
X9933215Y-12833316D02*
X10057024Y-12833316D01*
X10057024Y-12833316D02*
X9990357Y-12909507D01*
X9990357Y-12909507D02*
X10018929Y-12909507D01*
X10018929Y-12909507D02*
X10037976Y-12919031D01*
X10037976Y-12919031D02*
X10047500Y-12928555D01*
X10047500Y-12928555D02*
X10057024Y-12947602D01*
X10057024Y-12947602D02*
X10057024Y-12995221D01*
X10057024Y-12995221D02*
X10047500Y-13014269D01*
X10047500Y-13014269D02*
X10037976Y-13023793D01*
X10037976Y-13023793D02*
X10018929Y-13033316D01*
X10018929Y-13033316D02*
X9961786Y-13033316D01*
X9961786Y-13033316D02*
X9942738Y-13023793D01*
X9942738Y-13023793D02*
X9933215Y-13014269D01*
X10295119Y-13033316D02*
X10295119Y-12833316D01*
X10380834Y-13033316D02*
X10380834Y-12928555D01*
X10380834Y-12928555D02*
X10371310Y-12909507D01*
X10371310Y-12909507D02*
X10352262Y-12899983D01*
X10352262Y-12899983D02*
X10323691Y-12899983D01*
X10323691Y-12899983D02*
X10304643Y-12909507D01*
X10304643Y-12909507D02*
X10295119Y-12919031D01*
X10504643Y-13033316D02*
X10485596Y-13023793D01*
X10485596Y-13023793D02*
X10476072Y-13014269D01*
X10476072Y-13014269D02*
X10466548Y-12995221D01*
X10466548Y-12995221D02*
X10466548Y-12938078D01*
X10466548Y-12938078D02*
X10476072Y-12919031D01*
X10476072Y-12919031D02*
X10485596Y-12909507D01*
X10485596Y-12909507D02*
X10504643Y-12899983D01*
X10504643Y-12899983D02*
X10533215Y-12899983D01*
X10533215Y-12899983D02*
X10552262Y-12909507D01*
X10552262Y-12909507D02*
X10561786Y-12919031D01*
X10561786Y-12919031D02*
X10571310Y-12938078D01*
X10571310Y-12938078D02*
X10571310Y-12995221D01*
X10571310Y-12995221D02*
X10561786Y-13014269D01*
X10561786Y-13014269D02*
X10552262Y-13023793D01*
X10552262Y-13023793D02*
X10533215Y-13033316D01*
X10533215Y-13033316D02*
X10504643Y-13033316D01*
X10685596Y-13033316D02*
X10666548Y-13023793D01*
X10666548Y-13023793D02*
X10657024Y-13004745D01*
X10657024Y-13004745D02*
X10657024Y-12833316D01*
X10837977Y-13023793D02*
X10818929Y-13033316D01*
X10818929Y-13033316D02*
X10780834Y-13033316D01*
X10780834Y-13033316D02*
X10761786Y-13023793D01*
X10761786Y-13023793D02*
X10752262Y-13004745D01*
X10752262Y-13004745D02*
X10752262Y-12928555D01*
X10752262Y-12928555D02*
X10761786Y-12909507D01*
X10761786Y-12909507D02*
X10780834Y-12899983D01*
X10780834Y-12899983D02*
X10818929Y-12899983D01*
X10818929Y-12899983D02*
X10837977Y-12909507D01*
X10837977Y-12909507D02*
X10847500Y-12928555D01*
X10847500Y-12928555D02*
X10847500Y-12947602D01*
X10847500Y-12947602D02*
X10752262Y-12966650D01*
X10923691Y-13023793D02*
X10942738Y-13033316D01*
X10942738Y-13033316D02*
X10980834Y-13033316D01*
X10980834Y-13033316D02*
X10999881Y-13023793D01*
X10999881Y-13023793D02*
X11009405Y-13004745D01*
X11009405Y-13004745D02*
X11009405Y-12995221D01*
X11009405Y-12995221D02*
X10999881Y-12976174D01*
X10999881Y-12976174D02*
X10980834Y-12966650D01*
X10980834Y-12966650D02*
X10952262Y-12966650D01*
X10952262Y-12966650D02*
X10933215Y-12957126D01*
X10933215Y-12957126D02*
X10923691Y-12938078D01*
X10923691Y-12938078D02*
X10923691Y-12928555D01*
X10923691Y-12928555D02*
X10933215Y-12909507D01*
X10933215Y-12909507D02*
X10952262Y-12899983D01*
X10952262Y-12899983D02*
X10980834Y-12899983D01*
X10980834Y-12899983D02*
X10999881Y-12909507D01*
X11076072Y-13109507D02*
X11085596Y-13099983D01*
X11085596Y-13099983D02*
X11104643Y-13071412D01*
X11104643Y-13071412D02*
X11114167Y-13052364D01*
X11114167Y-13052364D02*
X11123691Y-13023793D01*
X11123691Y-13023793D02*
X11133215Y-12976174D01*
X11133215Y-12976174D02*
X11133215Y-12938078D01*
X11133215Y-12938078D02*
X11123691Y-12890459D01*
X11123691Y-12890459D02*
X11114167Y-12861888D01*
X11114167Y-12861888D02*
X11104643Y-12842840D01*
X11104643Y-12842840D02*
X11085596Y-12814269D01*
X11085596Y-12814269D02*
X11076072Y-12804745D01*
D14*
X6110533Y-13205833D02*
G75*
G02*
X5980533Y-13205833I-65000J0D01*
G01*
X5980533Y-13205833D02*
G75*
G02*
X6110533Y-13205833I65000J0D01*
G01*
D12*
X6476071Y-13297316D02*
X6361786Y-13297316D01*
X6418928Y-13297316D02*
X6418928Y-13097316D01*
X6418928Y-13097316D02*
X6399881Y-13125888D01*
X6399881Y-13125888D02*
X6380833Y-13144935D01*
X6380833Y-13144935D02*
X6361786Y-13154459D01*
X6561786Y-13278269D02*
X6571309Y-13287793D01*
X6571309Y-13287793D02*
X6561786Y-13297316D01*
X6561786Y-13297316D02*
X6552262Y-13287793D01*
X6552262Y-13287793D02*
X6561786Y-13278269D01*
X6561786Y-13278269D02*
X6561786Y-13297316D01*
X6637976Y-13097316D02*
X6761786Y-13097316D01*
X6761786Y-13097316D02*
X6695119Y-13173507D01*
X6695119Y-13173507D02*
X6723690Y-13173507D01*
X6723690Y-13173507D02*
X6742738Y-13183031D01*
X6742738Y-13183031D02*
X6752262Y-13192555D01*
X6752262Y-13192555D02*
X6761786Y-13211602D01*
X6761786Y-13211602D02*
X6761786Y-13259221D01*
X6761786Y-13259221D02*
X6752262Y-13278269D01*
X6752262Y-13278269D02*
X6742738Y-13287793D01*
X6742738Y-13287793D02*
X6723690Y-13297316D01*
X6723690Y-13297316D02*
X6666547Y-13297316D01*
X6666547Y-13297316D02*
X6647500Y-13287793D01*
X6647500Y-13287793D02*
X6637976Y-13278269D01*
X6885595Y-13097316D02*
X6904643Y-13097316D01*
X6904643Y-13097316D02*
X6923690Y-13106840D01*
X6923690Y-13106840D02*
X6933214Y-13116364D01*
X6933214Y-13116364D02*
X6942738Y-13135412D01*
X6942738Y-13135412D02*
X6952262Y-13173507D01*
X6952262Y-13173507D02*
X6952262Y-13221126D01*
X6952262Y-13221126D02*
X6942738Y-13259221D01*
X6942738Y-13259221D02*
X6933214Y-13278269D01*
X6933214Y-13278269D02*
X6923690Y-13287793D01*
X6923690Y-13287793D02*
X6904643Y-13297316D01*
X6904643Y-13297316D02*
X6885595Y-13297316D01*
X6885595Y-13297316D02*
X6866547Y-13287793D01*
X6866547Y-13287793D02*
X6857024Y-13278269D01*
X6857024Y-13278269D02*
X6847500Y-13259221D01*
X6847500Y-13259221D02*
X6837976Y-13221126D01*
X6837976Y-13221126D02*
X6837976Y-13173507D01*
X6837976Y-13173507D02*
X6847500Y-13135412D01*
X6847500Y-13135412D02*
X6857024Y-13116364D01*
X6857024Y-13116364D02*
X6866547Y-13106840D01*
X6866547Y-13106840D02*
X6885595Y-13097316D01*
X7076071Y-13097316D02*
X7095119Y-13097316D01*
X7095119Y-13097316D02*
X7114167Y-13106840D01*
X7114167Y-13106840D02*
X7123690Y-13116364D01*
X7123690Y-13116364D02*
X7133214Y-13135412D01*
X7133214Y-13135412D02*
X7142738Y-13173507D01*
X7142738Y-13173507D02*
X7142738Y-13221126D01*
X7142738Y-13221126D02*
X7133214Y-13259221D01*
X7133214Y-13259221D02*
X7123690Y-13278269D01*
X7123690Y-13278269D02*
X7114167Y-13287793D01*
X7114167Y-13287793D02*
X7095119Y-13297316D01*
X7095119Y-13297316D02*
X7076071Y-13297316D01*
X7076071Y-13297316D02*
X7057024Y-13287793D01*
X7057024Y-13287793D02*
X7047500Y-13278269D01*
X7047500Y-13278269D02*
X7037976Y-13259221D01*
X7037976Y-13259221D02*
X7028452Y-13221126D01*
X7028452Y-13221126D02*
X7028452Y-13173507D01*
X7028452Y-13173507D02*
X7037976Y-13135412D01*
X7037976Y-13135412D02*
X7047500Y-13116364D01*
X7047500Y-13116364D02*
X7057024Y-13106840D01*
X7057024Y-13106840D02*
X7076071Y-13097316D01*
X7228452Y-13297316D02*
X7228452Y-13163983D01*
X7228452Y-13183031D02*
X7237976Y-13173507D01*
X7237976Y-13173507D02*
X7257024Y-13163983D01*
X7257024Y-13163983D02*
X7285595Y-13163983D01*
X7285595Y-13163983D02*
X7304643Y-13173507D01*
X7304643Y-13173507D02*
X7314167Y-13192555D01*
X7314167Y-13192555D02*
X7314167Y-13297316D01*
X7314167Y-13192555D02*
X7323690Y-13173507D01*
X7323690Y-13173507D02*
X7342738Y-13163983D01*
X7342738Y-13163983D02*
X7371309Y-13163983D01*
X7371309Y-13163983D02*
X7390357Y-13173507D01*
X7390357Y-13173507D02*
X7399881Y-13192555D01*
X7399881Y-13192555D02*
X7399881Y-13297316D01*
X7495119Y-13297316D02*
X7495119Y-13163983D01*
X7495119Y-13183031D02*
X7504643Y-13173507D01*
X7504643Y-13173507D02*
X7523690Y-13163983D01*
X7523690Y-13163983D02*
X7552262Y-13163983D01*
X7552262Y-13163983D02*
X7571309Y-13173507D01*
X7571309Y-13173507D02*
X7580833Y-13192555D01*
X7580833Y-13192555D02*
X7580833Y-13297316D01*
X7580833Y-13192555D02*
X7590357Y-13173507D01*
X7590357Y-13173507D02*
X7609405Y-13163983D01*
X7609405Y-13163983D02*
X7637976Y-13163983D01*
X7637976Y-13163983D02*
X7657024Y-13173507D01*
X7657024Y-13173507D02*
X7666548Y-13192555D01*
X7666548Y-13192555D02*
X7666548Y-13297316D01*
X8057024Y-13087793D02*
X7885595Y-13344935D01*
X8314167Y-13097316D02*
X8333214Y-13097316D01*
X8333214Y-13097316D02*
X8352262Y-13106840D01*
X8352262Y-13106840D02*
X8361786Y-13116364D01*
X8361786Y-13116364D02*
X8371310Y-13135412D01*
X8371310Y-13135412D02*
X8380833Y-13173507D01*
X8380833Y-13173507D02*
X8380833Y-13221126D01*
X8380833Y-13221126D02*
X8371310Y-13259221D01*
X8371310Y-13259221D02*
X8361786Y-13278269D01*
X8361786Y-13278269D02*
X8352262Y-13287793D01*
X8352262Y-13287793D02*
X8333214Y-13297316D01*
X8333214Y-13297316D02*
X8314167Y-13297316D01*
X8314167Y-13297316D02*
X8295119Y-13287793D01*
X8295119Y-13287793D02*
X8285595Y-13278269D01*
X8285595Y-13278269D02*
X8276071Y-13259221D01*
X8276071Y-13259221D02*
X8266548Y-13221126D01*
X8266548Y-13221126D02*
X8266548Y-13173507D01*
X8266548Y-13173507D02*
X8276071Y-13135412D01*
X8276071Y-13135412D02*
X8285595Y-13116364D01*
X8285595Y-13116364D02*
X8295119Y-13106840D01*
X8295119Y-13106840D02*
X8314167Y-13097316D01*
X8466548Y-13278269D02*
X8476072Y-13287793D01*
X8476072Y-13287793D02*
X8466548Y-13297316D01*
X8466548Y-13297316D02*
X8457024Y-13287793D01*
X8457024Y-13287793D02*
X8466548Y-13278269D01*
X8466548Y-13278269D02*
X8466548Y-13297316D01*
X8599881Y-13097316D02*
X8618929Y-13097316D01*
X8618929Y-13097316D02*
X8637976Y-13106840D01*
X8637976Y-13106840D02*
X8647500Y-13116364D01*
X8647500Y-13116364D02*
X8657024Y-13135412D01*
X8657024Y-13135412D02*
X8666548Y-13173507D01*
X8666548Y-13173507D02*
X8666548Y-13221126D01*
X8666548Y-13221126D02*
X8657024Y-13259221D01*
X8657024Y-13259221D02*
X8647500Y-13278269D01*
X8647500Y-13278269D02*
X8637976Y-13287793D01*
X8637976Y-13287793D02*
X8618929Y-13297316D01*
X8618929Y-13297316D02*
X8599881Y-13297316D01*
X8599881Y-13297316D02*
X8580833Y-13287793D01*
X8580833Y-13287793D02*
X8571310Y-13278269D01*
X8571310Y-13278269D02*
X8561786Y-13259221D01*
X8561786Y-13259221D02*
X8552262Y-13221126D01*
X8552262Y-13221126D02*
X8552262Y-13173507D01*
X8552262Y-13173507D02*
X8561786Y-13135412D01*
X8561786Y-13135412D02*
X8571310Y-13116364D01*
X8571310Y-13116364D02*
X8580833Y-13106840D01*
X8580833Y-13106840D02*
X8599881Y-13097316D01*
X8847500Y-13097316D02*
X8752262Y-13097316D01*
X8752262Y-13097316D02*
X8742738Y-13192555D01*
X8742738Y-13192555D02*
X8752262Y-13183031D01*
X8752262Y-13183031D02*
X8771310Y-13173507D01*
X8771310Y-13173507D02*
X8818929Y-13173507D01*
X8818929Y-13173507D02*
X8837976Y-13183031D01*
X8837976Y-13183031D02*
X8847500Y-13192555D01*
X8847500Y-13192555D02*
X8857024Y-13211602D01*
X8857024Y-13211602D02*
X8857024Y-13259221D01*
X8857024Y-13259221D02*
X8847500Y-13278269D01*
X8847500Y-13278269D02*
X8837976Y-13287793D01*
X8837976Y-13287793D02*
X8818929Y-13297316D01*
X8818929Y-13297316D02*
X8771310Y-13297316D01*
X8771310Y-13297316D02*
X8752262Y-13287793D01*
X8752262Y-13287793D02*
X8742738Y-13278269D01*
X9047500Y-13297316D02*
X8933214Y-13297316D01*
X8990357Y-13297316D02*
X8990357Y-13097316D01*
X8990357Y-13097316D02*
X8971310Y-13125888D01*
X8971310Y-13125888D02*
X8952262Y-13144935D01*
X8952262Y-13144935D02*
X8933214Y-13154459D01*
X9123691Y-13116364D02*
X9133214Y-13106840D01*
X9133214Y-13106840D02*
X9152262Y-13097316D01*
X9152262Y-13097316D02*
X9199881Y-13097316D01*
X9199881Y-13097316D02*
X9218929Y-13106840D01*
X9218929Y-13106840D02*
X9228453Y-13116364D01*
X9228453Y-13116364D02*
X9237976Y-13135412D01*
X9237976Y-13135412D02*
X9237976Y-13154459D01*
X9237976Y-13154459D02*
X9228453Y-13183031D01*
X9228453Y-13183031D02*
X9114167Y-13297316D01*
X9114167Y-13297316D02*
X9237976Y-13297316D01*
X9314167Y-13097316D02*
X9314167Y-13135412D01*
X9390357Y-13097316D02*
X9390357Y-13135412D01*
X9685596Y-13373507D02*
X9676072Y-13363983D01*
X9676072Y-13363983D02*
X9657024Y-13335412D01*
X9657024Y-13335412D02*
X9647500Y-13316364D01*
X9647500Y-13316364D02*
X9637976Y-13287793D01*
X9637976Y-13287793D02*
X9628453Y-13240174D01*
X9628453Y-13240174D02*
X9628453Y-13202078D01*
X9628453Y-13202078D02*
X9637976Y-13154459D01*
X9637976Y-13154459D02*
X9647500Y-13125888D01*
X9647500Y-13125888D02*
X9657024Y-13106840D01*
X9657024Y-13106840D02*
X9676072Y-13078269D01*
X9676072Y-13078269D02*
X9685596Y-13068745D01*
X9866548Y-13297316D02*
X9752262Y-13297316D01*
X9809405Y-13297316D02*
X9809405Y-13097316D01*
X9809405Y-13097316D02*
X9790357Y-13125888D01*
X9790357Y-13125888D02*
X9771310Y-13144935D01*
X9771310Y-13144935D02*
X9752262Y-13154459D01*
X9933215Y-13097316D02*
X10057024Y-13097316D01*
X10057024Y-13097316D02*
X9990357Y-13173507D01*
X9990357Y-13173507D02*
X10018929Y-13173507D01*
X10018929Y-13173507D02*
X10037976Y-13183031D01*
X10037976Y-13183031D02*
X10047500Y-13192555D01*
X10047500Y-13192555D02*
X10057024Y-13211602D01*
X10057024Y-13211602D02*
X10057024Y-13259221D01*
X10057024Y-13259221D02*
X10047500Y-13278269D01*
X10047500Y-13278269D02*
X10037976Y-13287793D01*
X10037976Y-13287793D02*
X10018929Y-13297316D01*
X10018929Y-13297316D02*
X9961786Y-13297316D01*
X9961786Y-13297316D02*
X9942738Y-13287793D01*
X9942738Y-13287793D02*
X9933215Y-13278269D01*
X10228453Y-13097316D02*
X10190357Y-13097316D01*
X10190357Y-13097316D02*
X10171310Y-13106840D01*
X10171310Y-13106840D02*
X10161786Y-13116364D01*
X10161786Y-13116364D02*
X10142738Y-13144935D01*
X10142738Y-13144935D02*
X10133215Y-13183031D01*
X10133215Y-13183031D02*
X10133215Y-13259221D01*
X10133215Y-13259221D02*
X10142738Y-13278269D01*
X10142738Y-13278269D02*
X10152262Y-13287793D01*
X10152262Y-13287793D02*
X10171310Y-13297316D01*
X10171310Y-13297316D02*
X10209405Y-13297316D01*
X10209405Y-13297316D02*
X10228453Y-13287793D01*
X10228453Y-13287793D02*
X10237976Y-13278269D01*
X10237976Y-13278269D02*
X10247500Y-13259221D01*
X10247500Y-13259221D02*
X10247500Y-13211602D01*
X10247500Y-13211602D02*
X10237976Y-13192555D01*
X10237976Y-13192555D02*
X10228453Y-13183031D01*
X10228453Y-13183031D02*
X10209405Y-13173507D01*
X10209405Y-13173507D02*
X10171310Y-13173507D01*
X10171310Y-13173507D02*
X10152262Y-13183031D01*
X10152262Y-13183031D02*
X10142738Y-13192555D01*
X10142738Y-13192555D02*
X10133215Y-13211602D01*
X10485596Y-13297316D02*
X10485596Y-13097316D01*
X10571310Y-13297316D02*
X10571310Y-13192555D01*
X10571310Y-13192555D02*
X10561786Y-13173507D01*
X10561786Y-13173507D02*
X10542738Y-13163983D01*
X10542738Y-13163983D02*
X10514167Y-13163983D01*
X10514167Y-13163983D02*
X10495119Y-13173507D01*
X10495119Y-13173507D02*
X10485596Y-13183031D01*
X10695119Y-13297316D02*
X10676072Y-13287793D01*
X10676072Y-13287793D02*
X10666548Y-13278269D01*
X10666548Y-13278269D02*
X10657024Y-13259221D01*
X10657024Y-13259221D02*
X10657024Y-13202078D01*
X10657024Y-13202078D02*
X10666548Y-13183031D01*
X10666548Y-13183031D02*
X10676072Y-13173507D01*
X10676072Y-13173507D02*
X10695119Y-13163983D01*
X10695119Y-13163983D02*
X10723691Y-13163983D01*
X10723691Y-13163983D02*
X10742738Y-13173507D01*
X10742738Y-13173507D02*
X10752262Y-13183031D01*
X10752262Y-13183031D02*
X10761786Y-13202078D01*
X10761786Y-13202078D02*
X10761786Y-13259221D01*
X10761786Y-13259221D02*
X10752262Y-13278269D01*
X10752262Y-13278269D02*
X10742738Y-13287793D01*
X10742738Y-13287793D02*
X10723691Y-13297316D01*
X10723691Y-13297316D02*
X10695119Y-13297316D01*
X10876072Y-13297316D02*
X10857024Y-13287793D01*
X10857024Y-13287793D02*
X10847500Y-13268745D01*
X10847500Y-13268745D02*
X10847500Y-13097316D01*
X11028453Y-13287793D02*
X11009405Y-13297316D01*
X11009405Y-13297316D02*
X10971310Y-13297316D01*
X10971310Y-13297316D02*
X10952262Y-13287793D01*
X10952262Y-13287793D02*
X10942738Y-13268745D01*
X10942738Y-13268745D02*
X10942738Y-13192555D01*
X10942738Y-13192555D02*
X10952262Y-13173507D01*
X10952262Y-13173507D02*
X10971310Y-13163983D01*
X10971310Y-13163983D02*
X11009405Y-13163983D01*
X11009405Y-13163983D02*
X11028453Y-13173507D01*
X11028453Y-13173507D02*
X11037977Y-13192555D01*
X11037977Y-13192555D02*
X11037977Y-13211602D01*
X11037977Y-13211602D02*
X10942738Y-13230650D01*
X11114167Y-13287793D02*
X11133215Y-13297316D01*
X11133215Y-13297316D02*
X11171310Y-13297316D01*
X11171310Y-13297316D02*
X11190357Y-13287793D01*
X11190357Y-13287793D02*
X11199881Y-13268745D01*
X11199881Y-13268745D02*
X11199881Y-13259221D01*
X11199881Y-13259221D02*
X11190357Y-13240174D01*
X11190357Y-13240174D02*
X11171310Y-13230650D01*
X11171310Y-13230650D02*
X11142738Y-13230650D01*
X11142738Y-13230650D02*
X11123691Y-13221126D01*
X11123691Y-13221126D02*
X11114167Y-13202078D01*
X11114167Y-13202078D02*
X11114167Y-13192555D01*
X11114167Y-13192555D02*
X11123691Y-13173507D01*
X11123691Y-13173507D02*
X11142738Y-13163983D01*
X11142738Y-13163983D02*
X11171310Y-13163983D01*
X11171310Y-13163983D02*
X11190357Y-13173507D01*
X11266548Y-13373507D02*
X11276072Y-13363983D01*
X11276072Y-13363983D02*
X11295119Y-13335412D01*
X11295119Y-13335412D02*
X11304643Y-13316364D01*
X11304643Y-13316364D02*
X11314167Y-13287793D01*
X11314167Y-13287793D02*
X11323691Y-13240174D01*
X11323691Y-13240174D02*
X11323691Y-13202078D01*
X11323691Y-13202078D02*
X11314167Y-13154459D01*
X11314167Y-13154459D02*
X11304643Y-13125888D01*
X11304643Y-13125888D02*
X11295119Y-13106840D01*
X11295119Y-13106840D02*
X11276072Y-13078269D01*
X11276072Y-13078269D02*
X11266548Y-13068745D01*
M02*
